<?xml version="1.0" standalone="no"?>
<!DOCTYPE svg PUBLIC "-//W3C//DTD SVG 20010904//EN"
 "http://www.w3.org/TR/2001/REC-SVG-20010904/DTD/svg10.dtd">
<svg version="1.0" xmlns="http://www.w3.org/2000/svg"
 width="1000.000000pt" height="1000.000000pt" viewBox="0 0 1300.000000 1300.000000"
 preserveAspectRatio="xMidYMid meet">

<g transform="translate(0.000000,1300.000000) scale(0.100000,-0.100000)"
fill="rgba(255, 192, 203, 0.3)" stroke="none">
<path d="M6615 10320 c-3 -5 1 -10 10 -10 9 0 13 5 10 10 -3 6 -8 10 -10 10
-2 0 -7 -4 -10 -10z"/>
<path d="M5010 10244 c-85 -13 -186 -26 -225 -30 -38 -3 -98 -15 -133 -25 -34
-10 -86 -21 -114 -24 -51 -5 -66 -10 -56 -21 7 -7 155 11 263 31 44 8 132 22
195 30 150 20 267 42 288 55 28 16 -47 10 -218 -16z"/>
<path d="M5358 10213 c6 -2 18 -2 25 0 6 3 1 5 -13 5 -14 0 -19 -2 -12 -5z"/>
<path d="M5135 10190 c-3 -5 -1 -10 4 -10 6 0 11 5 11 10 0 6 -2 10 -4 10 -3
0 -8 -4 -11 -10z"/>
<path d="M5178 10193 c7 -3 16 -2 19 1 4 3 -2 6 -13 5 -11 0 -14 -3 -6 -6z"/>
<path d="M6298 10183 c6 -2 18 -2 25 0 6 3 1 5 -13 5 -14 0 -19 -2 -12 -5z"/>
<path d="M4960 10165 l-35 -13 36 -1 c21 -1 42 5 49 14 16 19 0 19 -50 0z"/>
<path d="M6068 10173 c6 -2 18 -2 25 0 6 3 1 5 -13 5 -14 0 -19 -2 -12 -5z"/>
<path d="M5775 10154 c-393 -42 -688 -80 -916 -119 -142 -24 -268 -41 -280
-38 -16 3 -20 2 -11 -4 8 -7 -23 -17 -95 -32 -59 -13 -135 -32 -168 -42 -33
-10 -79 -19 -101 -19 -25 0 -47 -6 -54 -15 -7 -8 -23 -15 -36 -15 -12 0 -25
-4 -29 -9 -3 -5 -19 -9 -35 -9 -16 1 -36 -4 -43 -11 -8 -6 -34 -15 -58 -20
-24 -5 -73 -20 -109 -34 -36 -14 -81 -31 -100 -37 -94 -33 -180 -65 -230 -86
-30 -13 -75 -28 -100 -35 -25 -6 -57 -20 -71 -30 -15 -10 -36 -19 -46 -19 -11
0 -30 -11 -43 -25 -31 -33 -18 -32 82 9 219 89 782 276 858 284 41 5 44 4 31
-11 -7 -10 -10 -17 -5 -17 21 -1 -48 -32 -123 -55 -46 -15 -83 -28 -83 -30 0
-11 95 5 170 28 86 27 303 80 394 98 45 8 65 21 66 42 0 4 -19 7 -43 7 -24 0
-48 5 -55 12 -9 9 -12 8 -12 -5 0 -18 -35 -41 -50 -32 -18 11 -11 31 14 43 40
18 96 26 96 13 0 -16 30 -14 36 3 4 11 25 14 88 12 76 -1 84 1 114 26 28 24
38 26 81 21 31 -3 51 -1 55 6 4 6 31 11 59 11 l52 0 -25 -20 c-14 -11 -33 -20
-42 -20 -20 0 -25 -20 -5 -20 8 0 7 -4 -3 -11 -20 -14 104 -3 180 15 l55 14
-70 -5 c-38 -3 -74 -8 -79 -11 -5 -3 -6 0 -2 6 4 7 13 12 19 12 15 0 40 38 33
49 -3 5 16 11 42 14 26 3 49 1 50 -4 2 -5 15 -9 28 -9 17 0 24 6 24 19 0 14
10 20 38 24 20 3 82 12 137 21 55 8 159 20 230 26 159 12 345 36 354 45 8 9
-131 3 -264 -11z m-1347 -266 c33 -33 9 -47 -95 -57 -57 -5 -73 -4 -73 6 0 7
-6 13 -12 13 -24 1 20 20 79 34 74 18 86 19 101 4z"/>
<path d="M5388 10153 c12 -2 30 -2 40 0 9 3 -1 5 -23 4 -22 0 -30 -2 -17 -4z"/>
<path d="M4795 10141 c-11 -5 -54 -11 -95 -15 -69 -6 -102 -18 -88 -31 7 -7
143 19 209 40 31 10 36 14 19 14 -14 0 -34 -4 -45 -8z"/>
<path d="M4380 10130 c-8 -5 -29 -10 -45 -10 -17 0 -39 -6 -50 -14 -11 -7 -49
-23 -85 -35 -36 -12 -72 -26 -80 -31 -25 -16 22 -12 62 5 20 8 75 24 124 36
49 12 95 26 102 32 28 22 3 37 -28 17z"/>
<path d="M5180 10130 c-13 -9 -13 -10 0 -11 28 -2 55 3 65 12 12 12 -46 12
-65 -1z"/>
<path d="M4957 10124 c-3 -4 -21 -9 -39 -13 -19 -4 12 -7 72 -6 118 2 123 3
95 15 -23 10 -119 13 -128 4z"/>
<path d="M4835 10101 c-27 -6 -28 -8 -9 -14 23 -8 54 0 54 14 0 10 -1 10 -45
0z"/>
<path d="M5818 10103 c7 -3 16 -2 19 1 4 3 -2 6 -13 5 -11 0 -14 -3 -6 -6z"/>
<path d="M5738 10093 c7 -3 16 -2 19 1 4 3 -2 6 -13 5 -11 0 -14 -3 -6 -6z"/>
<path d="M4436 10076 c-27 -7 -51 -17 -54 -24 -2 -7 1 -12 8 -12 21 0 155 32
170 41 22 12 -65 9 -124 -5z"/>
<path d="M4715 10080 c-8 -13 35 -13 55 0 11 7 7 10 -17 10 -17 0 -35 -4 -38
-10z"/>
<path d="M5945 10080 c-3 -5 1 -10 9 -10 8 0 18 5 21 10 3 6 -1 10 -9 10 -8 0
-18 -4 -21 -10z"/>
<path d="M5895 10070 c-3 -5 3 -10 15 -10 12 0 18 5 15 10 -3 6 -10 10 -15 10
-5 0 -12 -4 -15 -10z"/>
<path d="M5725 10062 c-27 -2 -56 -8 -63 -15 -8 -6 -37 -11 -65 -12 -34 0 -52
-5 -55 -14 -3 -9 0 -12 10 -9 8 4 61 9 116 13 63 5 106 13 112 20 15 18 4 21
-55 17z"/>
<path d="M4580 10050 c-23 -7 -22 -8 10 -9 19 0 42 4 50 9 12 8 10 10 -10 9
-14 -1 -36 -5 -50 -9z"/>
<path d="M7300 10030 c-12 -8 -11 -10 8 -10 12 0 22 5 22 10 0 13 -11 13 -30
0z"/>
<path d="M4413 10013 c-13 -2 -23 -9 -23 -15 0 -6 10 -8 23 -4 12 3 28 6 35 6
6 0 12 5 12 10 0 10 -8 11 -47 3z"/>
<path d="M5445 10010 l-30 -8 37 -1 c20 0 40 4 43 9 7 11 -6 11 -50 0z"/>
<path d="M6220 10000 c-136 -9 -208 -19 -216 -31 -7 -12 81 -11 229 2 139 12
162 17 132 29 -11 5 -22 8 -25 8 -3 -1 -57 -4 -120 -8z"/>
<path d="M3970 9990 c0 -5 7 -7 15 -4 8 4 15 8 15 10 0 2 -7 4 -15 4 -8 0 -15
-4 -15 -10z"/>
<path d="M8255 9990 c-12 -4 -79 -13 -150 -20 -72 -7 -134 -15 -140 -20 -5 -4
-65 -10 -131 -13 -67 -4 -162 -10 -210 -13 -93 -7 -108 0 -33 15 l44 9 -48 1
c-34 1 -49 -3 -53 -14 -5 -12 -25 -14 -104 -12 -77 1 -96 5 -88 15 8 9 -15 12
-113 12 -92 0 -132 4 -154 16 -26 13 -31 13 -40 0 -6 -8 -16 -12 -22 -8 -19
12 -725 2 -917 -12 -109 -8 -119 -8 -113 7 6 15 -3 17 -71 17 -43 0 -83 -5
-89 -11 -5 -5 -34 -16 -64 -24 -43 -12 -61 -12 -86 -3 -26 9 -55 9 -140 -4
-60 -9 -119 -16 -133 -17 -14 0 -59 -5 -100 -10 -141 -19 -230 -24 -230 -14 0
13 190 38 224 29 15 -4 26 -2 26 4 0 5 11 12 25 16 56 14 11 14 -125 -1 -78
-8 -148 -19 -154 -23 -10 -8 -157 -29 -216 -31 -35 -1 -73 -7 -90 -14 -8 -3
-24 -7 -35 -9 -12 -2 -19 -10 -17 -21 2 -13 -5 -16 -35 -16 -48 1 -139 -18
-328 -69 -359 -96 -377 -102 -325 -102 43 0 7 -19 -75 -40 -44 -10 -98 -29
-120 -40 -21 -11 -49 -20 -62 -20 -12 0 -27 -9 -33 -20 -8 -14 -21 -20 -47
-20 -32 0 -34 2 -22 17 12 15 12 16 -6 9 -11 -4 -32 -13 -47 -18 -16 -5 -25
-14 -22 -20 3 -5 16 -2 30 7 24 16 24 15 12 -5 -13 -21 -25 -26 -86 -34 -19
-3 -36 -7 -40 -10 -3 -3 -12 -1 -19 6 -12 9 -20 5 -44 -20 -30 -32 -52 -45
-29 -17 7 8 8 15 2 15 -18 0 -93 -29 -115 -46 -21 -15 -20 -15 23 -10 39 5 42
5 20 -5 -14 -6 -43 -13 -65 -14 -22 -1 -87 -14 -145 -28 -58 -13 -139 -32
-180 -41 -41 -9 -86 -19 -99 -23 -19 -5 -22 -3 -16 8 11 17 16 89 6 89 -17 0
-51 -33 -44 -43 4 -6 8 -23 10 -38 2 -25 -1 -27 -105 -54 -59 -15 -145 -44
-191 -63 -46 -19 -131 -51 -189 -71 -58 -20 -108 -42 -110 -50 -3 -10 2 -12
19 -8 63 16 109 19 109 8 0 -6 -12 -16 -27 -22 -54 -19 -58 -21 -47 -25 6 -3
31 4 55 14 25 11 65 23 89 26 25 4 79 18 120 31 41 13 103 26 136 30 34 3 92
15 130 25 89 26 95 25 59 -7 -16 -15 -22 -24 -13 -20 10 3 20 2 24 -4 3 -5 15
-7 26 -3 14 4 18 2 14 -5 -4 -6 -21 -11 -37 -11 -17 0 -39 -4 -49 -10 -10 -5
-102 -32 -203 -60 -177 -47 -294 -83 -305 -95 -12 -12 30 -3 133 30 61 19 115
35 120 34 16 0 -105 -60 -164 -80 -29 -11 -59 -23 -65 -28 -13 -11 -156 -30
-210 -28 -25 1 -41 -3 -44 -12 -3 -9 1 -11 16 -7 11 4 23 2 26 -3 4 -5 23 -7
44 -4 34 6 36 5 23 -11 -13 -15 -11 -16 27 -10 23 4 42 3 42 -2 0 -12 -109
-83 -137 -90 -13 -4 -22 -11 -21 -18 1 -6 -6 -28 -16 -48 -19 -40 -46 -69 -46
-50 0 6 -7 9 -15 6 -8 -4 -15 -10 -15 -15 0 -4 7 -6 16 -2 12 4 15 2 12 -8 -3
-8 -1 -22 4 -32 6 -12 5 -23 -3 -33 -6 -8 -8 -14 -5 -14 4 0 2 -9 -4 -20 -7
-12 -7 -27 -2 -37 13 -25 5 -41 -30 -59 -16 -8 -27 -18 -24 -22 4 -3 25 5 49
18 37 21 40 22 28 4 -8 -10 -30 -34 -48 -51 -31 -30 -34 -38 -31 -80 3 -47 4
-48 38 -51 26 -2 49 6 89 32 l54 35 29 -24 c19 -16 43 -25 66 -26 l37 -1 -34
-9 c-31 -10 -32 -11 -15 -24 17 -12 17 -17 6 -35 -20 -32 -9 -34 26 -5 23 19
41 25 78 25 28 0 65 9 91 21 23 11 51 19 60 17 12 -3 3 -9 -25 -18 -23 -7 -47
-19 -53 -27 -21 -25 28 -14 73 16 24 16 73 42 110 57 37 15 65 31 62 36 -7 11
7 10 26 -2 27 -17 -3 -43 -96 -83 -49 -21 -129 -49 -178 -62 -50 -14 -93 -31
-98 -38 -4 -7 -25 -22 -48 -32 -44 -20 -54 -40 -15 -33 32 6 32 -7 1 -35 -45
-42 -150 -71 -266 -73 -57 -2 -106 -7 -108 -12 -1 -5 7 -8 19 -8 34 1 32 -17
-6 -41 -33 -22 -34 -24 -28 -71 5 -48 5 -50 -37 -83 -54 -43 -130 -146 -130
-176 0 -20 4 -22 25 -17 21 5 24 3 19 -12 -4 -11 -16 -27 -28 -38 -21 -18 -21
-18 6 -2 34 20 52 21 44 1 -4 -10 1 -15 17 -15 12 0 32 0 45 -1 12 0 34 1 49
2 29 2 56 -25 51 -51 -2 -9 -38 -26 -94 -45 -50 -16 -98 -36 -106 -42 -8 -7
-29 -16 -47 -19 -18 -4 -35 -13 -38 -21 -3 -8 -42 -32 -87 -54 -83 -41 -80
-44 26 -23 17 3 28 1 28 -5 0 -16 -37 -37 -115 -66 -38 -15 -88 -37 -110 -50
-22 -12 -59 -28 -82 -34 -26 -7 -43 -18 -43 -26 0 -8 -3 -15 -7 -15 -5 0 -26
-16 -48 -36 -51 -45 -34 -41 115 26 63 28 167 72 230 97 63 24 119 48 125 53
5 4 68 29 140 54 121 44 130 46 142 30 22 -31 15 -49 -25 -63 -314 -110 -799
-329 -751 -339 15 -3 57 13 171 62 59 26 44 9 -22 -24 -71 -36 -79 -60 -21
-60 23 0 44 6 52 16 16 19 170 98 334 170 114 51 164 84 95 64 -17 -5 -28 -5
-25 0 3 4 51 22 107 40 57 17 113 36 126 41 24 10 42 5 42 -12 0 -5 -9 -9 -20
-9 -12 0 -20 -7 -20 -18 0 -24 -125 -145 -178 -172 -23 -12 -46 -28 -50 -35
-7 -14 -102 -45 -135 -45 -10 0 -44 -16 -75 -34 -32 -19 -70 -38 -87 -42 -16
-4 -41 -15 -55 -24 -14 -10 -59 -34 -100 -55 -67 -34 -119 -66 -174 -109 -11
-9 -16 -22 -13 -31 5 -12 18 -8 68 25 34 22 66 40 72 40 5 0 54 23 108 50 113
57 199 93 199 82 -1 -20 -26 -38 -113 -77 -53 -24 -109 -52 -124 -63 -16 -11
-65 -39 -110 -62 -82 -42 -103 -64 -83 -84 7 -7 24 -3 55 12 44 21 45 21 45 2
0 -25 -4 -25 64 5 31 14 61 25 66 25 6 0 48 18 94 40 94 45 133 55 173 45 26
-6 26 -8 10 -19 -9 -7 -17 -25 -17 -40 0 -33 25 -37 100 -17 33 9 33 10 12 16
-22 7 -21 9 18 31 23 13 44 24 46 24 9 0 3 -39 -6 -45 -25 -15 -6 -26 40 -24
27 2 52 0 56 -3 3 -4 27 6 53 21 59 35 129 57 206 65 32 4 69 9 82 12 27 7 31
26 6 23 -22 -3 -75 18 -84 33 -4 6 -15 8 -25 4 -16 -6 -16 -7 2 -22 18 -14 18
-15 -6 -7 -14 4 -41 8 -60 9 -19 1 -39 2 -45 3 -19 3 190 71 218 71 23 0 27 3
22 19 -4 14 0 20 19 25 13 3 31 9 40 12 28 11 17 -16 -14 -34 -38 -22 -38 -32
1 -32 34 0 99 27 99 41 0 4 34 25 76 45 68 33 81 35 130 29 33 -4 68 -2 90 5
64 22 48 1 -27 -34 -73 -34 -83 -50 -12 -21 19 8 42 15 49 15 34 0 6 -21 -87
-66 -98 -48 -126 -76 -32 -33 109 50 137 59 155 53 10 -3 25 0 33 6 8 6 24 10
35 8 24 -3 -178 -91 -258 -113 -26 -6 -85 -33 -130 -59 -45 -26 -94 -51 -107
-56 -14 -5 -30 -21 -35 -35 -6 -16 -29 -34 -65 -51 -46 -22 -54 -30 -49 -46 4
-15 -6 -33 -43 -72 -28 -28 -60 -66 -72 -84 -13 -18 -56 -54 -96 -81 -41 -27
-71 -51 -68 -54 9 -10 95 3 131 20 39 17 77 14 77 -7 0 -10 -31 -25 -90 -46
-49 -17 -117 -45 -150 -61 -33 -17 -71 -34 -85 -38 -14 -4 -34 -17 -45 -30
-11 -12 -53 -34 -93 -49 -53 -21 -72 -32 -70 -44 2 -13 -32 -34 -128 -82 -150
-75 -412 -232 -396 -238 7 -2 38 12 69 31 174 105 560 270 705 301 16 4 28 4
28 1 0 -7 -95 -55 -173 -87 -38 -15 -88 -41 -111 -57 -24 -17 -97 -57 -163
-90 -178 -89 -327 -196 -483 -349 -82 -80 -77 -86 10 -12 113 95 250 194 318
229 39 21 24 5 -47 -48 -118 -87 -214 -171 -196 -171 10 0 -14 -33 -66 -89
-45 -50 -87 -97 -92 -106 -8 -15 -6 -15 15 -4 12 6 44 31 69 54 25 24 66 53
90 65 24 13 55 30 69 40 14 10 35 21 48 24 40 13 25 -16 -52 -101 -41 -45 -87
-103 -102 -130 -15 -26 -54 -85 -86 -131 -32 -45 -58 -86 -58 -90 0 -8 70 67
127 136 52 62 54 42 4 -29 -24 -33 -41 -62 -39 -65 3 -2 20 7 38 21 19 14 41
25 50 25 9 0 31 18 49 40 44 55 195 180 217 180 11 0 52 25 93 55 41 30 77 55
82 55 30 0 5 -31 -93 -118 -156 -138 -203 -182 -192 -182 5 0 43 25 84 55 114
83 121 88 172 116 31 18 49 23 51 15 3 -8 8 -8 18 2 9 9 10 12 1 12 -20 0 -13
18 9 25 13 5 25 2 30 -6 5 -9 -8 -28 -44 -61 -36 -33 -44 -45 -27 -38 18 8 37
7 68 -2 l43 -13 -62 -45 c-84 -62 -131 -102 -125 -107 3 -3 68 43 146 101 77
58 145 106 150 106 6 0 6 -10 0 -26 -23 -59 -6 -64 58 -17 31 24 47 17 17 -7
-20 -16 -20 -41 0 -34 33 13 12 -15 -22 -30 -34 -14 -116 -76 -101 -76 3 0 48
25 99 56 104 63 166 94 189 93 12 0 12 -2 -2 -13 -26 -19 -22 -29 7 -22 37 9
30 -8 -16 -39 -27 -20 -54 -29 -85 -30 -51 -2 -63 -10 -46 -27 10 -10 8 -16
-10 -30 -41 -31 6 -21 55 12 60 40 187 100 213 100 15 0 20 -6 19 -20 -2 -27
-11 -34 -75 -58 l-55 -21 74 6 c68 6 74 5 68 -11 -6 -14 -3 -16 16 -11 12 4
42 18 66 31 44 24 91 32 91 15 0 -5 -12 -12 -27 -16 -16 -4 -81 -26 -146 -51
-65 -24 -129 -44 -143 -44 -22 0 -43 -24 -32 -36 3 -2 25 5 49 16 24 11 53 20
63 20 16 0 14 -5 -12 -23 -22 -17 -28 -27 -21 -34 8 -8 2 -16 -20 -27 -17 -9
-31 -18 -31 -19 0 -2 30 -4 66 -5 37 -1 72 -7 79 -12 8 -7 21 -6 41 5 16 8 45
15 64 14 l35 0 -35 -16 c-19 -9 -71 -33 -115 -53 -44 -21 -92 -40 -106 -43
-30 -8 -79 -44 -79 -59 0 -13 51 -2 113 24 30 13 47 27 47 38 0 17 38 40 68
40 9 0 51 12 95 28 61 21 77 31 73 44 -4 19 0 21 212 83 68 20 135 35 150 33
l27 -4 -25 -11 c-43 -20 -64 -25 -105 -27 -38 -2 -190 -64 -181 -74 3 -2 49
10 102 27 99 33 138 37 63 7 -23 -10 -52 -24 -63 -33 -21 -15 -20 -15 7 -10
43 7 32 -7 -31 -37 -60 -29 -124 -81 -135 -111 -6 -15 -2 -16 35 -10 24 4 79
21 122 37 101 37 154 49 158 36 2 -6 35 1 78 17 63 22 264 75 287 75 22 0 -24
-23 -111 -55 -95 -36 -185 -83 -186 -97 0 -9 51 7 217 65 159 57 310 90 243
53 -14 -7 -46 -25 -71 -39 -25 -13 -56 -28 -70 -31 -23 -7 -23 -6 -5 8 31 25
5 19 -60 -13 -32 -16 -78 -32 -101 -36 -24 -4 -53 -15 -65 -25 l-23 -19 25 6
c18 4 22 3 15 -5 -5 -6 -44 -20 -85 -31 -41 -12 -82 -30 -90 -40 -8 -10 -29
-26 -47 -35 -17 -8 -48 -31 -69 -51 -36 -34 -36 -36 -19 -55 15 -16 15 -22 5
-35 -10 -12 -10 -15 4 -15 13 0 16 -5 11 -20 -6 -20 9 -28 20 -10 3 6 15 10
25 10 17 0 16 -4 -10 -44 -38 -56 -47 -62 -98 -70 -42 -6 -113 -44 -127 -66
-11 -17 25 -50 54 -50 29 0 91 34 91 50 0 5 4 10 9 10 29 0 -33 -84 -71 -96
-10 -3 -18 -12 -18 -21 0 -11 8 -14 30 -11 35 5 38 -2 9 -28 -19 -18 -20 -19
-2 -32 17 -12 17 -14 0 -23 -23 -13 -22 -32 2 -24 15 4 20 -1 25 -26 3 -17 3
-41 0 -53 -3 -12 2 -35 10 -51 9 -17 16 -43 16 -58 0 -37 22 -88 49 -112 l22
-19 -23 -19 -23 -18 33 6 c18 4 62 20 97 36 69 31 254 83 264 74 3 -3 -8 -17
-24 -30 -51 -41 -6 -30 132 34 71 32 144 64 163 70 19 6 46 20 60 31 16 12
-16 3 -86 -25 -61 -24 -131 -47 -155 -50 l-44 -6 40 21 c171 86 551 231 602
229 11 0 7 -4 -11 -11 -16 -6 -40 -17 -55 -25 l-26 -15 30 6 c17 4 49 9 73 13
42 6 55 19 27 29 -26 10 -4 26 27 20 18 -3 27 -2 23 4 -4 6 7 10 26 10 17 0
72 16 121 35 49 20 112 40 141 46 49 10 104 36 95 44 -2 3 -41 -5 -87 -16 -46
-11 -88 -18 -94 -16 -20 6 143 49 189 49 25 0 74 10 108 23 51 19 290 75 321
75 18 0 -11 -18 -50 -30 -22 -7 -35 -15 -28 -17 6 -2 36 7 66 21 30 15 74 30
98 35 24 5 52 12 62 16 16 7 18 4 15 -16 -3 -27 -89 -78 -168 -99 -66 -19 -76
-34 -15 -25 101 14 180 22 184 18 3 -2 -3 -17 -12 -32 -38 -65 -1 -106 70 -76
20 8 38 13 41 10 8 -8 4 -10 -103 -54 -55 -23 -124 -52 -152 -64 -62 -26 -73
-53 -18 -43 19 4 54 16 77 26 47 21 80 25 106 11 10 -5 46 -12 81 -15 35 -3
66 -7 68 -10 2 -2 -23 -7 -56 -11 -60 -7 -85 -25 -35 -25 20 0 25 -4 20 -16
-3 -9 -6 -18 -6 -20 0 -2 -10 -4 -21 -4 -18 0 -19 -2 -9 -15 14 -17 41 -20 56
-6 14 13 106 41 115 35 24 -15 -8 -33 -70 -40 -42 -5 -56 -13 -43 -26 8 -8 29
-8 80 2 94 17 108 9 39 -23 -31 -14 -67 -33 -80 -43 -21 -16 -20 -16 33 -10
57 6 147 32 215 62 22 9 63 18 90 20 28 1 93 11 145 23 178 38 319 27 185 -15
-73 -23 -56 -30 23 -10 49 13 382 66 413 66 5 0 9 -4 9 -9 0 -5 -30 -12 -67
-16 -38 -4 -79 -14 -93 -23 -17 -11 -47 -17 -92 -17 -68 0 -93 -9 -68 -25 13
-8 12 -9 0 -13 -165 -47 -314 -97 -307 -103 8 -8 123 19 159 37 20 10 44 16
52 13 8 -3 25 0 37 7 35 18 114 38 214 54 107 17 128 18 120 5 -8 -13 47 -13
157 1 75 10 110 9 224 -6 106 -15 144 -16 181 -8 33 8 50 8 54 1 4 -6 16 -7
30 -3 13 4 78 8 146 8 102 0 123 2 123 15 0 12 -13 14 -82 8 -46 -4 -91 -10
-102 -13 -12 -3 -17 -1 -14 8 8 25 298 61 362 45 23 -6 39 -28 19 -25 -21 3
-41 -2 -59 -17 -18 -14 -14 -15 41 -9 107 11 125 16 125 35 0 15 10 19 55 22
47 3 55 0 55 -14 0 -15 9 -18 58 -18 36 0 66 6 78 15 14 11 36 13 89 9 39 -3
178 -9 310 -14 138 -5 274 -16 319 -25 44 -8 122 -20 175 -26 89 -9 166 -25
216 -44 16 -6 18 -5 9 5 -7 6 -74 27 -150 46 -76 19 -140 37 -143 40 -3 3 41
3 99 0 65 -3 96 -2 80 3 -14 5 -38 9 -53 10 -15 1 -40 10 -55 20 -54 39 -351
101 -484 101 -26 0 -48 5 -48 10 0 13 6 13 200 -7 180 -19 347 -21 376 -5 15
8 9 14 -42 40 -32 16 -79 35 -104 43 -65 18 -75 32 -17 24 28 -4 47 -3 47 2 0
15 -196 71 -290 83 -104 14 -136 35 -40 27 56 -5 60 -4 25 4 -93 23 -102 28
-35 23 41 -4 75 -13 92 -25 15 -10 37 -19 50 -19 21 1 22 2 6 14 -25 19 -22
29 6 22 13 -3 26 -2 28 3 2 5 58 3 128 -5 138 -15 176 -17 168 -9 -3 3 -73 14
-156 25 -84 11 -164 26 -179 35 -28 15 -28 15 22 11 229 -20 295 -27 330 -36
22 -5 61 -10 87 -10 59 0 351 -37 398 -50 19 -6 95 -19 169 -31 175 -27 495
-119 599 -173 37 -19 132 -46 132 -38 0 7 -96 66 -157 96 -17 9 -35 21 -38 26
-6 10 2 10 70 -7 17 -4 16 -1 -5 16 -29 23 -52 35 -170 86 -70 29 -181 81
-199 92 -2 2 -2 6 1 9 3 3 23 -2 44 -12 22 -9 80 -20 129 -25 50 -4 101 -11
114 -15 17 -5 22 -4 17 4 -4 7 -1 12 9 12 35 0 3 17 -43 23 -26 3 -60 11 -76
18 l-27 13 23 13 c13 7 31 12 40 13 12 0 16 7 14 27 -3 24 -11 29 -79 49 -92
27 -205 76 -188 82 6 2 26 -3 44 -11 61 -28 79 -31 75 -10 -2 14 3 18 22 17
14 -1 31 6 37 15 12 15 14 14 27 -1 20 -27 38 -23 30 7 -6 23 -3 25 27 25 18
0 40 -6 48 -14 25 -21 107 -28 121 -10 10 11 10 18 -3 32 -26 28 -6 50 32 35
32 -12 41 -8 41 16 0 11 -3 12 -12 3 -8 -8 -17 -8 -30 -1 -11 6 -34 9 -51 8
-43 -3 -177 40 -177 57 0 19 16 18 52 -3 29 -18 30 -18 47 5 17 23 19 23 52 9
19 -8 43 -24 53 -36 11 -11 25 -21 33 -21 26 0 12 20 -32 46 -25 14 -45 27
-45 29 0 9 48 -10 66 -27 18 -16 25 -17 47 -7 20 9 30 8 48 -5 29 -20 50 -21
43 -1 -4 8 -2 15 4 15 5 0 29 -7 52 -15 53 -19 71 -19 64 -1 -4 11 3 12 34 6
30 -5 44 -3 62 12 16 13 39 18 79 18 83 0 102 -7 99 -38 -2 -14 3 -27 10 -29
6 -3 12 2 12 11 0 24 32 86 45 86 25 0 197 -40 320 -75 404 -113 892 -294 982
-364 27 -22 53 -28 53 -12 0 5 -17 19 -37 31 -25 15 -33 24 -24 29 8 5 -7 18
-43 37 -60 31 -70 45 -12 18 38 -19 57 -14 37 10 -7 8 -41 33 -77 56 -67 44
-78 56 -43 47 19 -5 18 -3 -6 29 -29 38 -24 41 28 19 20 -8 43 -15 52 -15 27
0 16 38 -20 67 -34 27 -34 28 -15 46 15 14 24 15 39 7 51 -27 28 -5 -37 35
-130 81 -379 199 -465 220 -43 11 -44 27 0 20 l38 -6 -55 30 c-30 17 -50 30
-45 31 11 0 109 -35 142 -52 12 -6 30 -7 40 -4 14 6 7 12 -32 27 -118 46 -227
83 -330 111 -60 16 -166 45 -235 64 -69 19 -143 39 -165 44 -80 20 -441 88
-495 95 -90 10 -170 27 -176 36 -5 8 75 13 156 9 62 -2 282 -40 389 -66 89
-22 126 -25 110 -10 -2 2 -57 15 -122 30 -65 14 -124 32 -132 39 -8 8 -40 18
-72 21 -86 10 -339 55 -410 73 -42 10 -63 20 -63 30 0 12 9 14 48 9 46 -5 46
-5 17 8 -37 17 -132 30 -97 13 41 -19 22 -24 -45 -11 -38 7 -113 17 -168 24
-100 11 -152 30 -84 30 45 1 24 13 -61 35 -36 9 -69 19 -74 22 -18 11 24 23
105 29 74 5 108 1 284 -36 184 -38 240 -48 380 -64 43 -5 38 -3 -35 19 -192
58 -873 195 -966 195 -17 0 -37 8 -47 20 -9 11 -25 20 -34 20 -18 1 -53 22
-53 33 0 3 8 8 18 10 9 3 -3 5 -28 6 -82 2 -82 21 0 21 86 1 78 13 -15 25 -33
5 -51 10 -40 13 11 2 25 10 30 17 6 7 22 15 35 17 23 4 23 5 6 13 -11 5 -26 4
-38 -4 -20 -12 -126 -13 -133 0 -12 18 34 27 196 39 169 12 175 13 175 34 -1
19 5 21 62 24 34 2 62 7 62 11 0 5 -69 6 -154 3 -157 -5 -217 1 -199 19 10 10
247 24 391 23 90 0 110 11 35 21 -27 3 -75 10 -109 15 -33 6 -87 10 -120 10
-63 0 -115 19 -59 21 17 1 -17 8 -75 15 -129 17 -168 31 -95 35 28 2 68 2 90
1 58 -3 57 -3 90 4 17 4 38 13 47 21 9 8 21 12 27 9 11 -7 132 -14 331 -20 74
-2 162 -7 195 -11 34 -4 71 -2 86 3 16 6 31 7 42 1 9 -6 43 -10 74 -10 32 0
74 -4 93 -9 35 -10 287 -47 505 -75 150 -20 326 -59 358 -79 26 -17 96 -11
100 9 1 6 -18 20 -43 33 l-45 23 45 -5 45 -6 -37 20 c-24 13 -38 28 -38 40 0
14 -11 22 -38 30 -22 5 -47 19 -57 29 -12 14 -25 18 -44 15 -14 -3 -34 1 -45
8 -16 13 -14 14 20 10 45 -5 42 1 -12 28 l-39 19 55 0 c30 0 73 -6 95 -14 61
-22 56 -17 -25 25 -78 41 -84 54 -9 20 24 -11 55 -20 69 -20 l24 0 -22 16
c-12 8 -55 27 -95 41 -39 14 -99 45 -133 69 -33 24 -83 53 -110 64 -56 25 -84
47 -84 68 0 11 9 13 40 9 46 -6 53 8 13 25 -16 7 -39 22 -53 34 -14 12 -43 27
-65 34 -22 7 -47 18 -55 26 -8 7 -37 21 -64 31 -27 10 -51 23 -53 29 -10 31
124 54 316 54 74 0 131 3 128 7 -4 3 -44 17 -89 29 l-83 23 80 -6 c74 -5 79
-4 60 11 -19 15 -18 15 20 16 22 1 65 4 95 7 85 9 195 6 219 -6 11 -7 21 -18
21 -26 0 -36 65 5 94 59 l19 36 -29 22 c-16 13 -51 42 -77 66 -27 24 -62 45
-78 49 -19 3 -29 12 -29 23 0 20 23 32 45 24 11 -5 13 -2 9 10 -4 11 -1 16 10
16 9 0 16 4 16 8 0 11 -77 47 -117 56 -49 11 -55 31 -7 22 21 -5 53 -10 69
-13 29 -4 29 -3 11 11 -11 9 -31 16 -44 16 -13 0 -44 9 -70 19 -26 11 -60 22
-75 26 -20 4 -33 16 -43 40 -19 46 -18 62 6 70 32 10 13 25 -31 25 -21 0 -39
5 -39 10 0 24 284 -4 420 -41 41 -12 95 -22 120 -24 25 -2 69 -12 98 -24 55
-22 117 -28 126 -12 12 19 -8 41 -48 52 -37 10 -39 12 -18 20 27 10 29 26 3
34 -13 4 -18 12 -15 23 4 12 3 13 -3 4 -12 -16 -125 -2 -170 21 -36 19 -120
34 -238 42 -49 3 -121 10 -160 15 -38 5 -135 14 -215 20 -80 7 -154 16 -165
20 -11 5 -27 11 -35 14 -32 10 204 -6 350 -25 85 -11 196 -24 246 -29 50 -5
143 -18 207 -30 63 -11 130 -20 148 -20 18 0 59 -7 91 -16 41 -12 62 -14 69
-7 8 8 -1 15 -28 23 -21 7 -55 23 -75 36 -21 13 -42 24 -47 24 -5 0 -14 7 -21
15 -11 13 -8 13 24 0 66 -28 37 -8 -43 30 l-79 37 21 21 21 21 -55 26 c-31 14
-67 35 -82 46 -15 12 -44 25 -64 28 -21 4 -74 16 -118 26 -44 11 -128 22 -188
24 -59 3 -115 10 -125 15 -13 8 -7 10 28 11 48 0 273 -26 302 -36 35 -11 118
-21 118 -14 0 4 -21 13 -47 19 -117 28 -223 65 -211 73 25 15 110 8 188 -17
23 -7 24 -7 10 10 -14 17 -13 18 22 12 26 -4 40 -1 49 9 20 24 337 16 486 -12
12 -2 29 -11 38 -20 15 -15 17 -15 34 0 14 12 39 16 112 16 82 -1 99 -4 134
-25 33 -21 53 -25 118 -25 45 0 77 4 77 10 0 6 -14 10 -32 10 -24 0 -29 3 -20
12 9 9 6 14 -11 23 -13 6 -21 18 -19 29 2 12 -7 21 -27 29 -30 11 -42 27 -20
27 22 0 -4 21 -61 50 -55 28 -99 65 -54 45 32 -14 94 -18 94 -6 0 6 -6 11 -14
11 -7 0 -16 9 -19 19 -3 12 -12 19 -23 17 -11 -2 -13 -1 -6 1 9 3 10 8 3 17
-16 19 96 13 152 -8 46 -18 48 -18 61 -1 13 18 14 17 28 -9 14 -26 14 -26 31
-8 21 23 14 45 -19 67 -13 8 -24 22 -24 30 0 9 -10 15 -24 15 -19 0 -136 81
-136 94 0 2 11 1 25 -2 35 -6 32 16 -7 49 -25 21 -30 30 -22 39 9 9 17 9 33 1
24 -14 24 -14 10 27 -12 34 -79 88 -156 125 -40 20 -43 22 -21 27 19 5 -1 20
-119 90 -78 47 -140 86 -138 88 2 2 96 -40 148 -66 4 -2 7 2 7 10 0 12 -132
83 -157 83 -6 0 -20 8 -30 17 -10 10 -37 25 -58 34 -22 9 -35 19 -28 21 6 2
68 -23 138 -57 70 -34 129 -59 132 -57 13 13 -233 136 -362 180 -55 19 -122
44 -150 54 -27 11 -59 23 -69 27 -10 3 -17 9 -14 11 6 6 112 -25 231 -68 77
-29 97 -33 97 -21 0 8 -15 21 -34 29 -19 8 -63 34 -98 58 -83 57 -193 100
-353 138 -164 40 -168 41 -125 49 33 6 32 6 -20 13 -30 3 -86 9 -125 12 -38 3
-99 10 -135 15 -93 14 -356 42 -415 45 -27 2 -77 8 -110 14 -33 6 -128 14
-211 19 -122 7 -159 13 -185 29 -19 10 -34 23 -34 29 0 9 84 8 233 -2 57 -5
82 -3 82 5 0 7 -27 11 -77 12 -93 0 -278 21 -289 32 -4 4 -15 7 -25 7 -16 0
-39 27 -39 46 0 3 11 4 25 2 14 -3 28 -2 30 2 5 9 -82 37 -144 46 -24 4 -55
17 -70 30 l-26 23 33 -9 c25 -7 32 -6 29 3 -5 16 -72 35 -124 36 -76 2 -59 21
19 21 70 1 72 1 46 16 -39 21 -35 25 15 18 40 -6 41 -5 22 9 -19 15 -18 16 15
8 86 -22 97 -21 50 1 l-45 21 40 8 c22 4 53 5 69 1 20 -3 27 -2 22 6 -7 11
-166 64 -233 77 -18 4 -35 11 -39 16 -3 5 -24 19 -47 31 -41 21 -41 22 -17 29
24 7 24 7 -6 8 -16 1 -61 12 -100 26 -38 14 -58 23 -44 20 14 -2 61 -7 105
-10 81 -5 79 -1 -13 24 -36 10 -41 15 -31 27 10 12 5 14 -27 15 -40 1 -100 16
-74 18 25 3 -32 30 -62 31 -14 0 -33 3 -42 6 -29 11 -17 24 23 24 22 0 43 5
47 11 3 6 19 9 34 5 20 -3 30 -1 34 10 9 23 8 24 -15 24 -11 0 -53 11 -92 24
-83 28 -145 34 -352 37 l-150 2 145 7 c154 8 280 26 280 41 0 11 -138 11 -165
-1z m-1001 -60 c38 0 67 -2 65 -5 -4 -4 -75 -16 -176 -30 -12 -2 -27 -6 -33
-10 -6 -4 -40 -7 -76 -6 -36 0 -64 -4 -64 -9 0 -6 8 -10 18 -11 9 -1 0 -6 -21
-11 -28 -7 -42 -7 -50 1 -8 8 -3 11 19 12 l29 1 -29 8 c-29 9 -86 12 -190 9
-33 0 -61 4 -65 10 -5 8 -23 8 -64 1 -31 -6 -94 -8 -139 -5 -185 14 -476 0
-606 -30 -35 -8 -98 -15 -141 -15 -42 0 -103 -7 -135 -15 -54 -14 -78 -14 -63
1 23 23 300 59 527 69 80 3 165 8 190 10 25 3 106 7 180 10 211 8 334 16 339
21 2 2 97 2 210 -1 113 -3 237 -5 275 -5z m-2199 -50 c3 -5 1 -10 -4 -10 -6 0
-11 5 -11 10 0 6 2 10 4 10 3 0 8 -4 11 -10z m-55 -10 c0 -5 -7 -10 -16 -10
-8 0 -12 5 -9 10 3 6 10 10 16 10 5 0 9 -4 9 -10z m390 -12 c-19 -6 -64 -19
-99 -29 -75 -23 -101 -24 -126 -5 -17 13 -14 15 35 24 30 5 82 10 115 11 32 1
61 4 64 6 2 3 14 5 25 4 14 -1 9 -5 -14 -11z m180 2 c0 -5 -4 -10 -10 -10 -5
0 -10 5 -10 10 0 6 5 10 10 10 6 0 10 -4 10 -10z m535 -18 c-26 -23 -315 -63
-315 -44 0 15 37 25 65 18 13 -3 36 -1 52 5 46 18 214 35 198 21z m68 1 c-7
-2 -21 -2 -30 0 -10 3 -4 5 12 5 17 0 24 -2 18 -5z m687 -13 c0 -5 -4 -10 -10
-10 -5 0 -10 5 -10 10 0 6 5 10 10 10 6 0 10 -4 10 -10z m-1745 -15 c-16 -8
-41 -14 -55 -15 -21 0 -260 -36 -362 -55 -16 -2 -28 -1 -28 3 0 11 373 80 435
80 l40 0 -30 -13z m635 -5 c0 -5 -10 -10 -22 -10 -19 0 -20 2 -8 10 19 13 30
13 30 0z m-1101 -65 c-8 -7 -192 -55 -213 -55 -37 0 -6 13 86 36 90 22 136 29
127 19z m-249 -60 c0 -6 -38 -22 -84 -36 -43 -13 -18 9 30 26 43 16 54 18 54
10z m4745 -513 c-3 -3 -11 0 -18 7 -9 10 -8 11 6 5 10 -3 15 -9 12 -12z
m-6104 -31 c-10 -18 -58 -37 -68 -27 -4 3 62 44 75 46 1 0 -2 -8 -7 -19z
m5849 -66 c0 -10 10 -15 33 -15 l32 1 -30 14 c-35 16 -17 18 39 5 62 -14 404
-24 419 -12 8 7 73 1 210 -18 108 -16 201 -31 206 -34 10 -6 261 -29 308 -28
18 0 34 -5 37 -14 3 -8 15 -14 26 -14 14 0 19 4 14 12 -5 8 8 9 52 3 32 -5 76
-8 97 -7 40 2 46 -10 22 -42 -15 -20 -40 -19 -160 4 -27 6 -84 15 -125 20 -41
5 -119 16 -172 23 -54 8 -98 11 -98 7 0 -4 43 -12 96 -19 111 -15 194 -37 194
-52 0 -6 -7 -8 -15 -5 -39 14 -361 55 -472 59 -84 4 -80 -10 5 -18 134 -12
418 -46 447 -54 53 -13 -306 -1 -425 14 -63 8 -131 15 -152 15 -40 0 -51 -13
-21 -24 13 -6 14 -9 4 -15 -7 -4 -43 -2 -79 5 -37 7 -94 17 -127 22 -41 6 -50
10 -27 11 19 0 31 5 27 11 -8 13 -48 13 -61 0 -14 -14 -46 -1 -40 16 7 19 -18
18 -34 -1 -10 -12 -38 -14 -179 -8 -91 4 -278 7 -416 7 -440 1 -645 7 -600 17
66 15 451 24 459 10 9 -14 65 -14 86 -1 13 9 13 11 0 19 -21 14 -5 24 27 17
19 -5 23 -10 14 -16 -11 -6 -9 -11 9 -20 24 -13 110 -6 147 12 16 8 26 8 36 0
18 -15 277 -29 277 -15 0 12 -33 23 -73 23 -18 0 -37 10 -53 28 -18 19 -43 30
-82 38 l-57 12 50 1 c28 1 57 6 65 11 23 15 60 12 60 -5z m-6080 -60 c0 -9
-10 -20 -22 -25 -50 -19 -179 -56 -183 -52 -10 10 18 32 40 32 13 0 31 3 41 7
16 6 16 7 -2 14 -16 6 -15 8 11 14 17 3 39 10 50 15 33 14 65 12 65 -5z m5211
-3 c-7 -2 -18 1 -23 6 -8 8 -4 9 13 5 13 -4 18 -8 10 -11z m188 2 c2 -2 -30
-4 -72 -4 -43 0 -77 4 -77 9 0 9 140 4 149 -5z m511 2 c0 -3 -4 -8 -10 -11 -5
-3 -10 -1 -10 4 0 6 5 11 10 11 6 0 10 -2 10 -4z m-350 -16 c21 -7 19 -8 -17
-9 -24 -1 -43 4 -43 9 0 12 24 12 60 0z m436 -8 c-10 -2 -22 0 -28 6 -6 6 0 7
19 4 21 -5 23 -7 9 -10z m-366 -2 c0 -5 -2 -10 -4 -10 -3 0 -8 5 -11 10 -3 6
-1 10 4 10 6 0 11 -4 11 -10z m117 4 c-3 -3 -12 -4 -19 -1 -8 3 -5 6 6 6 11 1
17 -2 13 -5z m48 -4 c8 -13 -5 -13 -25 0 -13 8 -13 10 2 10 9 0 20 -4 23 -10z
m1938 -84 c180 -41 349 -104 303 -114 -10 -2 -36 4 -57 13 -31 14 -42 15 -53
6 -11 -9 -20 -10 -35 -2 -11 6 -31 11 -45 11 -14 0 -27 4 -30 9 -3 5 -23 12
-43 16 -21 3 -57 15 -81 27 -23 11 -51 18 -61 15 -26 -6 -43 6 -35 26 8 22 9
22 137 -7z m-993 -16 c0 -5 -11 -10 -25 -10 -14 0 -25 5 -25 10 0 6 11 10 25
10 14 0 25 -4 25 -10z m-887 -7 c-26 -5 -29 -13 -11 -31 9 -9 6 -12 -14 -12
-15 0 -30 5 -33 11 -4 5 -19 8 -33 5 -15 -3 -33 -2 -41 3 -20 13 39 29 104 29
28 -1 40 -3 28 -5z m989 -8 c-4 -13 -63 -8 -77 6 -7 7 4 9 35 7 25 -2 44 -7
42 -13z m82 -26 c9 -13 21 -19 30 -16 20 8 48 -2 40 -14 -8 -13 -44 -11 -102
6 -55 17 -66 31 -29 38 41 8 46 7 61 -14z m86 5 c0 -2 -7 -4 -15 -4 -8 0 -15
4 -15 10 0 5 7 7 15 4 8 -4 15 -8 15 -10z m577 10 c-3 -3 -12 -4 -19 -1 -8 3
-5 6 6 6 11 1 17 -2 13 -5z m-753 -25 c14 -7 26 -16 26 -21 0 -11 -42 -1 -100
24 l-45 19 46 -5 c26 -3 58 -11 73 -17z m959 -16 c-7 -2 -19 -2 -25 0 -7 3 -2
5 12 5 14 0 19 -2 13 -5z m-1850 -10 c-7 -2 -21 -2 -30 0 -10 3 -4 5 12 5 17
0 24 -2 18 -5z m1987 -118 c94 -17 214 -58 227 -78 3 -6 1 -7 -6 -3 -6 4 -98
30 -204 57 -192 50 -196 56 -17 24z m-8604 -144 c-3 -5 -17 -11 -31 -13 -20
-4 -23 -3 -14 8 12 15 54 20 45 5z m8403 -43 c28 -6 51 -15 51 -19 0 -9 -29
-5 -115 17 -43 10 -45 12 -18 13 17 1 54 -4 82 -11z m-8449 -268 c-20 -13 -33
-13 -25 0 3 6 14 10 23 10 15 0 15 -2 2 -10z m287 -16 c-3 -3 -12 -4 -19 -1
-8 3 -5 6 6 6 11 1 17 -2 13 -5z m9111 -100 c13 -4 22 -14 22 -25 0 -17 -2
-17 -35 2 -19 12 -35 23 -35 25 0 6 21 5 48 -2z m-8838 -13 c0 -11 -66 -51
-86 -51 -19 0 -18 4 9 34 21 25 77 37 77 17z m-285 -41 c-3 -5 -12 -10 -18
-10 -7 0 -6 4 3 10 19 12 23 12 15 0z m5090 -80 c-11 -5 -45 -9 -75 -9 -40 0
-49 3 -35 9 11 5 45 9 75 9 40 0 49 -3 35 -9z m4124 -26 c22 -14 58 -28 80
-31 43 -6 52 -16 24 -27 -20 -8 -165 63 -157 76 7 12 10 11 53 -18z m-4436
-35 c-6 -6 -51 -13 -100 -15 -86 -3 -87 -3 -48 10 50 18 164 21 148 5z m1627
-79 c17 -5 1 -8 -50 -8 -58 1 -67 2 -40 8 46 10 60 10 90 0z m-361 -19 c-20
-4 -85 -8 -145 -8 -95 0 -101 1 -44 7 90 9 237 10 189 1z m-529 -30 c-20 -12
-130 -20 -130 -10 0 5 28 10 63 12 34 2 67 4 72 5 6 1 3 -2 -5 -7z m-277 -28
c-7 -2 -19 -2 -25 0 -7 3 -2 5 12 5 14 0 19 -2 13 -5z m217 -88 l25 -14 -26
-1 c-47 0 -119 12 -119 21 0 14 93 10 120 -6z m-5962 -75 c-18 -28 -41 -27
-32 3 3 12 11 28 17 35 17 22 31 -13 15 -38z m5636 -71 c-8 -14 -34 -10 -34 5
0 9 7 12 20 9 11 -3 17 -9 14 -14z m-5744 -10 c0 -5 -4 -9 -10 -9 -5 0 -10 7
-10 16 0 8 5 12 10 9 6 -3 10 -10 10 -16z m8756 -4 l39 -15 -40 6 c-22 3 -65
11 -95 19 l-55 14 56 -4 c30 -3 73 -12 95 -20z m-3231 -5 c-3 -5 -12 -10 -18
-10 -7 0 -6 4 3 10 19 12 23 12 15 0z m-5492 -14 c4 -10 1 -13 -9 -9 -15 6
-19 23 -5 23 5 0 11 -7 14 -14z m7114 -3 c-8 -7 -119 -5 -126 3 -2 2 26 4 64
4 38 0 65 -3 62 -7z m75 -2 c-12 -7 -62 -4 -62 5 0 2 17 4 38 4 23 0 32 -3 24
-9z m1742 -21 c54 -11 101 -20 104 -20 3 0 3 -3 0 -6 -7 -7 -207 35 -228 48
-12 7 -10 8 5 4 11 -3 64 -15 119 -26z m-1454 -34 c19 -1 -16 -3 -78 -4 -62
-1 -111 1 -109 6 5 6 103 6 187 -2z m137 -12 c-3 -3 -12 -4 -19 -1 -8 3 -5 6
6 6 11 1 17 -2 13 -5z m177 -3 c6 -8 -134 -3 -143 5 -2 2 28 4 67 4 39 0 73
-4 76 -9z m-424 -11 c0 -5 -8 -10 -17 -10 -24 0 -332 -18 -412 -25 -39 -3 -61
-1 -55 5 5 5 39 11 75 13 36 2 74 9 85 15 25 15 324 16 324 2z m-626 -29 c8
-13 -21 -34 -39 -27 -25 9 -18 36 9 36 14 0 27 -4 30 -9z m1309 -8 c3 -5 -16
-7 -41 -5 -80 5 -90 9 -25 11 34 0 64 -2 66 -6z m74 -9 c-3 -3 -12 -4 -19 -1
-8 3 -5 6 6 6 11 1 17 -2 13 -5z m598 -99 c93 -14 171 -28 174 -30 7 -8 -19
-6 -130 9 -57 8 -160 20 -229 26 -69 7 -132 16 -140 22 -23 15 132 2 325 -27z
m-8674 -50 c-42 -19 -52 -19 -27 0 11 8 29 15 40 15 16 -1 12 -5 -13 -15z
m2079 -170 c-47 -18 -71 -18 -40 0 14 8 36 14 50 14 22 0 21 -2 -10 -14z
m-1695 -195 c-10 -11 -14 -20 -9 -20 12 -1 -27 -30 -39 -30 -5 0 -4 7 3 15 19
23 2 18 -59 -17 -31 -17 -76 -35 -101 -39 -25 -5 -61 -11 -80 -15 l-35 -6 34
26 c19 14 42 26 52 26 9 0 22 7 29 15 14 17 50 20 50 5 0 -5 -4 -10 -10 -10
-5 0 -10 -4 -10 -9 0 -17 62 21 68 41 3 15 11 19 28 15 13 -2 32 2 41 9 10 7
27 14 37 14 18 0 18 -1 1 -20z m745 -10 c0 -5 -8 -10 -17 -10 -15 0 -16 2 -3
10 19 12 20 12 20 0z m94 -25 c-10 -8 -30 -15 -44 -15 -14 0 -40 -9 -59 -21
-18 -11 -38 -18 -45 -16 -15 5 27 28 99 53 64 23 80 23 49 -1z m-1234 -5 c-27
-21 -40 -25 -40 -12 0 9 38 30 55 31 6 0 -1 -8 -15 -19z m510 10 c0 -13 -123
-80 -149 -80 -29 0 -19 16 16 25 15 3 42 20 60 36 33 28 73 39 73 19z m550 0
c0 -12 -121 -72 -129 -64 -14 13 47 49 127 73 1 1 2 -4 2 -9z m10 -60 c0 -14
-24 -22 -52 -18 l-23 5 25 11 c32 14 50 15 50 2z m-1333 -157 c-9 -9 -20 -13
-24 -9 -4 4 -1 11 7 16 25 16 35 11 17 -7z m8360 -28 c5 -14 8 -14 29 0 30 19
53 19 60 0 4 -8 16 -16 28 -16 39 -2 -58 -18 -114 -18 -58 -1 -136 16 -126 27
4 3 28 9 54 13 26 3 51 7 55 8 4 0 10 -6 14 -14z m-8497 -40 c0 -8 -2 -15 -4
-15 -2 0 -12 -3 -21 -6 -15 -6 -15 -4 -4 15 16 25 29 27 29 6z m484 -20 c4
-12 -3 -15 -29 -15 -34 0 -47 13 -22 23 24 10 45 7 51 -8z m7899 -425 c43 -23
60 -26 33 -5 -19 14 -18 15 10 15 60 0 397 -66 352 -69 -9 -1 -18 -6 -20 -13
-4 -11 -53 -4 -198 31 -19 5 -69 8 -112 7 -42 0 -74 2 -71 7 2 4 -18 7 -46 7
-27 0 -53 5 -56 10 -3 6 -1 10 5 10 6 0 8 5 5 10 -11 18 59 11 98 -10z m-714
-6 c3 -2 0 -9 -6 -15 -8 -8 -43 -7 -124 1 -163 18 -167 30 -9 24 74 -3 136 -7
139 -10z m576 -4 c3 -5 -15 -7 -47 -3 -70 8 -74 13 -10 13 28 0 53 -4 57 -10z
m-345 -20 c235 -15 388 -35 440 -59 59 -26 261 -68 435 -91 124 -16 354 -74
342 -86 -2 -3 -46 7 -98 21 -54 15 -182 37 -304 51 -278 32 -522 63 -565 71
l-35 7 35 6 c35 7 35 7 10 17 -14 6 -93 16 -175 22 -147 12 -220 22 -260 37
-18 7 -18 6 -6 -9 12 -15 11 -17 -7 -17 -28 0 -36 16 -15 29 22 13 7 13 203 1z
m-235 -28 c-3 -3 -11 0 -18 7 -9 10 -8 11 6 5 10 -3 15 -9 12 -12z m-528 -18
c-3 -3 -12 -4 -19 -1 -8 3 -5 6 6 6 11 1 17 -2 13 -5z m-157 -14 c0 -15 -66
-23 -118 -14 l-47 8 35 7 c54 10 130 10 130 -1z m668 1 c20 -12 -36 -29 -68
-21 l-25 7 25 11 c31 13 51 14 68 3z m300 -10 c10 -6 7 -10 -12 -13 -32 -6
-76 1 -76 13 0 11 71 11 88 0z m-811 -7 c-3 -3 -12 -4 -19 -1 -8 3 -5 6 6 6
11 1 17 -2 13 -5z m13 -28 c0 -9 -40 -13 -46 -5 -3 5 6 9 20 9 14 0 26 -2 26
-4z m13 -163 c-13 -2 -33 -2 -45 0 -13 2 -3 4 22 4 25 0 35 -2 23 -4z m-5215
-168 c-6 -6 -223 -45 -251 -45 -10 0 -15 5 -12 10 3 6 23 10 43 11 20 0 69 6
107 13 76 15 121 19 113 11z m-1051 -51 c-3 -3 -12 -4 -19 -1 -8 3 -5 6 6 6
11 1 17 -2 13 -5z m963 -5 c-28 -12 -168 -25 -159 -16 7 8 104 25 149 25 33 1
34 0 10 -9z m-1180 -13 c0 -3 -4 -8 -10 -11 -5 -3 -10 -1 -10 4 0 6 5 11 10
11 6 0 10 -2 10 -4z m150 -5 c0 -15 -62 -33 -74 -21 -6 6 -1 13 15 19 31 13
59 13 59 2z m-190 -11 c0 -6 -12 -15 -27 -22 -16 -6 -50 -21 -78 -34 -81 -36
-128 -55 -132 -51 -4 4 124 69 143 73 6 1 28 11 50 22 47 25 44 24 44 12z
m400 -14 c0 -3 -24 -12 -52 -22 -29 -9 -85 -32 -124 -51 -39 -18 -82 -33 -95
-34 -13 0 -46 -11 -74 -24 -49 -23 -49 -23 -18 -24 17 -1 60 8 94 19 35 10 65
17 68 15 8 -8 -124 -62 -194 -80 -39 -9 -86 -24 -105 -32 -19 -8 -57 -18 -84
-24 -27 -5 -80 -25 -117 -44 -74 -37 -84 -41 -74 -25 3 6 1 10 -6 10 -8 0 -8
4 1 15 7 8 17 15 22 15 6 0 5 -7 -2 -15 -7 -8 -9 -15 -6 -15 4 0 77 38 162 85
164 91 250 131 379 176 44 15 98 34 120 43 37 14 105 22 105 12z m-340 -25 c0
-5 -21 -19 -47 -31 -200 -95 -257 -120 -267 -116 -6 3 -2 8 10 11 11 3 81 37
155 75 142 72 149 75 149 61z m685 -1 c-3 -5 -16 -10 -28 -10 -18 0 -19 2 -7
10 20 13 43 13 35 0z m-330 -20 c-3 -5 -10 -10 -16 -10 -5 0 -9 5 -9 10 0 6 7
10 16 10 8 0 12 -4 9 -10z m78 -2 c-13 -6 -23 -15 -23 -19 0 -4 10 -9 23 -11
16 -2 5 -9 -39 -26 -34 -13 -73 -22 -85 -20 -20 3 -17 6 21 21 l45 17 -40 -5
c-22 -3 -51 -8 -65 -11 -19 -4 -21 -3 -10 5 12 8 12 11 -4 17 -15 6 -13 9 14
20 41 17 43 17 36 -1 -7 -19 -4 -19 69 5 66 21 92 25 58 8z m3632 -38 c-3 -5
-11 -10 -16 -10 -6 0 -7 5 -4 10 3 6 11 10 16 10 6 0 7 -4 4 -10z m-4665 -35
c0 -2 -15 -12 -32 -20 l-33 -16 24 21 c22 19 41 26 41 15z m7489 -7 l66 -13
-70 -5 c-72 -6 -183 9 -169 23 11 11 100 8 173 -5z m-6729 -68 c0 -5 -13 -10
-30 -10 -16 0 -30 5 -30 10 0 6 14 10 30 10 17 0 30 -4 30 -10z m6630 -10 c0
-5 -2 -10 -4 -10 -3 0 -8 5 -11 10 -3 6 -1 10 4 10 6 0 11 -4 11 -10z m157
-16 c-3 -3 -12 -4 -19 -1 -8 3 -5 6 6 6 11 1 17 -2 13 -5z m-6872 -14 c-3 -5
-13 -10 -21 -10 -8 0 -12 5 -9 10 3 6 13 10 21 10 8 0 12 -4 9 -10z m-45 -10
c0 -5 -9 -10 -21 -10 -11 0 -17 5 -14 10 3 6 13 10 21 10 8 0 14 -4 14 -10z
m210 4 c0 -6 -65 -34 -81 -34 -19 0 -2 13 34 26 39 14 47 16 47 8z m6713 -11
c-7 -2 -21 -2 -30 0 -10 3 -4 5 12 5 17 0 24 -2 18 -5z m-7703 -27 c0 -2 -29
-27 -65 -55 -36 -28 -65 -56 -65 -62 0 -5 6 -7 13 -3 13 8 -27 -40 -58 -68
-29 -27 -102 -78 -111 -78 -14 0 70 81 99 97 16 8 27 17 24 19 -2 3 -22 -5
-43 -18 -54 -31 -29 -1 45 56 31 23 78 59 104 79 47 36 57 42 57 33z m685 -26
c-3 -5 -14 -10 -24 -10 -20 0 -71 -43 -71 -60 0 -13 40 -13 60 0 12 8 12 10
-5 10 -11 1 8 11 42 24 35 13 70 30 80 37 15 12 16 12 10 -3 -4 -11 -2 -18 6
-18 25 -1 -28 -30 -54 -30 -14 0 -32 -7 -39 -15 -13 -15 -128 -55 -159 -55
-12 0 -10 5 9 20 l25 20 -34 -10 c-18 -5 -45 -17 -58 -26 -14 -9 -37 -20 -52
-24 -14 -4 -34 -11 -43 -15 -11 -4 -18 -3 -18 4 0 15 155 115 216 140 53 21
119 28 109 11z m-395 -20 c0 -5 -5 -10 -11 -10 -5 0 -7 5 -4 10 3 6 8 10 11
10 2 0 4 -4 4 -10z m210 -4 c0 -2 -7 -7 -16 -10 -8 -3 -12 -2 -9 4 6 10 25 14
25 6z m-250 -35 c0 -6 -10 -17 -22 -26 -24 -16 -35 -7 -24 20 6 16 46 21 46 6z
m25 -71 c-18 -20 -45 -26 -58 -13 -4 3 8 17 25 30 38 28 62 16 33 -17z m-28
-56 c-3 -3 -12 -4 -19 -1 -8 3 -5 6 6 6 11 1 17 -2 13 -5z m806 -92 c-28 -24
-70 -43 -128 -58 -16 -4 -15 -2 5 11 l25 16 -27 -4 c-16 -2 -28 -1 -28 3 0 11
130 59 160 59 25 0 25 0 -7 -27z m-1363 4 c0 -3 -4 -8 -10 -11 -5 -3 -10 -1
-10 4 0 6 5 11 10 11 6 0 10 -2 10 -4z m1300 -86 c0 -5 -5 -10 -11 -10 -5 0
-7 5 -4 10 3 6 8 10 11 10 2 0 4 -4 4 -10z m-163 -21 c-29 -17 -127 -48 -127
-41 0 8 107 50 130 51 11 0 11 -2 -3 -10z m123 -25 c0 -11 -111 -55 -132 -52
-17 2 -6 10 42 30 64 27 90 33 90 22z m7397 -60 c-3 -3 -12 -4 -19 -1 -8 3 -5
6 6 6 11 1 17 -2 13 -5z m181 -20 c18 -4 32 -11 32 -16 0 -6 -10 -7 -22 -4
-13 4 -57 12 -98 17 -41 6 -77 13 -80 16 -6 6 119 -3 168 -13z m190 -34 c51
-10 101 -24 111 -30 11 -5 35 -10 55 -10 44 0 66 -9 66 -26 0 -8 -3 -14 -7
-14 -14 0 -338 72 -343 77 -3 3 17 21 26 23 0 0 42 -9 92 -20z m405 -90 c200
-52 526 -164 659 -226 69 -32 125 -60 123 -62 -1 -1 -99 31 -216 72 -251 88
-522 166 -578 166 -41 0 -83 12 -104 30 -6 6 -21 17 -31 24 -22 15 -13 39 12
32 10 -3 70 -19 135 -36z m-1020 3 c-7 -2 -21 -2 -30 0 -10 3 -4 5 12 5 17 0
24 -2 18 -5z m7 -33 c26 -16 4 -20 -36 -6 -38 14 -38 15 -9 15 17 0 37 -3 45
-9z m-1430 -10 c12 -8 9 -10 -12 -10 -16 0 -28 5 -28 10 0 13 20 13 40 0z
m1523 -7 c-7 -2 -19 -2 -25 0 -7 3 -2 5 12 5 14 0 19 -2 13 -5z m-8 -23 c8
-13 -15 -13 -35 0 -12 8 -11 10 7 10 12 0 25 -4 28 -10z m395 -5 c0 -8 -4 -15
-9 -15 -5 0 -14 7 -21 15 -10 13 -9 15 9 15 12 0 21 -6 21 -15z m51 -8 c-8 -8
-16 -7 -27 5 -14 14 -14 15 11 10 19 -3 23 -8 16 -15z m-206 -7 c4 -6 -7 -10
-24 -10 -17 0 -31 5 -31 10 0 6 11 10 24 10 14 0 28 -4 31 -10z m335 -10 c0
-5 -4 -10 -9 -10 -6 0 -13 5 -16 10 -3 6 1 10 9 10 9 0 16 -4 16 -10z m-267
-27 c-7 -2 -21 -2 -30 0 -10 3 -4 5 12 5 17 0 24 -2 18 -5z m-66 -19 c-3 -3
-12 -4 -19 -1 -8 3 -5 6 6 6 11 1 17 -2 13 -5z m-591 -89 c25 -19 1 -19 -41 0
-30 13 -30 13 -4 14 14 1 34 -6 45 -14z m298 -6 c-7 -11 -34 -12 -34 -1 0 14
11 21 26 15 8 -3 11 -9 8 -14z m-159 -19 c-3 -5 -15 -10 -26 -10 -11 0 -17 5
-14 10 3 6 15 10 26 10 11 0 17 -4 14 -10z m-4435 -110 c0 -5 -10 -10 -22 -10
-19 0 -20 2 -8 10 19 13 30 13 30 0z m1050 -30 c0 -5 -11 -10 -25 -10 -14 0
-25 5 -25 10 0 6 11 10 25 10 14 0 25 -4 25 -10z m-196 -25 c-23 -7 -77 -16
-120 -19 -60 -4 -72 -3 -49 4 43 15 123 28 170 28 l40 0 -41 -13z m-354 -49
c0 -2 -9 -6 -20 -9 -11 -3 -20 -1 -20 4 0 5 9 9 20 9 11 0 20 -2 20 -4z m2358
-43 c-10 -2 -26 -2 -35 0 -10 3 -2 5 17 5 19 0 27 -2 18 -5z m-3973 -163 c-3
-5 -14 -10 -23 -10 -15 0 -15 2 -2 10 20 13 33 13 25 0z m920 -80 c-28 -12
-37 -12 -30 0 3 6 16 10 28 9 21 0 21 -1 2 -9z m1885 -31 c-19 -5 -112 -13
-207 -18 -94 -5 -177 -12 -183 -16 -6 -3 -75 -7 -155 -8 -79 -1 -136 1 -125 5
17 6 278 34 385 41 117 8 320 5 285 -4z m677 5 c-3 -3 -12 -4 -19 -1 -8 3 -5
6 6 6 11 1 17 -2 13 -5z m231 -11 c-21 -2 -57 -2 -80 0 -24 2 -7 4 37 4 44 0
63 -2 43 -4z m-2568 -13 c0 -5 -7 -10 -15 -10 -8 0 -15 5 -15 10 0 6 7 10 15
10 8 0 15 -4 15 -10z m895 -40 c3 -6 -4 -10 -18 -10 -13 0 -50 -9 -82 -20 -32
-11 -74 -20 -94 -20 -33 1 -34 2 -18 15 11 7 24 12 30 9 7 -2 39 5 72 16 68
21 101 25 110 10z m955 -10 c0 -5 -4 -10 -9 -10 -6 0 -13 5 -16 10 -3 6 1 10
9 10 9 0 16 -4 16 -10z m-180 -10 c0 -5 -12 -10 -27 -10 -22 0 -25 2 -13 10
20 13 40 13 40 0z m-290 -7 c-8 -3 -19 -12 -23 -19 -4 -8 -22 -14 -40 -13 -26
0 -28 2 -12 8 11 5 23 7 28 4 4 -2 10 3 13 11 3 9 16 16 28 15 14 0 16 -2 6
-6z m-138 -28 c0 -5 -5 -11 -11 -13 -6 -2 -11 4 -11 13 0 9 5 15 11 13 6 -2
11 -8 11 -13z m-144 -2 c-10 -2 -28 -2 -40 0 -13 2 -5 4 17 4 22 1 32 -1 23
-4z m1200 -20 c-10 -2 -26 -2 -35 0 -10 3 -2 5 17 5 19 0 27 -2 18 -5z m-1435
-20 c-7 -2 -19 -2 -25 0 -7 3 -2 5 12 5 14 0 19 -2 13 -5z m-140 -30 c-7 -2
-19 -2 -25 0 -7 3 -2 5 12 5 14 0 19 -2 13 -5z"/>
<path d="M7065 9900 c-3 -5 -1 -10 4 -10 6 0 11 5 11 10 0 6 -2 10 -4 10 -3 0
-8 -4 -11 -10z"/>
<path d="M8980 9030 c0 -5 5 -10 11 -10 5 0 7 5 4 10 -3 6 -8 10 -11 10 -2 0
-4 -4 -4 -10z"/>
<path d="M9037 9027 c-4 -11 8 -14 55 -16 46 -2 59 1 56 11 -6 19 -104 23
-111 5z"/>
<path d="M9324 9018 c-3 -4 -16 -5 -30 -2 -13 3 -24 2 -24 -4 0 -14 20 -19 55
-15 31 4 65 3 147 -1 26 -1 49 2 51 8 2 5 29 4 70 -4 78 -14 102 -8 30 9 -60
13 -292 20 -299 9z"/>
<path d="M9163 9014 c10 -11 88 -14 82 -4 -3 6 -25 10 -47 10 -23 0 -39 -3
-35 -6z"/>
<path d="M8999 8980 c-11 -7 -10 -10 3 -15 9 -4 24 -5 33 -3 13 3 13 5 -3 15
-11 6 -24 8 -33 3z"/>
<path d="M9075 8980 c-4 -6 10 -10 34 -10 23 0 41 5 41 10 0 6 -15 10 -34 10
-19 0 -38 -4 -41 -10z"/>
<path d="M9240 8979 c0 -5 5 -7 10 -4 6 3 10 8 10 11 0 2 -4 4 -10 4 -5 0 -10
-5 -10 -11z"/>
<path d="M9328 8973 c7 -3 16 -2 19 1 4 3 -2 6 -13 5 -11 0 -14 -3 -6 -6z"/>
<path d="M9403 8963 c9 -2 25 -2 35 0 9 3 1 5 -18 5 -19 0 -27 -2 -17 -5z"/>
<path d="M9290 8926 c0 -2 7 -6 15 -10 8 -3 15 -1 15 4 0 6 -7 10 -15 10 -8 0
-15 -2 -15 -4z"/>
<path d="M9354 8915 c11 -8 29 -15 40 -15 21 1 21 1 2 15 -11 8 -29 15 -40 15
-21 -1 -21 -1 -2 -15z"/>
<path d="M9668 5993 c6 -2 18 -2 25 0 6 3 1 5 -13 5 -14 0 -19 -2 -12 -5z"/>
<path d="M4320 9980 c0 -5 9 -10 20 -10 11 0 20 5 20 10 0 6 -9 10 -20 10 -11
0 -20 -4 -20 -10z"/>
<path d="M5278 9983 c6 -2 18 -2 25 0 6 3 1 5 -13 5 -14 0 -19 -2 -12 -5z"/>
<path d="M7422 9979 c2 -7 10 -15 17 -17 8 -3 12 1 9 9 -2 7 -10 15 -17 17 -8
3 -12 -1 -9 -9z"/>
<path d="M7658 9983 c7 -3 16 -2 19 1 4 3 -2 6 -13 5 -11 0 -14 -3 -6 -6z"/>
<path d="M4098 9953 c7 -3 16 -2 19 1 4 3 -2 6 -13 5 -11 0 -14 -3 -6 -6z"/>
<path d="M4205 9950 c-3 -5 -1 -10 4 -10 6 0 11 5 11 10 0 6 -2 10 -4 10 -3 0
-8 -4 -11 -10z"/>
<path d="M3825 9940 c-3 -5 -2 -10 4 -10 5 0 13 5 16 10 3 6 2 10 -4 10 -5 0
-13 -4 -16 -10z"/>
<path d="M4870 9940 c0 -6 -25 -8 -67 -4 -43 4 -79 2 -98 -6 -29 -11 -29 -12
-11 -26 17 -12 22 -12 36 1 11 10 24 12 45 6 36 -9 102 6 109 25 3 8 1 14 -4
14 -6 0 -10 -5 -10 -10z"/>
<path d="M4940 9940 c-13 -8 -12 -10 3 -10 9 0 17 5 17 10 0 12 -1 12 -20 0z"/>
<path d="M7658 9943 c6 -2 18 -2 25 0 6 3 1 5 -13 5 -14 0 -19 -2 -12 -5z"/>
<path d="M3790 9930 c-13 -8 -12 -10 3 -10 9 0 17 5 17 10 0 12 -1 12 -20 0z"/>
<path d="M3970 9920 c-12 -8 -11 -10 7 -10 12 0 25 5 28 10 8 13 -15 13 -35 0z"/>
<path d="M3625 9874 c-66 -24 -126 -41 -134 -39 -8 3 -64 -11 -125 -32 -92
-32 -106 -39 -78 -41 20 -2 55 7 90 23 31 15 83 30 114 35 56 8 254 75 273 91
19 18 -22 7 -140 -37z"/>
<path d="M3895 9890 c-3 -5 1 -10 9 -10 8 0 18 5 21 10 3 6 -1 10 -9 10 -8 0
-18 -4 -21 -10z"/>
<path d="M3793 9861 c-52 -20 -68 -35 -28 -25 47 11 72 22 80 33 8 14 -1 13
-52 -8z"/>
<path d="M3700 9820 c0 -5 5 -10 10 -10 6 0 10 5 10 10 0 6 -4 10 -10 10 -5 0
-10 -4 -10 -10z"/>
<path d="M3630 9800 c-13 -9 -13 -10 0 -10 8 0 22 5 30 10 13 9 13 10 0 10 -8
0 -22 -5 -30 -10z"/>
<path d="M4395 9800 c3 -5 10 -10 16 -10 5 0 9 5 9 10 0 6 -7 10 -16 10 -8 0
-12 -4 -9 -10z"/>
<path d="M4310 9781 c0 -18 17 -20 36 -6 18 14 18 14 -8 15 -16 0 -28 -4 -28
-9z"/>
<path d="M3521 9764 c-19 -8 -32 -16 -29 -19 6 -7 76 14 83 25 9 14 -15 12
-54 -6z"/>
<path d="M4015 9770 c-3 -5 -1 -10 4 -10 6 0 11 5 11 10 0 6 -2 10 -4 10 -3 0
-8 -4 -11 -10z"/>
<path d="M3930 9739 c0 -5 5 -7 10 -4 6 3 10 8 10 11 0 2 -4 4 -10 4 -5 0 -10
-5 -10 -11z"/>
<path d="M3870 9690 c0 -5 7 -7 15 -4 8 4 15 8 15 10 0 2 -7 4 -15 4 -8 0 -15
-4 -15 -10z"/>
<path d="M2993 9650 c-29 -17 -53 -33 -53 -35 0 -7 69 29 95 49 31 24 15 19
-42 -14z"/>
<path d="M3690 9629 c0 -5 5 -7 10 -4 6 3 10 8 10 11 0 2 -4 4 -10 4 -5 0 -10
-5 -10 -11z"/>
<path d="M8960 9616 c0 -2 9 -6 20 -9 11 -3 18 -1 14 4 -5 9 -34 13 -34 5z"/>
<path d="M3560 9585 c-16 -19 -3 -19 30 0 24 13 24 14 4 15 -12 0 -27 -7 -34
-15z"/>
<path d="M3505 9560 c-3 -6 1 -7 9 -4 18 7 21 14 7 14 -6 0 -13 -4 -16 -10z"/>
<path d="M3543 9523 c-21 -12 -35 -23 -31 -23 9 0 98 39 98 43 0 11 -33 1 -67
-20z"/>
<path d="M3135 9520 c-10 -12 -25 -18 -32 -16 -7 3 -13 -1 -13 -9 0 -18 2 -18
64 3 58 20 73 42 28 42 -16 0 -37 -9 -47 -20z"/>
<path d="M3363 9512 c-67 -27 -74 -43 -12 -25 54 15 100 44 69 42 -8 0 -34 -8
-57 -17z"/>
<path d="M2831 9471 c-8 -6 -9 -11 -3 -15 6 -3 14 -1 17 5 9 14 2 20 -14 10z"/>
<path d="M3020 9468 c0 -10 31 -10 48 0 8 6 2 9 -18 9 -16 0 -30 -4 -30 -9z"/>
<path d="M3270 9469 c0 -5 5 -7 10 -4 6 3 10 8 10 11 0 2 -4 4 -10 4 -5 0 -10
-5 -10 -11z"/>
<path d="M9180 9470 c0 -5 7 -10 16 -10 8 0 12 5 9 10 -3 6 -10 10 -16 10 -5
0 -9 -4 -9 -10z"/>
<path d="M3120 9440 c-9 -6 -10 -10 -3 -10 6 0 15 5 18 10 8 12 4 12 -15 0z"/>
<path d="M2925 9394 c-11 -8 -26 -19 -34 -23 -8 -5 -11 -14 -7 -20 10 -16 66
18 66 41 0 21 0 21 -25 2z"/>
<path d="M8950 9401 c0 -5 5 -13 10 -16 6 -3 10 -2 10 4 0 5 -4 13 -10 16 -5
3 -10 2 -10 -4z"/>
<path d="M2865 9390 c-8 -13 5 -13 25 0 13 8 13 10 -2 10 -9 0 -20 -4 -23 -10z"/>
<path d="M8998 9323 c7 -3 16 -2 19 1 4 3 -2 6 -13 5 -11 0 -14 -3 -6 -6z"/>
<path d="M2500 9293 c-110 -36 -284 -107 -273 -110 18 -6 259 73 313 102 51
28 31 32 -40 8z"/>
<path d="M9148 9283 c7 -3 16 -2 19 1 4 3 -2 6 -13 5 -11 0 -14 -3 -6 -6z"/>
<path d="M9190 9280 c0 -5 4 -10 9 -10 6 0 13 5 16 10 3 6 -1 10 -9 10 -9 0
-16 -4 -16 -10z"/>
<path d="M9230 9270 c0 -5 5 -10 11 -10 5 0 7 5 4 10 -3 6 -8 10 -11 10 -2 0
-4 -4 -4 -10z"/>
<path d="M9455 9200 c27 -12 43 -12 25 0 -8 5 -22 9 -30 9 -10 0 -8 -3 5 -9z"/>
<path d="M9585 9151 c-18 -7 -17 -9 10 -14 87 -17 137 -19 133 -6 -3 8 -18 15
-34 16 -16 0 -42 4 -59 7 -16 3 -39 2 -50 -3z"/>
<path d="M9245 9130 c3 -5 10 -10 16 -10 5 0 9 5 9 10 0 6 -7 10 -16 10 -8 0
-12 -4 -9 -10z"/>
<path d="M10350 9130 c8 -5 24 -10 34 -10 26 0 18 6 -19 14 -22 5 -26 4 -15
-4z"/>
<path d="M10028 9083 c7 -3 16 -2 19 1 4 3 -2 6 -13 5 -11 0 -14 -3 -6 -6z"/>
<path d="M10142 9065 c20 -7 59 -16 85 -19 l48 -6 -46 14 c-26 7 -64 16 -85
19 l-39 7 37 -15z"/>
<path d="M10525 8960 c3 -5 13 -10 21 -10 8 0 12 5 9 10 -3 6 -13 10 -21 10
-8 0 -12 -4 -9 -10z"/>
<path d="M2080 8950 c-13 -9 -13 -10 0 -9 8 0 24 4 35 9 l20 9 -20 0 c-11 0
-27 -4 -35 -9z"/>
<path d="M2244 8900 c-38 -15 -37 -28 2 -20 42 10 69 30 39 29 -11 0 -30 -4
-41 -9z"/>
<path d="M10908 8883 c7 -3 16 -2 19 1 4 3 -2 6 -13 5 -11 0 -14 -3 -6 -6z"/>
<path d="M2164 8865 c-10 -8 -14 -15 -7 -15 19 0 43 11 43 21 0 13 -14 11 -36
-6z"/>
<path d="M10980 8866 c0 -2 7 -7 16 -10 8 -3 12 -2 9 4 -6 10 -25 14 -25 6z"/>
<path d="M11080 8826 c0 -6 95 -56 105 -56 4 0 3 5 0 10 -11 18 -105 59 -105
46z"/>
<path d="M2025 8809 c-4 -6 -5 -13 -2 -16 8 -7 47 7 47 18 0 13 -37 11 -45 -2z"/>
<path d="M2115 8777 c-28 -21 -1 -31 30 -11 14 9 25 18 25 20 0 9 -38 3 -55
-9z"/>
<path d="M2060 8750 c0 -5 -6 -10 -14 -10 -8 0 -18 -4 -21 -10 -10 -17 11 -11
36 10 13 10 18 19 12 20 -7 0 -13 -4 -13 -10z"/>
<path d="M2145 8745 c-16 -8 -38 -14 -47 -15 -10 0 -27 -9 -38 -20 -27 -27
-17 -25 65 15 66 32 83 49 20 20z"/>
<path d="M2040 8662 c-37 -20 -51 -42 -26 -42 27 0 64 22 69 41 6 24 0 24 -43
1z m10 -16 c0 -3 -4 -8 -10 -11 -5 -3 -10 -1 -10 4 0 6 5 11 10 11 6 0 10 -2
10 -4z"/>
<path d="M11350 8451 c8 -5 26 -12 40 -15 24 -7 24 -6 6 8 -11 9 -29 16 -40
16 -17 -1 -18 -2 -6 -9z"/>
<path d="M2124 8155 c-17 -13 -17 -14 -2 -15 9 0 20 5 23 11 11 17 0 20 -21 4z"/>
<path d="M11770 7840 c20 -13 43 -13 35 0 -3 6 -16 10 -28 10 -18 0 -19 -2 -7
-10z"/>
<path d="M10750 7670 c8 -5 31 -10 50 -10 26 0 31 3 20 10 -8 5 -31 10 -50 10
-26 0 -31 -3 -20 -10z"/>
<path d="M10729 7640 c21 -18 61 -28 61 -14 0 6 -65 34 -77 34 -4 -1 3 -10 16
-20z"/>
<path d="M11120 7647 c0 -9 80 -57 96 -57 23 0 -36 47 -69 55 -15 4 -27 5 -27
2z"/>
<path d="M10668 7633 c6 -2 18 -2 25 0 6 3 1 5 -13 5 -14 0 -19 -2 -12 -5z"/>
<path d="M11125 7560 c3 -5 8 -10 11 -10 2 0 4 5 4 10 0 6 -5 10 -11 10 -5 0
-7 -4 -4 -10z"/>
<path d="M11220 7551 c0 -6 10 -13 23 -15 12 -2 46 -9 75 -15 68 -14 193 -14
147 0 -16 5 -64 13 -105 19 -41 6 -90 13 -107 16 -21 4 -33 2 -33 -5z"/>
<path d="M11642 7500 c-10 -17 -10 -20 3 -20 8 0 15 9 15 20 0 11 -1 20 -3 20
-1 0 -8 -9 -15 -20z"/>
<path d="M1672 7469 c2 -6 8 -10 13 -10 5 0 11 4 13 10 2 6 -4 11 -13 11 -9 0
-15 -5 -13 -11z"/>
<path d="M1695 7310 c-3 -5 -1 -10 4 -10 6 0 11 5 11 10 0 6 -2 10 -4 10 -3 0
-8 -4 -11 -10z"/>
<path d="M1400 7221 c-87 -32 -167 -74 -207 -108 -24 -20 -17 -18 42 10 39 19
109 53 158 76 48 23 87 44 87 46 0 6 6 8 -80 -24z"/>
<path d="M1678 7093 c7 -3 16 -2 19 1 4 3 -2 6 -13 5 -11 0 -14 -3 -6 -6z"/>
<path d="M11080 7090 c8 -5 22 -10 30 -10 13 0 13 1 0 10 -8 5 -22 10 -30 10
-13 0 -13 -1 0 -10z"/>
<path d="M10945 6980 c27 -12 43 -12 25 0 -8 5 -22 9 -30 9 -10 0 -8 -3 5 -9z"/>
<path d="M11023 6954 c16 -8 31 -13 35 -10 8 8 1 12 -33 20 l-30 6 28 -16z"/>
<path d="M1645 6871 c-149 -60 -329 -149 -411 -204 -34 -23 -61 -43 -59 -45 3
-4 251 124 270 139 6 4 82 39 170 78 87 39 161 74 164 76 11 12 -22 1 -134
-44z"/>
<path d="M1258 6754 c-16 -8 -28 -17 -28 -19 0 -11 19 -4 41 15 29 23 24 25
-13 4z"/>
<path d="M2510 6753 c-14 -3 -29 -9 -34 -14 -16 -14 26 -10 54 6 26 15 23 16
-20 8z"/>
<path d="M2185 6660 c-3 -5 1 -10 9 -10 8 0 18 5 21 10 3 6 -1 10 -9 10 -8 0
-18 -4 -21 -10z"/>
<path d="M10436 6582 c-4 -6 -20 -9 -36 -7 -17 2 -28 0 -25 -6 7 -11 86 -10
130 1 17 4 23 8 14 9 -9 0 -30 4 -47 7 -16 3 -32 1 -36 -4z"/>
<path d="M10685 6560 c3 -5 13 -10 21 -10 8 0 12 5 9 10 -3 6 -13 10 -21 10
-8 0 -12 -4 -9 -10z"/>
<path d="M10375 6541 c-6 -5 -26 -14 -45 -19 -33 -10 -31 -10 28 -11 62 -1 72
5 50 27 -14 14 -21 15 -33 3z"/>
<path d="M11268 6513 c7 -3 16 -2 19 1 4 3 -2 6 -13 5 -11 0 -14 -3 -6 -6z"/>
<path d="M2041 6414 c-19 -8 -32 -16 -29 -19 7 -8 78 15 78 25 0 13 -8 12 -49
-6z"/>
<path d="M10354 6175 c11 -8 25 -15 30 -15 6 0 2 7 -8 15 -11 8 -25 15 -30 15
-6 0 -2 -7 8 -15z"/>
<path d="M9175 5930 c-3 -5 1 -10 10 -10 9 0 13 5 10 10 -3 6 -8 10 -10 10 -2
0 -7 -4 -10 -10z"/>
<path d="M9268 5923 c7 -3 16 -2 19 1 4 3 -2 6 -13 5 -11 0 -14 -3 -6 -6z"/>
<path d="M9260 5850 c0 -5 6 -10 14 -10 8 0 18 5 21 10 3 6 -3 10 -14 10 -12
0 -21 -4 -21 -10z"/>
<path d="M9130 5830 c0 -5 5 -10 10 -10 6 0 10 5 10 10 0 6 -4 10 -10 10 -5 0
-10 -4 -10 -10z"/>
<path d="M10190 5762 c0 -5 7 -15 15 -22 8 -7 15 -8 15 -2 0 5 -7 15 -15 22
-8 7 -15 8 -15 2z"/>
<path d="M8680 5639 c0 -5 5 -7 10 -4 6 3 10 8 10 11 0 2 -4 4 -10 4 -5 0 -10
-5 -10 -11z"/>
<path d="M8838 5553 c6 -2 18 -2 25 0 6 3 1 5 -13 5 -14 0 -19 -2 -12 -5z"/>
<path d="M9368 5263 c7 -3 16 -2 19 1 4 3 -2 6 -13 5 -11 0 -14 -3 -6 -6z"/>
<path d="M9858 5263 c7 -3 16 -2 19 1 4 3 -2 6 -13 5 -11 0 -14 -3 -6 -6z"/>
<path d="M9898 5253 c7 -3 16 -2 19 1 4 3 -2 6 -13 5 -11 0 -14 -3 -6 -6z"/>
<path d="M9970 5225 c14 -17 85 -39 103 -32 15 6 -71 46 -97 47 -15 0 -16 -3
-6 -15z"/>
<path d="M9643 5223 c9 -2 23 -2 30 0 6 3 -1 5 -18 5 -16 0 -22 -2 -12 -5z"/>
<path d="M9688 5193 c7 -3 16 -2 19 1 4 3 -2 6 -13 5 -11 0 -14 -3 -6 -6z"/>
<path d="M9820 5196 c0 -2 7 -7 16 -10 8 -3 12 -2 9 4 -6 10 -25 14 -25 6z"/>
<path d="M9728 5183 c7 -3 16 -2 19 1 4 3 -2 6 -13 5 -11 0 -14 -3 -6 -6z"/>
<path d="M1360 5010 c-8 -5 -10 -10 -5 -10 6 0 17 5 25 10 8 5 11 10 5 10 -5
0 -17 -5 -25 -10z"/>
<path d="M10375 4996 c14 -6 345 -112 375 -120 71 -19 -119 59 -204 84 -87 25
-201 49 -171 36z"/>
<path d="M1315 4980 c-3 -6 1 -7 9 -4 18 7 21 14 7 14 -6 0 -13 -4 -16 -10z"/>
<path d="M1015 4850 c-3 -5 -1 -10 4 -10 6 0 11 5 11 10 0 6 -2 10 -4 10 -3 0
-8 -4 -11 -10z"/>
<path d="M1275 4819 c-11 -17 0 -20 21 -4 17 13 17 14 2 15 -9 0 -20 -5 -23
-11z"/>
<path d="M1237 4783 c-4 -3 -7 -11 -7 -17 0 -6 5 -5 12 2 6 6 9 14 7 17 -3 3
-9 2 -12 -2z"/>
<path d="M955 4710 c-10 -11 -16 -22 -13 -25 3 -3 13 4 23 15 10 11 16 22 13
25 -3 3 -13 -4 -23 -15z"/>
<path d="M1050 4719 c0 -5 5 -7 10 -4 6 3 10 8 10 11 0 2 -4 4 -10 4 -5 0 -10
-5 -10 -11z"/>
<path d="M11105 4702 c21 -20 135 -66 143 -57 3 2 -6 9 -19 14 -13 5 -51 21
-84 35 -48 22 -56 23 -40 8z"/>
<path d="M2145 4610 c-8 -13 25 -13 45 0 12 8 9 10 -12 10 -15 0 -30 -4 -33
-10z"/>
<path d="M2185 4550 c-3 -5 -1 -10 4 -10 6 0 11 5 11 10 0 6 -2 10 -4 10 -3 0
-8 -4 -11 -10z"/>
<path d="M2055 4519 c-38 -10 -74 -19 -78 -19 -5 0 -7 -10 -5 -22 5 -35 41
-34 106 3 70 40 68 37 56 48 -5 5 -38 1 -79 -10z"/>
<path d="M2365 4510 c-3 -5 -1 -10 4 -10 6 0 11 5 11 10 0 6 -2 10 -4 10 -3 0
-8 -4 -11 -10z"/>
<path d="M2324 4490 c-6 -6 -30 -21 -54 -34 -25 -13 -46 -29 -48 -36 -3 -8 24
3 59 22 35 20 65 41 67 47 5 14 -11 14 -24 1z"/>
<path d="M1900 4451 c0 -5 7 -11 14 -14 10 -4 13 -1 9 9 -6 15 -23 19 -23 5z"/>
<path d="M2580 4440 c0 -5 7 -7 15 -4 8 4 15 8 15 10 0 2 -7 4 -15 4 -8 0 -15
-4 -15 -10z"/>
<path d="M9765 4400 c3 -5 11 -10 16 -10 6 0 7 5 4 10 -3 6 -11 10 -16 10 -6
0 -7 -4 -4 -10z"/>
<path d="M9720 4310 l0 -31 24 18 c17 13 21 21 14 31 -19 23 -38 14 -38 -18z"/>
<path d="M9435 4290 c3 -5 13 -10 21 -10 8 0 14 5 14 10 0 6 -9 10 -21 10 -11
0 -17 -4 -14 -10z"/>
<path d="M2432 4239 c-19 -4 -39 -12 -45 -18 -17 -17 45 -14 69 3 25 19 17 24
-24 15z"/>
<path d="M4337 4064 c-16 -9 -27 -18 -24 -20 5 -5 77 24 77 31 0 9 -25 4 -53
-11z"/>
<path d="M4262 4039 c-10 -15 -10 -19 0 -19 7 0 19 4 26 9 11 6 10 10 0 19
-11 8 -17 6 -26 -9z"/>
<path d="M9404 4014 c3 -9 6 -18 6 -20 0 -2 6 -4 14 -4 9 0 12 7 9 20 -3 11
-12 20 -20 20 -10 0 -13 -6 -9 -16z"/>
<path d="M4176 4005 c-3 -8 -13 -11 -23 -9 -11 3 -49 -11 -86 -30 -37 -20 -72
-36 -77 -36 -6 0 -19 -9 -29 -19 -18 -18 -135 -51 -180 -51 -11 0 -23 -5 -27
-12 -5 -8 -2 -9 9 -5 9 3 19 2 22 -3 6 -9 -30 -18 -94 -22 -19 -2 -36 -9 -39
-17 -4 -11 4 -12 34 -7 44 8 64 8 114 2 19 -3 38 -5 42 -5 4 -1 5 -7 2 -14 -4
-11 6 -12 53 -5 32 4 101 10 153 13 119 5 245 21 269 34 10 6 35 7 56 4 30 -5
37 -3 33 8 -3 8 -10 14 -15 14 -34 0 -15 16 53 46 41 18 71 35 65 37 -14 5
-127 -32 -204 -66 -55 -24 -60 -24 -90 -10 -27 13 -43 14 -87 6 -65 -12 -240
-16 -240 -6 0 9 45 29 194 88 60 24 117 51 128 59 18 16 18 16 -6 17 -14 1
-27 -4 -30 -11z m-186 -180 c10 -12 7 -15 -13 -20 -14 -4 -36 -1 -48 6 -23 12
-23 12 -4 20 31 12 52 10 65 -6z"/>
<path d="M8588 4013 c7 -3 16 -2 19 1 4 3 -2 6 -13 5 -11 0 -14 -3 -6 -6z"/>
<path d="M4535 3940 c-3 -5 -1 -10 4 -10 6 0 11 5 11 10 0 6 -2 10 -4 10 -3 0
-8 -4 -11 -10z"/>
<path d="M8168 3923 c7 -3 16 -2 19 1 4 3 -2 6 -13 5 -11 0 -14 -3 -6 -6z"/>
<path d="M8201 3916 c11 -9 129 -15 129 -6 0 6 -30 10 -67 10 -36 0 -64 -2
-62 -4z"/>
<path d="M8400 3906 c0 -8 51 -13 56 -5 3 5 -9 9 -25 9 -17 0 -31 -2 -31 -4z"/>
<path d="M8620 3888 c0 -4 14 -8 30 -8 17 0 30 2 30 4 0 2 -13 6 -30 8 -16 3
-30 1 -30 -4z"/>
<path d="M9380 3840 c0 -5 5 -10 10 -10 6 0 10 5 10 10 0 6 -4 10 -10 10 -5 0
-10 -4 -10 -10z"/>
<path d="M3400 3780 l-25 -8 25 -1 c14 0 32 4 40 9 13 9 13 10 0 9 -8 -1 -26
-5 -40 -9z"/>
<path d="M4064 3765 c-16 -12 -16 -14 -3 -15 9 0 22 7 29 15 16 19 0 19 -26 0z"/>
<path d="M4295 3749 c-52 -20 -90 -28 -110 -25 -27 5 -28 4 -12 -8 9 -7 17
-18 17 -25 0 -15 -3 -15 76 17 38 16 74 27 80 25 5 -2 21 8 34 22 31 33 16 32
-85 -6z"/>
<path d="M3318 3744 c-16 -8 -28 -17 -28 -19 0 -12 30 -3 51 15 28 23 15 25
-23 4z"/>
<path d="M4510 3740 c-19 -11 -57 -20 -85 -21 -83 -2 -110 -11 -113 -37 -4
-23 -2 -24 65 -21 37 2 73 0 79 -3 6 -4 53 1 105 12 52 10 84 19 71 19 -19 1
-22 5 -17 21 6 18 3 19 -42 15 -41 -5 -45 -4 -25 6 24 13 30 29 10 29 -7 -1
-29 -9 -48 -20z"/>
<path d="M4005 3740 c-3 -5 1 -10 9 -10 9 0 16 5 16 10 0 6 -4 10 -9 10 -6 0
-13 -4 -16 -10z"/>
<path d="M4131 3681 c-7 -5 -12 -14 -10 -20 3 -7 11 -3 21 9 18 21 13 26 -11
11z"/>
<path d="M7125 3670 c-3 -6 1 -7 9 -4 18 7 21 14 7 14 -6 0 -13 -4 -16 -10z"/>
<path d="M7361 3676 c10 -9 79 -14 74 -5 -4 5 -22 9 -42 9 -20 0 -34 -2 -32
-4z"/>
<path d="M7454 3669 c-3 -5 -4 -9 -2 -10 19 -3 100 -8 93 -4 -33 14 -86 22
-91 14z"/>
<path d="M4023 3622 c-40 -20 -73 -40 -73 -44 0 -5 30 7 68 25 37 19 74 36 82
39 7 2 10 7 5 10 -6 3 -43 -11 -82 -30z"/>
<path d="M4295 3639 c-10 -15 3 -25 16 -12 7 7 7 13 1 17 -6 3 -14 1 -17 -5z"/>
<path d="M4393 3633 c-28 -5 -30 -23 -4 -23 26 0 51 10 51 21 0 9 -8 10 -47 2z"/>
<path d="M4225 3620 c-3 -5 -1 -10 4 -10 6 0 11 5 11 10 0 6 -2 10 -4 10 -3 0
-8 -4 -11 -10z"/>
<path d="M4610 3620 c20 -13 33 -13 25 0 -3 6 -14 10 -23 10 -15 0 -15 -2 -2
-10z"/>
<path d="M5153 3611 c-57 -10 -66 -21 -17 -21 22 0 49 7 60 15 21 16 19 16
-43 6z"/>
<path d="M4523 3599 c14 -8 22 -8 30 0 8 8 3 11 -18 11 -26 -1 -28 -2 -12 -11z"/>
<path d="M4985 3573 c-81 -25 -105 -35 -105 -44 0 -5 5 -9 10 -9 23 0 170 53
170 61 0 12 -15 10 -75 -8z"/>
<path d="M4063 3548 c-13 -6 -23 -15 -23 -20 0 -14 16 -9 41 12 26 21 17 25
-18 8z"/>
<path d="M3953 3474 c-18 -16 -21 -22 -8 -15 32 15 61 40 48 41 -7 0 -25 -12
-40 -26z"/>
</g>
</svg>
