<?xml version="1.0" standalone="no"?>
<!DOCTYPE svg PUBLIC "-//W3C//DTD SVG 20010904//EN"
 "http://www.w3.org/TR/2001/REC-SVG-20010904/DTD/svg10.dtd">
<svg version="1.0" xmlns="http://www.w3.org/2000/svg"
 width="301.000000pt" height="77.000000pt" viewBox="0 0 301.000000 77.000000"
 preserveAspectRatio="xMidYMid meet">

<g transform="translate(0.000000,77.000000) scale(0.100000,-0.100000)"
fill="pink" stroke="none">
<path d="M1088 743 c7 -3 16 -2 19 1 4 3 -2 6 -13 5 -11 0 -14 -3 -6 -6z"/>
<path d="M1380 739 c-36 -4 -123 -10 -195 -13 -174 -9 -373 -24 -465 -36 -41
-5 -111 -12 -155 -15 -130 -11 -389 -55 -400 -69 -5 -7 -19 -15 -29 -19 -36
-14 -11 -14 74 -1 105 16 143 17 135 4 -3 -5 -24 -10 -45 -10 -58 0 -140 -19
-183 -43 -35 -19 -37 -23 -21 -34 10 -7 16 -14 13 -16 -2 -2 -16 -11 -31 -20
-41 -25 -34 -36 15 -25 27 5 52 5 68 -1 23 -9 22 -10 -11 -11 -59 -3 -125 -24
-125 -40 0 -16 5 -16 45 -6 23 6 23 6 5 -5 -11 -7 -33 -25 -49 -41 l-30 -28
25 0 c25 0 26 -1 18 -54 -5 -37 -3 -67 6 -93 l13 -38 184 4 c100 2 218 4 260
4 43 0 75 3 73 7 -2 4 42 10 98 14 56 3 134 9 173 12 61 5 72 4 78 -11 10 -27
0 -33 -56 -34 -29 -1 -71 -3 -93 -5 -22 -2 -97 -5 -168 -6 -82 -1 -125 -5
-121 -11 3 -6 -4 -9 -18 -8 -32 4 -170 -12 -164 -19 7 -6 114 -3 147 4 13 3
111 7 217 9 106 2 196 6 200 9 19 12 206 6 218 -7 15 -15 -8 -19 -133 -23
-103 -3 -223 -9 -275 -13 -5 -1 -8 -5 -8 -11 0 -6 67 -11 178 -12 145 -1 163
-3 97 -9 -45 -4 0 -5 100 -2 220 6 205 5 199 15 -3 4 20 8 51 8 32 0 54 -4 50
-9 -7 -12 105 -2 121 10 6 5 14 6 18 2 11 -12 120 -10 128 2 5 6 8 5 8 -2 0
-18 27 -16 34 2 5 13 -14 15 -127 16 -73 1 -139 2 -147 3 -8 2 -75 3 -147 4
-73 1 -133 6 -133 11 0 12 73 20 87 9 6 -5 14 -5 17 0 3 4 47 9 98 10 51 0
108 3 126 7 22 3 31 2 27 -5 -3 -5 -2 -10 4 -10 5 0 12 4 15 8 7 12 375 0 397
-14 4 -2 24 -6 45 -9 29 -4 35 -3 24 4 -19 14 67 14 125 1 33 -8 27 -9 -33 -5
-43 2 -70 0 -67 -5 4 -6 -49 -8 -132 -5 -138 4 -156 2 -161 -23 -2 -11 15 -13
83 -10 47 1 85 0 85 -4 0 -5 11 -8 25 -8 14 0 25 5 25 11 0 15 83 5 88 -10 5
-16 22 -13 22 3 0 16 89 21 293 17 90 -2 127 0 127 8 0 8 16 11 45 10 24 -2
48 0 51 4 4 4 -17 7 -47 8 -56 1 -127 5 -237 13 -35 3 -70 10 -78 17 -12 10
-17 10 -23 0 -5 -8 -15 -9 -33 -2 -29 11 -154 21 -296 23 -77 1 -108 5 -119
16 -9 9 -33 15 -61 15 -26 0 -41 2 -34 4 23 9 12 23 -18 23 -32 0 -41 -16 -12
-23 9 -3 -13 -5 -50 -6 -36 0 -68 3 -70 8 -4 11 -19 14 -85 12 -40 -1 -53 -5
-53 -16 0 -19 -5 -19 -35 1 -14 9 -33 13 -45 9 -11 -4 -20 -2 -20 4 0 6 9 11
21 11 15 0 19 5 15 15 -4 11 2 15 27 14 29 0 30 -1 10 -9 -13 -5 -23 -11 -23
-14 0 -9 355 7 359 17 2 5 11 0 21 -13 13 -17 22 -21 36 -15 27 12 137 12 147
0 6 -6 10 -6 14 2 3 9 27 13 76 12 72 -1 158 -15 110 -18 -36 -2 -29 -31 8
-31 17 0 28 4 24 10 -4 6 11 11 37 12 77 3 83 4 97 12 7 5 18 3 24 -3 18 -18
67 -14 67 6 0 12 3 14 11 6 25 -25 -3 -36 -78 -31 -51 4 -72 2 -70 -6 3 -6 10
-10 16 -8 7 1 94 2 194 3 114 0 176 3 167 9 -16 10 -11 13 35 23 13 3 8 5 -12
6 -45 2 -68 11 -51 22 8 5 -14 9 -57 11 -54 1 -60 2 -24 5 30 3 53 11 64 24
14 14 31 19 69 18 34 0 45 -3 32 -8 -18 -7 -18 -8 -2 -14 24 -10 26 -9 26 8 0
8 5 15 11 15 6 0 9 -7 5 -15 -8 -21 38 -20 62 1 16 13 18 23 11 61 -5 24 -11
48 -14 53 -3 5 5 11 17 13 13 3 -12 5 -54 4 -58 0 -78 -3 -78 -13 0 -8 -6 -11
-16 -7 -11 4 -12 8 -4 13 7 4 0 9 -18 12 -17 2 -29 2 -27 -2 2 -3 0 -12 -6
-20 -7 -13 -9 -12 -9 1 0 20 -19 29 -63 30 -30 1 -31 1 -7 9 26 8 25 9 -26 25
-30 10 -10 12 51 5 33 -4 47 -8 32 -9 -48 -2 -19 -21 31 -21 84 2 214 22 203
33 -6 6 -31 9 -56 9 -25 -1 -45 2 -45 8 0 5 11 10 24 10 33 0 57 10 50 21 -3
5 12 9 32 9 58 0 36 9 -29 11 -31 1 -57 6 -57 9 0 7 265 25 323 22 15 -1 25 2
23 7 -3 5 -38 11 -78 15 -114 10 -128 12 -135 19 -3 4 11 7 32 7 21 0 79 6
129 12 86 12 89 13 46 19 -25 3 -34 7 -20 8 14 1 32 6 40 11 11 7 -1 10 -40
11 -30 0 -49 3 -42 6 18 7 15 23 -5 23 -31 0 -92 20 -106 35 -8 7 -38 16 -68
20 -30 4 -58 10 -64 13 -13 8 -1185 9 -1265 1z m-1020 -183 c0 -4 -74 -17
-174 -30 -69 -9 -28 7 46 18 90 14 128 18 128 12z m2027 -32 c-3 -3 -12 -4
-19 -1 -8 3 -5 6 6 6 11 1 17 -2 13 -5z m160 -10 c-3 -3 -12 -4 -19 -1 -8 3
-5 6 6 6 11 1 17 -2 13 -5z m-527 -62 c0 -5 -7 -9 -15 -9 -8 0 -15 4 -15 9 0
4 7 8 15 8 8 0 15 -4 15 -8z m110 -3 c0 -5 5 -7 10 -4 6 3 10 2 10 -4 0 -8
-77 -8 -100 0 -4 1 38 12 73 18 4 0 7 -4 7 -10z m453 -26 c-7 -2 -19 -2 -25 0
-7 3 -2 5 12 5 14 0 19 -2 13 -5z m-253 -29 c0 -8 -5 -12 -10 -9 -6 4 -8 11
-5 16 9 14 15 11 15 -7z m170 -75 c0 -5 -14 -9 -31 -9 -16 0 -28 3 -26 8 7 10
57 12 57 1z m105 0 c4 -6 19 -7 36 -4 18 4 29 3 29 -4 0 -6 -19 -11 -45 -11
-34 0 -45 -4 -45 -16 0 -8 -5 -12 -10 -9 -6 4 -8 11 -5 16 4 5 1 10 -4 10 -11
1 -24 4 -38 9 -10 3 36 18 59 19 9 1 20 -4 23 -10z m-772 -36 c-13 -2 -33 -2
-45 0 -13 2 -3 4 22 4 25 0 35 -2 23 -4z m227 -13 c0 -11 -40 -11 -85 0 -25 6
-20 8 28 9 32 0 57 -3 57 -9z m83 -7 c-7 -2 -19 -2 -25 0 -7 3 -2 5 12 5 14 0
19 -2 13 -5z m205 -25 c-2 -13 -11 -24 -23 -27 -16 -3 -17 -1 -7 12 11 13 10
17 -5 26 -16 9 -14 10 10 11 24 0 28 -4 25 -22z m-731 -14 c-3 -3 -12 -4 -19
-1 -8 3 -5 6 6 6 11 1 17 -2 13 -5z m-127 -14 c0 -6 -23 -10 -55 -9 -30 1 -55
6 -55 11 0 4 25 8 55 8 31 0 55 -4 55 -10z m-306 -45 c3 -8 13 -15 21 -15 9 0
14 -4 10 -9 -9 -16 -65 -10 -65 6 0 10 -9 14 -32 11 -19 -2 -33 2 -35 10 -7
19 93 16 101 -3z m-202 -15 c-25 -24 -33 -25 -26 -6 3 8 -2 16 -13 19 -10 3 0
5 21 6 l40 1 -22 -20z m85 -16 c-3 -3 -12 -4 -19 -1 -8 3 -5 6 6 6 11 1 17 -2
13 -5z m551 0 c-10 -10 -69 -13 -63 -4 4 6 20 10 37 10 17 0 29 -3 26 -6z
m592 -64 c12 -8 10 -10 -10 -9 -14 0 -34 4 -45 9 -17 7 -16 9 10 9 17 0 37 -4
45 -9z m173 -17 c-13 -2 -33 -2 -45 0 -13 2 -3 4 22 4 25 0 35 -2 23 -4z"/>
<path d="M2698 473 c7 -3 16 -2 19 1 4 3 -2 6 -13 5 -11 0 -14 -3 -6 -6z"/>
<path d="M2715 340 c-3 -5 -1 -10 4 -10 6 0 11 5 11 10 0 6 -2 10 -4 10 -3 0
-8 -4 -11 -10z"/>
<path d="M2580 165 c0 -8 4 -15 9 -15 5 0 11 7 15 15 3 9 0 15 -9 15 -8 0 -15
-7 -15 -15z"/>
<path d="M2617 165 c-4 -8 -3 -16 1 -18 12 -7 47 8 50 21 3 17 -45 15 -51 -3z"/>
<path d="M1483 163 c9 -2 23 -2 30 0 6 3 -1 5 -18 5 -16 0 -22 -2 -12 -5z"/>
<path d="M2698 153 c6 -2 18 -2 25 0 6 3 1 5 -13 5 -14 0 -19 -2 -12 -5z"/>
<path d="M67 103 c-23 -22 23 -24 78 -2 14 6 7 8 -26 8 -25 1 -49 -2 -52 -6z"/>
<path d="M2633 70 c-4 -4 -17 -10 -28 -13 -11 -3 -2 -5 20 -6 34 -1 89 17 60
20 -5 0 -17 2 -27 4 -9 2 -20 -1 -25 -5z"/>
<path d="M238 63 c12 -2 30 -2 40 0 9 3 -1 5 -23 4 -22 0 -30 -2 -17 -4z"/>
</g>
</svg>
