<?xml version="1.0" standalone="no"?>
<!DOCTYPE svg PUBLIC "-//W3C//DTD SVG 20010904//EN"
 "http://www.w3.org/TR/2001/REC-SVG-20010904/DTD/svg10.dtd">
<svg version="1.0" xmlns="http://www.w3.org/2000/svg"
 width="816.000000pt" height="156.000000pt" viewBox="0 0 816.000000 156.000000"
 preserveAspectRatio="xMidYMid meet">

<g transform="translate(0.000000,156.000000) scale(0.100000,-0.100000)"
fill="pink" stroke="none">
<path d="M976 1532 c-3 -2 -148 -5 -323 -7 -310 -2 -453 -10 -453 -25 0 -5 9
-6 20 -3 21 5 28 -11 10 -22 -17 -11 -11 -23 10 -18 41 11 66 -51 36 -92 -8
-11 -12 -25 -9 -31 2 -7 -5 -18 -17 -24 -11 -6 -18 -15 -15 -20 6 -10 -47 -30
-84 -31 -17 -1 -20 -3 -8 -6 24 -6 21 -21 -5 -26 -13 -2 6 -3 42 -1 63 4 64 4
35 -10 -16 -8 -49 -18 -72 -21 -43 -7 -64 -32 -41 -46 7 -5 13 -14 13 -21 1
-14 7 -14 43 -3 22 6 22 6 -3 -19 -14 -14 -36 -26 -47 -26 -21 0 -21 0 -2 -15
18 -14 18 -14 -6 -16 -20 -1 -21 -2 -5 -6 17 -5 15 -7 -10 -18 -17 -8 -23 -14
-15 -15 8 -1 -3 -7 -25 -14 l-40 -13 42 -8 c30 -5 40 -11 36 -22 -4 -9 2 -16
16 -20 13 -3 21 -13 21 -26 0 -11 8 -25 17 -32 15 -11 13 -13 -16 -20 -23 -5
-31 -11 -27 -21 3 -8 0 -14 -7 -13 -22 3 -77 -13 -77 -24 0 -6 19 -7 51 -3 44
6 51 5 46 -8 -4 -9 -2 -16 3 -16 18 0 10 -20 -7 -21 -16 0 -16 -1 1 -8 16 -6
17 -9 4 -22 -13 -13 -13 -16 1 -29 14 -14 14 -15 -7 -18 -18 -3 -20 -6 -9 -16
7 -7 19 -15 27 -18 10 -4 6 -8 -12 -13 -16 -4 -25 -12 -22 -17 3 -5 -4 -16
-15 -25 -17 -11 -19 -18 -11 -28 8 -9 6 -17 -5 -29 -14 -13 -14 -16 -2 -16 8
0 20 -7 27 -15 10 -12 7 -15 -14 -21 -35 -8 -33 -23 4 -30 16 -4 27 -10 24
-15 -3 -5 4 -9 15 -9 44 0 19 -35 -36 -49 -57 -16 -64 -31 -13 -31 38 0 41 -2
34 -22 -4 -13 -12 -26 -18 -30 -6 -5 -7 -8 -1 -8 20 -1 -30 -30 -52 -30 -30 0
-30 -18 -1 -22 30 -4 35 -34 8 -41 -11 -3 -20 -11 -20 -19 0 -10 16 -14 57
-15 32 0 88 -4 126 -8 48 -6 67 -4 67 4 0 15 53 14 68 -1 9 -9 15 -9 23 -1 11
11 49 6 49 -6 0 -9 31 -8 45 1 6 3 66 7 135 8 69 0 134 1 145 2 47 2 75 -3 75
-12 0 -6 -33 -10 -80 -10 -57 0 -80 -4 -80 -12 0 -9 -3 -9 -9 1 -7 11 -12 10
-22 -8 -17 -27 -33 -27 -26 -1 5 19 2 20 -26 16 -44 -6 -45 -6 -22 -16 19 -8
19 -8 -5 -18 -24 -9 -24 -9 10 -13 56 -6 185 5 183 16 -2 6 2 10 7 9 44 -4 46
-5 25 -14 -14 -6 -5 -9 35 -9 35 0 48 3 36 8 -14 5 -16 10 -8 15 7 4 10 12 6
17 -3 6 0 9 7 8 8 -2 28 5 46 14 33 18 73 23 73 9 0 -12 67 -14 74 -3 4 6 67
8 161 6 85 -3 155 -1 155 3 0 13 101 7 109 -6 4 -8 15 -10 26 -6 18 7 18 8 -1
15 -11 4 18 8 69 8 52 1 87 -3 87 -9 0 -5 -10 -10 -22 -11 -22 0 -22 -1 -3 -8
15 -6 22 -4 29 9 4 10 22 20 40 22 40 4 68 -1 61 -13 -8 -12 6 -11 25 1 9 6
17 5 22 -3 6 -9 8 -9 8 1 0 6 9 12 20 12 11 0 20 -7 20 -15 0 -9 -9 -15 -22
-15 -16 0 -19 -3 -11 -11 15 -15 53 -2 46 17 -3 7 -1 14 3 15 5 0 24 2 42 5
24 3 31 1 27 -9 -4 -6 1 -3 9 8 16 19 16 19 37 -2 15 -14 17 -21 8 -21 -8 1
-36 0 -64 -2 l-50 -2 50 -13 c28 -7 59 -13 70 -13 18 -1 18 0 -2 8 -13 5 -23
12 -23 14 0 11 64 -4 71 -16 6 -9 9 -9 9 -1 0 6 8 14 18 16 9 3 3 5 -15 6 -31
1 -51 16 -39 28 8 9 140 8 154 -1 7 -4 18 -4 25 0 8 5 7 2 -2 -10 -10 -12 -16
-14 -21 -5 -6 8 -9 8 -15 -1 -4 -6 -13 -9 -21 -6 -7 3 -16 1 -19 -4 -4 -6 9
-11 27 -11 l33 -1 -30 -8 c-18 -4 21 -8 98 -8 84 -2 126 1 122 8 -4 6 15 10
50 10 31 0 54 -4 51 -9 -3 -4 20 -7 52 -5 86 5 297 8 382 5 66 -3 72 -4 48
-14 -16 -6 -28 -18 -28 -27 0 -14 -8 -16 -50 -12 -32 3 -50 1 -50 -6 0 -7 34
-11 98 -11 53 1 131 -2 172 -5 80 -6 110 -1 110 17 0 8 -3 8 -12 -1 -17 -17
-28 -15 -28 4 0 13 -3 14 -13 5 -14 -11 -27 -5 -27 11 0 5 6 8 13 7 30 -4 46
2 52 20 4 14 14 18 40 15 45 -3 75 -13 75 -25 0 -5 4 -9 10 -9 5 0 7 7 3 16
-5 13 3 15 46 13 28 -2 51 -6 51 -11 0 -4 -5 -8 -12 -8 -6 0 -8 -3 -5 -6 4 -4
29 -8 57 -9 40 -2 50 1 46 11 -6 16 10 19 19 4 5 -8 11 -8 20 0 9 7 16 6 25
-5 8 -10 24 -13 54 -10 29 4 37 2 26 -5 -11 -7 -5 -8 20 -3 38 8 163 8 362 1
70 -3 133 -1 140 3 10 7 10 9 -2 9 -13 0 -13 2 -1 9 9 6 22 6 33 0 12 -6 18
-6 18 1 0 5 -6 10 -12 10 -9 0 -8 4 2 10 20 13 97 13 105 0 4 -6 35 -8 78 -4
97 8 167 5 189 -7 13 -7 23 -7 32 0 7 6 27 9 44 6 18 -2 32 1 32 6 0 5 9 9 20
9 21 0 27 -15 10 -25 -17 -10 -11 -35 8 -34 10 0 12 3 4 6 -18 7 -4 23 21 23
20 0 20 0 1 15 -17 13 -15 14 36 16 30 1 70 2 88 2 21 -1 32 4 32 13 0 15 16
19 24 6 3 -5 32 -7 65 -6 34 1 61 -2 61 -7 0 -5 14 -9 30 -9 17 0 31 -4 31
-10 1 -5 2 -16 3 -22 1 -7 -3 -16 -9 -20 -6 -5 -2 -8 9 -8 13 0 16 5 12 16 -4
12 -2 15 9 10 8 -3 15 -1 15 4 0 6 -7 10 -15 10 -8 0 -15 5 -15 10 0 6 17 10
38 9 21 -2 43 0 49 4 6 4 13 2 15 -4 3 -9 10 -9 27 1 18 9 25 9 31 0 6 -9 9
-9 13 1 5 12 6 12 6 0 1 -10 4 -11 15 -2 10 8 16 9 21 1 7 -11 128 -14 139 -3
8 9 13 9 74 11 24 1 41 6 38 10 -2 4 12 6 32 3 30 -3 33 -5 17 -12 -24 -9 -19
-10 83 -13 66 -2 90 5 60 17 -8 3 -6 6 5 6 10 1 20 -6 23 -14 4 -8 11 -15 16
-15 6 0 8 7 4 15 -6 16 5 18 44 5 14 -4 18 -9 10 -10 -10 -1 -9 -4 5 -9 11 -5
25 -4 33 1 8 7 12 7 12 -2 0 -12 55 -5 75 10 17 12 94 3 110 -14 15 -15 55
-23 55 -11 0 3 -10 10 -22 15 -23 9 -23 9 2 10 14 1 34 3 45 4 13 0 20 8 20
21 0 19 6 20 183 19 129 -1 182 2 182 10 0 6 5 4 10 -4 5 -8 10 -11 10 -7 0 4
10 2 23 -4 26 -14 163 -23 171 -11 7 11 327 4 341 -8 6 -5 20 -9 30 -9 11 1
63 -4 115 -9 63 -7 97 -6 101 0 7 11 221 0 249 -12 24 -10 90 -7 100 5 10 11
31 13 107 9 85 -5 95 -4 90 10 -5 12 0 16 16 17 17 0 14 3 -13 14 -19 7 -27
14 -18 14 9 1 21 7 25 14 4 7 24 18 43 24 33 10 34 11 8 12 -45 2 -32 21 13
21 35 0 40 2 29 14 -6 8 -17 13 -25 10 -18 -7 -29 30 -15 55 9 18 7 21 -16 27
-17 4 -22 10 -15 17 7 7 15 6 26 -3 14 -11 19 -10 38 10 18 18 19 22 5 17 -10
-4 -18 -2 -18 3 0 10 21 14 48 11 23 -3 7 24 -23 38 -17 7 -25 15 -18 18 7 3
13 11 13 18 0 8 12 15 28 18 l27 3 -32 13 c-32 13 -36 41 -6 41 12 0 13 3 4
14 -6 7 -9 21 -5 30 4 12 0 16 -15 16 -12 0 -21 6 -21 15 0 11 11 15 41 15 22
0 38 4 34 9 -3 5 -1 12 5 16 15 9 12 25 -5 25 -8 0 -15 4 -15 10 0 5 13 7 30
3 24 -4 29 -3 25 9 -4 9 1 18 11 22 16 6 16 8 -2 21 -18 14 -18 15 3 21 21 6
21 8 7 29 -10 15 -22 21 -34 18 -27 -7 -120 26 -120 43 0 17 5 17 49 4 39 -11
81 -4 81 14 0 6 9 18 20 26 15 11 18 22 15 52 -4 26 -1 38 7 38 9 0 9 3 0 12
-14 14 -16 32 -3 24 12 -8 20 41 9 52 -6 6 -6 12 1 16 15 10 14 53 -1 59 -10
4 -10 8 1 15 11 8 11 10 0 15 -10 4 -10 6 -1 6 6 1 12 7 12 14 0 15 -37 40
-49 32 -5 -3 -40 7 -77 21 -148 56 -250 78 -408 89 -113 8 -110 17 4 14 101
-3 270 -35 364 -68 31 -11 54 -15 51 -10 -4 5 -10 9 -15 9 -5 0 -33 11 -63 24
-29 14 -84 32 -123 41 -38 9 -83 20 -100 24 -17 5 -59 7 -92 5 -34 -1 -62 1
-62 7 0 5 -13 9 -30 9 -20 0 -30 -5 -30 -15 0 -16 -60 -19 -318 -16 -75 1
-121 -2 -118 -7 9 -14 -93 -24 -229 -24 -66 1 -127 -3 -135 -8 -12 -8 -10 -10
10 -10 14 0 45 -2 70 -4 25 -3 76 -5 114 -5 121 -2 63 -12 -76 -14 -127 -2
-153 3 -161 30 -2 8 -44 13 -112 13 -80 -1 -100 -5 -103 -24 -4 -21 -53 -19
-60 3 -3 10 1 12 18 8 16 -4 20 -3 12 5 -6 6 -30 9 -54 8 -69 -3 -87 -2 -114
4 -22 6 -25 4 -19 -14 6 -20 4 -20 -137 -15 -79 2 -178 5 -220 5 -72 0 -103
12 -60 23 9 3 3 5 -14 6 -20 1 -34 -5 -38 -14 -4 -12 -18 -14 -68 -9 -87 7
-85 7 -160 4 -37 -2 -65 -7 -62 -12 3 -4 16 -8 29 -8 13 0 27 -5 30 -10 4 -7
13 -7 24 0 12 6 22 5 28 -1 6 -6 61 -12 123 -13 84 -2 114 -6 121 -17 6 -10 9
-11 9 -1 0 13 19 14 185 12 38 -1 72 -5 75 -10 3 -5 12 -5 19 0 8 4 25 4 38
-1 12 -4 30 -6 38 -3 8 4 15 1 15 -4 0 -7 11 -8 32 -1 21 5 36 5 42 -1 6 -6
35 -10 66 -10 34 0 50 4 41 9 -19 12 1 22 38 17 42 -5 52 -16 15 -17 -47 -1 2
-17 55 -18 24 -1 42 -4 39 -7 -8 -7 -89 -7 -238 2 -63 3 -122 6 -130 5 -25 -1
-104 -1 -125 1 -11 0 -40 0 -65 0 -66 -1 -259 7 -300 12 -52 7 -332 17 -620
21 -280 4 -393 9 -408 18 -5 4 -22 3 -39 -2 -36 -10 -241 -7 -267 4 -11 5 -26
4 -37 -3 -27 -17 -36 -15 -42 10 -5 18 -8 19 -21 8 -20 -16 -52 5 -37 24 8 9
-8 11 -62 9 -52 -3 -75 -8 -84 -20 -7 -9 -10 -19 -7 -22 3 -3 9 1 13 8 11 17
45 10 49 -11 3 -14 -10 -16 -107 -17 -90 -1 -111 2 -111 13 0 8 8 16 18 18 12
3 8 6 -11 10 -23 4 -27 2 -22 -12 4 -14 -1 -19 -25 -22 -17 -3 -33 -1 -36 4
-8 12 0 19 22 22 10 2 20 8 22 15 3 8 -4 10 -21 6 -14 -4 -42 -2 -62 4 -45 12
-64 5 -38 -15 10 -7 13 -14 7 -14 -5 0 -20 9 -31 19 -22 21 -65 18 -57 -3 7
-19 -44 -18 -55 2 -11 20 -57 27 -67 10 -5 -7 -2 -9 9 -5 17 6 44 -18 29 -27
-10 -6 -62 7 -84 20 -8 5 -6 10 8 16 13 6 8 7 -15 3 -38 -6 -53 -15 -33 -22 6
-3 12 -14 12 -26 0 -14 -3 -17 -8 -10 -7 11 -108 10 -120 -2 -3 -3 -13 2 -22
10 -8 8 -33 16 -54 19 -32 4 -37 2 -31 -12 5 -14 4 -15 -6 -4 -15 14 -33 16
-25 3 7 -11 -53 -9 -71 2 -6 4 -13 2 -15 -4 -4 -12 -88 -3 -88 10 0 8 -136 -4
-162 -14 -9 -4 -14 -13 -11 -21 4 -10 -2 -14 -20 -14 -14 0 -28 6 -30 13 -4
10 -6 10 -6 0 -1 -8 -14 -13 -32 -13 -17 0 -28 4 -24 10 3 6 16 10 27 10 12 0
19 3 16 6 -3 3 -77 7 -164 9 -179 4 -235 10 -249 28 -27 32 -120 12 -113 -25
2 -8 -7 -13 -24 -13 -16 1 -28 -2 -28 -5 0 -3 -37 -4 -82 -3 -46 2 -150 5
-233 8 -82 2 -194 7 -248 10 -75 3 -97 1 -94 -8 2 -6 10 -12 18 -13 33 -2 39
-4 39 -13 0 -6 -12 -8 -27 -7 -16 2 -45 4 -65 5 -46 1 -51 21 -6 21 20 0 28 4
22 9 -13 14 -67 20 -81 9 -7 -6 -19 -5 -31 1 -15 8 -21 7 -26 -4 -5 -13 11
-20 37 -16 4 0 7 -4 7 -9 0 -7 -24 -9 -67 -6 -76 7 -97 16 -35 16 31 0 42 4
42 15 0 19 -80 21 -98 3 -7 -7 -12 -8 -12 -2 0 5 -11 11 -25 12 -13 1 -28 2
-32 3 -27 5 -35 -1 -23 -16 18 -22 8 -27 -47 -26 -60 2 -178 18 -141 20 32 1
46 17 21 25 -29 8 -143 4 -143 -5 0 -10 -123 -4 -172 9 -29 8 -38 7 -42 -4 -4
-11 -23 -13 -78 -10 -40 2 -84 4 -98 5 -20 1 -22 3 -10 12 18 12 -74 7 -104
-6 -14 -6 -18 -5 -14 6 2 7 15 16 29 20 13 4 20 8 14 8 -5 1 4 8 21 15 18 8
70 14 130 14 65 1 92 -2 79 -8 -24 -10 -14 -13 40 -10 22 1 47 8 57 17 18 16
84 14 81 -3 -1 -6 18 -11 48 -12 27 0 49 3 49 7 0 4 24 8 53 8 54 1 136 11
149 19 5 3 8 0 8 -7 0 -10 3 -10 12 -1 15 15 65 16 70 1 2 -6 34 -11 75 -12
53 0 75 3 87 16 15 15 19 15 49 -2 27 -15 47 -18 99 -12 4 1 5 8 2 16 -5 12 0
14 22 10 16 -2 98 -7 181 -10 84 -3 164 -10 178 -15 27 -10 332 -11 1187 -4
350 2 529 1 533 -6 4 -6 11 -8 16 -4 6 3 189 5 407 4 218 -1 406 -1 416 -1 21
0 43 17 33 27 -12 13 -227 17 -242 4 -8 -7 -20 -8 -27 -3 -7 4 -80 9 -161 9
-82 1 -151 4 -154 8 -3 3 -14 1 -24 -5 -13 -6 -25 -6 -38 1 -13 6 -21 6 -23 0
-2 -6 -17 -6 -42 1 -30 8 -45 8 -63 -2 -32 -17 -53 1 -32 28 12 16 12 17 -2 6
-9 -7 -49 -14 -90 -15 -41 -1 -79 -6 -86 -10 -6 -5 -24 -13 -41 -17 -23 -7
-32 -5 -43 10 -11 15 -23 18 -69 15 -68 -4 -85 1 -69 20 9 11 8 14 -1 14 -7 0
-18 -7 -24 -15 -14 -19 -79 -22 -683 -29 -244 -3 -448 -8 -453 -11 -6 -4 -16
-2 -23 3 -14 11 -127 13 -142 2 -13 -9 -176 -7 -192 3 -6 4 -30 5 -52 1 -22
-4 -48 -3 -58 1 -30 13 -48 14 -370 19 -199 3 -315 1 -319 -5 -4 -6 -10 -6
-18 0 -9 7 -61 9 -147 6 -254 -10 -271 -10 -280 1 -6 8 -2 14 13 19 37 12 108
17 108 8 0 -10 54 -8 150 3 54 7 139 12 253 17 31 1 57 5 57 10 0 4 -6 7 -12
8 -73 5 -128 5 -132 1z m5624 -193 c0 -5 -10 -9 -21 -9 -18 0 -19 2 -9 15 12
15 30 12 30 -6z m-4215 0 c-8 -11 -55 -12 -55 -1 0 5 14 9 30 10 17 0 28 -4
25 -9z m1818 -3 c16 -13 15 -14 -13 -18 -36 -5 -43 -1 -27 18 15 17 18 17 40
0z m2327 4 c0 -5 -4 -10 -10 -10 -5 0 -10 5 -10 10 0 6 5 10 10 10 6 0 10 -4
10 -10z m-2712 -11 c-2 -6 -8 -10 -13 -10 -5 0 -11 4 -13 10 -2 6 4 11 13 11
9 0 15 -5 13 -11z m-490 -26 c-10 -2 -26 -2 -35 0 -10 3 -2 5 17 5 19 0 27 -2
18 -5z m3052 -3 c0 -5 -4 -10 -10 -10 -5 0 -10 5 -10 10 0 6 5 10 10 10 6 0
10 -4 10 -10z m-4595 -9 c26 -7 22 -8 -26 -12 -37 -3 -60 0 -68 9 -9 9 -4 12
26 11 21 -1 52 -5 68 -8z m4798 2 c-13 -2 -35 -2 -50 0 -16 2 -5 4 22 4 28 0
40 -2 28 -4z m269 -17 c69 -3 52 -16 -20 -16 -60 0 -72 3 -72 16 0 13 6 15 28
9 15 -5 44 -9 64 -9z m-2282 -6 c0 -5 -4 -10 -10 -10 -5 0 -10 5 -10 10 0 6 5
10 10 10 6 0 10 -4 10 -10z m70 0 c0 -5 -6 -10 -14 -10 -8 0 -18 5 -21 10 -3
6 3 10 14 10 12 0 21 -4 21 -10z m2472 -9 c5 -4 -9 -6 -30 -5 -20 1 -56 2 -79
3 -24 0 -43 4 -43 9 0 9 142 3 152 -7z m158 9 c15 -10 17 -10 -55 -15 -26 -2
-45 5 -45 16 0 12 81 11 100 -1z m-667 -7 c-7 -2 -19 -2 -25 0 -7 3 -2 5 12 5
14 0 19 -2 13 -5z m-5018 -13 c4 -6 -6 -10 -22 -9 -25 0 -26 1 -8 9 11 5 21 9
22 9 1 1 5 -3 8 -9z m109 1 c5 -1 6 -4 3 -7 -11 -12 -77 -11 -77 0 0 9 21 11
74 7z m3746 -21 c0 -5 -2 -10 -4 -10 -3 0 -8 5 -11 10 -3 6 -1 10 4 10 6 0 11
-4 11 -10z m365 0 c3 -5 1 -10 -4 -10 -6 0 -11 5 -11 10 0 6 2 10 4 10 3 0 8
-4 11 -10z m-940 -60 c3 -5 -1 -10 -9 -10 -9 0 -16 5 -16 10 0 6 4 10 9 10 6
0 13 -4 16 -10z m650 -10 c3 -5 -3 -10 -14 -10 -12 0 -21 5 -21 10 0 6 6 10
14 10 8 0 18 -4 21 -10z m1219 -11 c-3 -5 -10 -7 -15 -3 -5 3 -7 10 -3 15 3 5
10 7 15 3 5 -3 7 -10 3 -15z m-931 4 c-7 -2 -19 -2 -25 0 -7 3 -2 5 12 5 14 0
19 -2 13 -5z m37 -3 c0 -5 -2 -10 -4 -10 -3 0 -8 5 -11 10 -3 6 -1 10 4 10 6
0 11 -4 11 -10z m860 0 c0 -5 -4 -10 -10 -10 -5 0 -10 5 -10 10 0 6 5 10 10
10 6 0 10 -4 10 -10z m252 -5 c-2 -11 -103 -17 -139 -8 -52 12 -18 24 60 21
48 -2 81 -7 79 -13z m-5111 -38 c-13 -13 -26 -3 -16 12 3 6 11 8 17 5 6 -4 6
-10 -1 -17z m142 8 c1 -5 -10 -11 -25 -13 -16 -2 -28 1 -28 7 0 20 49 26 53 6z
m146 -1 c2 -2 -16 -4 -42 -4 -25 0 -48 4 -51 9 -5 8 84 3 93 -5z m196 -4 c8
-13 -5 -13 -25 0 -13 8 -13 10 2 10 9 0 20 -4 23 -10z m-2118 -256 c-3 -3 -12
-4 -19 -1 -8 3 -5 6 6 6 11 1 17 -2 13 -5z m-23 -259 c3 -8 1 -15 -4 -15 -6 0
-10 7 -10 15 0 8 2 15 4 15 2 0 6 -7 10 -15z m7711 -211 c12 -5 13 -9 5 -14
-16 -10 -51 0 -44 11 6 11 16 11 39 3z m5 -44 c0 -5 -4 -10 -10 -10 -5 0 -10
5 -10 10 0 6 5 10 10 10 6 0 10 -4 10 -10z m-2266 -56 c20 -8 11 -24 -14 -24
-13 0 -17 5 -14 15 7 17 7 17 28 9z m-3568 -11 c-11 -12 -241 -18 -391 -12
l-50 2 60 7 c86 9 390 11 381 3z m67 0 c-7 -2 -19 -2 -25 0 -7 3 -2 5 12 5 14
0 19 -2 13 -5z m77 -2 c0 -5 -9 -7 -20 -4 -11 3 -20 7 -20 9 0 2 9 4 20 4 11
0 20 -4 20 -9z m60 -1 c0 -5 -5 -10 -11 -10 -5 0 -7 5 -4 10 3 6 8 10 11 10 2
0 4 -4 4 -10z m3570 1 c0 -4 -16 -7 -35 -8 -19 0 -32 3 -30 8 6 9 65 9 65 0z
m274 -10 c4 -5 -12 -7 -36 -4 -57 8 -61 13 -10 13 22 0 43 -4 46 -9z m96 -1
c0 -5 -16 -10 -36 -10 -19 0 -33 4 -30 8 7 12 66 14 66 2z m63 -7 c-7 -2 -21
-2 -30 0 -10 3 -4 5 12 5 17 0 24 -2 18 -5z m-188 -43 c3 -5 1 -10 -4 -10 -6
0 -11 5 -11 10 0 6 2 10 4 10 3 0 8 -4 11 -10z m-420 -19 c-6 -11 -125 -10
-125 2 0 4 30 7 66 7 38 0 63 -4 59 -9z m-1457 -15 c7 1 8 0 2 -3 -5 -2 -8 -9
-4 -14 3 -5 -6 -5 -20 1 -14 5 -26 7 -26 4 0 -3 -5 -2 -10 1 -19 11 0 24 23
16 12 -4 28 -7 35 -5z m-1503 -6 c4 -6 -7 -10 -27 -9 -27 0 -30 2 -13 9 27 12
33 12 40 0z m1565 0 c-20 -13 -40 -13 -40 0 0 6 12 10 28 10 21 0 24 -2 12
-10z m1810 6 c0 -2 -7 -9 -15 -16 -13 -11 -14 -10 -9 4 5 14 24 23 24 12z m90
-6 c8 -5 11 -10 5 -10 -5 0 -3 -5 5 -10 9 -6 10 -10 3 -10 -6 0 -15 5 -18 10
-9 14 -42 12 -48 -2 -3 -7 -6 -3 -6 10 -1 16 5 22 22 22 12 0 29 -5 37 -10z
m-3935 -10 c3 -6 -4 -10 -17 -10 -18 0 -20 2 -8 10 19 12 18 12 25 0z m388 3
c-7 -2 -19 -2 -25 0 -7 3 -2 5 12 5 14 0 19 -2 13 -5z m604 1 c-3 -3 -12 -4
-19 -1 -8 3 -5 6 6 6 11 1 17 -2 13 -5z m143 -4 c0 -5 -5 -10 -11 -10 -5 0 -7
5 -4 10 3 6 8 10 11 10 2 0 4 -4 4 -10z m120 6 c0 -3 -4 -8 -10 -11 -5 -3 -10
-1 -10 4 0 6 5 11 10 11 6 0 10 -2 10 -4z m4190 -28 c0 -15 -68 -9 -73 6 -3 8
-1 16 6 19 15 5 67 -15 67 -25z m-3831 -5 c-7 -10 -14 -20 -16 -22 -1 -2 -1 6
0 18 1 11 8 21 15 21 12 0 12 -3 1 -17z m-697 -25 c-7 -7 -12 -8 -12 -2 0 14
12 26 19 19 2 -3 -1 -11 -7 -17z m598 18 c0 -11 -19 -15 -25 -6 -3 5 1 10 9
10 9 0 16 -2 16 -4z m-290 -22 c0 -2 -7 -4 -15 -4 -8 0 -15 4 -15 10 0 5 7 7
15 4 8 -4 15 -8 15 -10z m427 10 c-3 -3 -12 -4 -19 -1 -8 3 -5 6 6 6 11 1 17
-2 13 -5z m-801 -33 c-4 -5 -45 -9 -94 -9 -58 1 -77 3 -57 8 44 11 157 12 151
1z"/>
<path d="M1142 1519 c3 -8 21 -15 44 -16 21 -1 86 -4 144 -6 58 -3 125 -2 150
3 48 8 38 11 -55 15 -27 1 -103 6 -169 10 -98 6 -118 5 -114 -6z"/>
<path d="M1565 1500 c11 -5 27 -9 35 -9 9 0 8 4 -5 9 -11 5 -27 9 -35 9 -9 0
-8 -4 5 -9z"/>
<path d="M3158 1483 c6 -2 18 -2 25 0 6 3 1 5 -13 5 -14 0 -19 -2 -12 -5z"/>
<path d="M3446 1475 c-3 -8 -1 -15 4 -15 6 0 10 7 10 15 0 8 -2 15 -4 15 -2 0
-6 -7 -10 -15z"/>
<path d="M3482 1485 c7 -8 87 -9 95 -2 3 4 -18 7 -47 7 -29 0 -51 -2 -48 -5z"/>
<path d="M4130 1480 c-11 -7 -1 -9 33 -8 26 0 50 4 53 9 7 12 -67 11 -86 -1z"/>
<path d="M4315 1480 c3 -5 17 -10 31 -10 13 0 24 5 24 10 0 6 -14 10 -31 10
-17 0 -28 -4 -24 -10z"/>
<path d="M4623 1483 c9 -2 23 -2 30 0 6 3 -1 5 -18 5 -16 0 -22 -2 -12 -5z"/>
<path d="M4278 1473 c7 -3 16 -2 19 1 4 3 -2 6 -13 5 -11 0 -14 -3 -6 -6z"/>
<path d="M7139 1441 c-89 -5 -119 -10 -132 -23 -22 -21 -21 -28 2 -28 27 0 83
25 74 33 -3 4 0 7 8 7 8 0 20 -5 27 -12 9 -9 12 -9 12 0 0 14 66 17 74 3 4 -5
20 -5 41 2 19 5 32 14 29 19 -3 4 -8 7 -12 6 -4 -1 -59 -4 -123 -7z"/>
<path d="M7307 1442 c-4 -6 12 -10 39 -10 25 -1 54 -4 64 -7 10 -3 21 -1 25 5
3 5 -2 10 -13 10 -11 0 -39 3 -64 6 -26 4 -48 2 -51 -4z"/>
<path d="M7455 1430 c3 -5 18 -10 33 -9 24 0 25 1 7 9 -28 12 -47 12 -40 0z"/>
<path d="M4591 1420 c-19 -5 -43 -7 -53 -5 -10 2 -18 0 -18 -5 0 -11 112 -19
125 -8 13 11 75 10 75 -1 0 -17 -15 -20 -86 -22 -67 -2 -139 -17 -87 -18 12
-1 25 -6 28 -11 4 -6 12 -4 22 6 13 13 38 14 177 9 88 -3 171 -6 182 -6 12 0
28 -6 35 -15 9 -11 14 -12 20 -3 5 9 12 10 21 3 7 -6 22 -9 33 -8 120 12 167
14 177 7 31 -18 155 -23 169 -6 6 7 25 13 42 13 19 0 27 4 22 9 -6 6 -57 12
-113 15 -107 5 -149 15 -71 17 l44 1 -42 10 c-39 10 -95 2 -65 -9 26 -10 10
-18 -36 -18 -42 0 -47 2 -46 23 1 22 -20 30 -31 12 -3 -5 -11 -10 -16 -10 -6
0 -8 4 -5 8 3 5 -29 8 -71 7 -50 0 -78 -5 -81 -13 -4 -12 9 -16 36 -13 6 1 12
-3 12 -9 0 -14 -139 -5 -154 10 -8 9 1 11 36 9 26 -2 50 0 54 4 4 4 -13 8 -37
9 -75 2 -144 6 -149 7 -21 7 -122 8 -149 1z m179 -25 c0 -8 -7 -15 -16 -15
-14 0 -14 3 -4 15 7 8 14 15 16 15 2 0 4 -7 4 -15z"/>
<path d="M6640 1415 c0 -8 8 -15 18 -14 10 0 12 3 4 6 -6 2 -10 9 -6 14 3 5 0
9 -5 9 -6 0 -11 -7 -11 -15z"/>
<path d="M6783 1423 c9 -2 25 -2 35 0 9 3 1 5 -18 5 -19 0 -27 -2 -17 -5z"/>
<path d="M1605 1411 c-7 -12 77 -20 90 -10 6 6 6 9 0 10 -6 0 -27 2 -47 4 -21
2 -40 0 -43 -4z"/>
<path d="M1755 1400 c-3 -5 3 -10 15 -10 12 0 18 5 15 10 -3 6 -10 10 -15 10
-5 0 -12 -4 -15 -10z"/>
<path d="M5510 1390 c-12 -8 -11 -10 8 -10 12 0 22 5 22 10 0 13 -11 13 -30 0z"/>
<path d="M3225 1380 c-4 -6 3 -10 14 -10 25 0 27 6 6 13 -8 4 -17 2 -20 -3z"/>
<path d="M4458 1383 c-31 -8 -20 -21 17 -20 27 1 32 4 23 14 -11 14 -12 14
-40 6z"/>
<path d="M3417 1360 c6 -23 19 -26 26 -6 6 16 -1 26 -19 26 -7 0 -10 -8 -7
-20z"/>
<path d="M4261 1371 c-10 -7 -8 -9 10 -8 13 0 29 -1 34 -2 20 -6 76 -1 71 7
-7 11 -98 13 -115 3z"/>
<path d="M6035 1370 c3 -5 18 -10 32 -10 32 0 28 5 -10 14 -19 4 -26 3 -22 -4z"/>
<path d="M6195 1370 c-3 -6 -18 -7 -33 -4 -21 4 -24 3 -12 -5 16 -12 90 -12
90 0 0 4 -7 10 -16 13 -21 8 -22 8 -29 -4z"/>
<path d="M4018 1363 c7 -3 16 -2 19 1 4 3 -2 6 -13 5 -11 0 -14 -3 -6 -6z"/>
<path d="M5930 1366 c0 -2 14 -6 30 -8 17 -3 30 -1 30 4 0 4 -13 8 -30 8 -16
0 -30 -2 -30 -4z"/>
<path d="M1080 1330 c0 -5 9 -10 20 -10 11 0 20 5 20 10 0 6 -9 10 -20 10 -11
0 -20 -4 -20 -10z"/>
<path d="M1136 1328 c7 -12 44 -10 44 2 0 5 -11 9 -24 8 -14 -1 -22 -6 -20
-10z"/>
<path d="M8118 1283 c6 -2 18 -2 25 0 6 3 1 5 -13 5 -14 0 -19 -2 -12 -5z"/>
<path d="M0 895 c0 -9 9 -15 21 -15 18 0 19 2 9 15 -7 8 -16 15 -21 15 -5 0
-9 -7 -9 -15z"/>
<path d="M6211 134 c-7 -17 -17 -24 -26 -20 -8 3 -15 1 -15 -4 0 -6 16 -10 36
-10 28 0 35 3 30 15 -3 8 -1 15 4 15 5 0 7 7 4 15 -9 22 -19 18 -33 -11z"/>
<path d="M6400 150 c-8 -5 -18 -6 -23 -3 -5 3 -33 2 -63 -2 -45 -5 -53 -9 -51
-25 4 -25 17 -38 17 -17 0 18 18 24 78 26 26 1 42 -3 42 -10 0 -6 -9 -9 -20
-6 -25 7 -26 -10 -1 -18 10 -3 68 -6 129 -7 61 -2 109 -5 107 -8 -2 -3 60 -7
138 -8 222 -4 292 -8 304 -15 6 -4 39 -7 74 -6 71 0 286 -17 337 -27 17 -4 32
-10 32 -15 0 -5 19 -9 43 -8 44 0 134 16 105 18 -29 2 -87 41 -82 55 7 17 -36
29 -52 15 -9 -7 -42 -7 -106 0 -51 6 -113 13 -138 16 -59 6 -400 17 -468 15
-30 0 -60 4 -68 11 -10 8 -14 8 -14 0 0 -7 -16 -9 -46 -5 -31 3 -44 2 -39 -5
3 -6 26 -11 51 -11 24 0 44 -4 44 -10 0 -11 -254 -2 -285 11 -12 5 20 8 79 8
55 1 97 3 95 6 -3 2 -42 7 -86 9 -45 2 -90 9 -100 14 -11 6 -25 7 -33 2z m493
-49 c16 0 26 -5 23 -10 -3 -4 -29 -4 -57 0 -58 9 -80 21 -28 15 19 -2 47 -4
62 -5z m137 -11 c0 -5 -11 -10 -24 -10 -14 0 -28 5 -31 10 -4 6 7 10 24 10 17
0 31 -4 31 -10z m30 0 c0 -5 -2 -10 -4 -10 -3 0 -8 5 -11 10 -3 6 -1 10 4 10
6 0 11 -4 11 -10z m75 0 c4 -6 -5 -10 -19 -10 -14 0 -26 5 -26 10 0 6 9 10 19
10 11 0 23 -4 26 -10z m100 -10 c3 -5 2 -10 -4 -10 -5 0 -13 5 -16 10 -3 6 -2
10 4 10 5 0 13 -4 16 -10z m48 -7 c-7 -2 -19 -2 -25 0 -7 3 -2 5 12 5 14 0 19
-2 13 -5z m107 -3 c0 -5 -11 -10 -25 -10 -14 0 -25 5 -25 10 0 6 11 10 25 10
14 0 25 -4 25 -10z"/>
<path d="M1338 139 c-2 -6 -30 -11 -66 -11 -44 0 -62 -4 -62 -13 0 -14 30 -25
68 -25 13 0 20 4 17 10 -4 6 6 10 22 10 15 0 38 3 51 6 13 4 22 2 22 -5 0 -7
-3 -10 -7 -8 -5 3 -17 1 -28 -4 -15 -6 -10 -7 20 -7 58 0 167 15 128 17 -18 0
-33 6 -33 11 0 6 -9 10 -21 10 -11 0 -17 5 -14 10 4 6 -7 9 -27 9 -23 -1 -26
-3 -10 -6 12 -2 22 -9 22 -15 0 -6 -10 -8 -22 -4 -13 3 -27 6 -31 6 -5 0 -5 5
-2 10 3 6 0 10 -9 10 -8 0 -16 -5 -18 -11z m-81 -25 c-3 -3 -12 -4 -19 -1 -8
3 -5 6 6 6 11 1 17 -2 13 -5z"/>
<path d="M1734 128 c-3 -4 -1 -8 5 -8 5 0 16 -7 24 -15 13 -12 15 -11 13 10
-1 16 -7 23 -19 22 -10 -1 -21 -5 -23 -9z"/>
<path d="M20 115 c0 -11 12 -15 53 -16 28 0 78 -2 110 -4 50 -3 58 -1 55 13
-3 14 -20 17 -111 20 -91 2 -107 0 -107 -13z"/>
<path d="M300 121 c0 -6 4 -11 10 -11 5 0 7 -6 4 -14 -4 -11 10 -14 67 -15 60
-1 70 1 60 13 -9 11 -9 15 1 19 7 3 0 5 -17 5 -16 -1 -51 2 -77 7 -33 5 -48 4
-48 -4z"/>
<path d="M960 115 c0 -8 5 -15 10 -15 6 0 10 7 10 15 0 8 -4 15 -10 15 -5 0
-10 -7 -10 -15z"/>
<path d="M1144 110 c0 -11 6 -20 12 -20 7 0 10 8 7 20 -3 11 -8 20 -12 20 -4
0 -7 -9 -7 -20z"/>
<path d="M1560 120 c11 -7 11 -10 2 -10 -7 0 -11 -4 -7 -10 3 -5 12 -7 20 -4
18 7 8 34 -14 34 -14 0 -14 -2 -1 -10z"/>
<path d="M6020 115 c0 -7 14 -12 30 -13 17 0 30 3 30 8 0 4 -13 10 -30 12 -19
3 -30 0 -30 -7z"/>
<path d="M1100 109 c0 -5 5 -7 10 -4 6 3 10 8 10 11 0 2 -4 4 -10 4 -5 0 -10
-5 -10 -11z"/>
<path d="M4240 108 c0 -11 12 -10 30 2 12 7 10 9 -8 7 -12 0 -22 -5 -22 -9z"/>
<path d="M4750 109 c0 -5 5 -7 10 -4 6 3 10 2 10 -4 0 -6 7 -8 15 -5 23 9 18
19 -10 22 -14 1 -25 -3 -25 -9z"/>
<path d="M1635 100 c3 -5 8 -10 11 -10 2 0 4 5 4 10 0 6 -5 10 -11 10 -5 0 -7
-4 -4 -10z"/>
<path d="M1664 99 c-6 -10 62 -16 83 -8 20 8 16 9 -45 12 -19 1 -36 -1 -38 -4z"/>
<path d="M3200 101 c0 -11 59 -20 65 -11 3 4 2 10 -2 14 -10 9 -63 7 -63 -3z"/>
<path d="M900 90 c0 -5 14 -10 30 -10 17 0 30 5 30 10 0 6 -13 10 -30 10 -16
0 -30 -4 -30 -10z"/>
<path d="M2446 88 c3 -4 -13 -8 -35 -8 -22 0 -42 -4 -46 -9 -3 -6 26 -9 69 -9
46 1 77 6 80 13 2 7 -7 10 -28 7 -23 -2 -27 -1 -16 7 12 8 11 10 -7 8 -12 0
-19 -5 -17 -9z"/>
<path d="M4296 81 c-18 -20 -18 -20 14 -16 18 2 36 9 40 15 5 8 13 4 24 -11
13 -19 16 -20 16 -6 0 9 5 17 10 17 6 0 10 -5 10 -10 0 -6 6 -5 14 2 8 7 13
14 11 16 -1 1 -29 5 -61 8 -51 5 -62 3 -78 -15z"/>
<path d="M4593 92 c-13 -2 -23 -8 -23 -13 0 -13 37 -11 45 2 9 14 5 16 -22 11z"/>
<path d="M4830 90 c0 -5 5 -10 11 -10 5 0 7 5 4 10 -3 6 -8 10 -11 10 -2 0 -4
-4 -4 -10z"/>
<path d="M5215 93 c11 -3 25 -9 31 -14 6 -5 14 -6 17 -2 14 13 6 19 -30 20
-21 1 -29 -1 -18 -4z"/>
<path d="M5895 90 c-3 -5 -1 -10 4 -10 6 0 11 5 11 10 0 6 -2 10 -4 10 -3 0
-8 -4 -11 -10z"/>
<path d="M858 83 c7 -3 16 -2 19 1 4 3 -2 6 -13 5 -11 0 -14 -3 -6 -6z"/>
<path d="M1925 80 c-3 -5 5 -6 17 -2 14 3 19 2 14 -6 -5 -8 2 -12 18 -12 14 0
26 5 26 10 0 7 7 7 20 0 21 -11 44 -5 35 10 -6 10 -124 10 -130 0z"/>
<path d="M2070 78 c0 -4 8 -7 18 -6 9 0 70 -3 135 -7 96 -5 117 -4 117 7 0 11
-27 14 -135 13 -74 0 -135 -3 -135 -7z"/>
<path d="M2670 83 c0 -5 -23 -8 -51 -8 -28 0 -56 -3 -62 -7 -14 -9 -22 -8 125
-14 94 -4 107 -3 102 11 -7 16 -44 21 -44 5 0 -14 -16 -13 -32 3 -16 14 -38
20 -38 10z"/>
<path d="M3315 80 c-3 -6 1 -7 9 -4 18 7 21 14 7 14 -6 0 -13 -4 -16 -10z"/>
<path d="M4640 80 c-12 -8 -10 -10 8 -10 13 0 20 4 17 10 -7 12 -6 12 -25 0z"/>
<path d="M5338 83 c7 -3 16 -2 19 1 4 3 -2 6 -13 5 -11 0 -14 -3 -6 -6z"/>
<path d="M83 73 c15 -9 6 -21 -19 -27 -15 -4 -24 -9 -21 -12 7 -8 77 18 77 28
0 4 -4 8 -9 8 -5 0 -15 2 -23 3 -7 2 -10 2 -5 0z"/>
<path d="M1708 63 c7 -3 16 -2 19 1 4 3 -2 6 -13 5 -11 0 -14 -3 -6 -6z"/>
<path d="M715 50 c-3 -5 1 -10 9 -10 9 0 16 5 16 10 0 6 -4 10 -9 10 -6 0 -13
-4 -16 -10z"/>
<path d="M3205 50 c-3 -5 -1 -10 4 -10 6 0 11 5 11 10 0 6 -2 10 -4 10 -3 0
-8 -4 -11 -10z"/>
<path d="M3240 50 c0 -5 5 -10 11 -10 5 0 7 5 4 10 -3 6 -8 10 -11 10 -2 0 -4
-4 -4 -10z"/>
<path d="M4560 50 c0 -13 18 -22 24 -11 3 5 -1 11 -9 15 -8 3 -15 1 -15 -4z"/>
<path d="M3318 43 c6 -2 18 -2 25 0 6 3 1 5 -13 5 -14 0 -19 -2 -12 -5z"/>
<path d="M3550 40 c0 -5 12 -10 28 -10 21 0 24 2 12 10 -20 13 -40 13 -40 0z"/>
<path d="M3740 36 c0 -9 5 -16 10 -16 6 0 10 4 10 9 0 6 -4 13 -10 16 -5 3
-10 -1 -10 -9z"/>
<path d="M3478 33 c7 -3 16 -2 19 1 4 3 -2 6 -13 5 -11 0 -14 -3 -6 -6z"/>
<path d="M3660 30 c0 -5 7 -7 15 -4 8 4 15 8 15 10 0 2 -7 4 -15 4 -8 0 -15
-4 -15 -10z"/>
<path d="M3826 31 c-24 -5 -27 -8 -15 -18 11 -9 18 -8 33 3 24 17 19 22 -18
15z"/>
<path d="M4945 29 c-4 -6 -4 -13 -1 -16 3 -4 6 -1 6 6 0 7 5 9 12 5 7 -4 8 -3
4 4 -9 15 -13 15 -21 1z"/>
<path d="M3065 20 c-3 -6 2 -13 11 -17 10 -4 19 -2 22 5 3 9 9 9 23 2 11 -6
19 -7 19 -2 0 18 -65 28 -75 12z"/>
<path d="M3925 20 c3 -5 14 -10 23 -10 15 0 15 2 2 10 -20 13 -33 13 -25 0z"/>
<path d="M4055 20 c-24 -5 -15 -7 40 -13 93 -9 255 -9 255 1 0 4 -37 8 -83 8
-45 1 -104 4 -132 6 -27 3 -63 2 -80 -2z"/>
<path d="M7724 15 c10 -8 23 -12 29 -8 11 7 -12 23 -33 23 -12 -1 -11 -4 4
-15z"/>
<path d="M4360 9 c0 -5 9 -9 20 -9 11 0 20 2 20 4 0 2 -9 6 -20 9 -11 3 -20 1
-20 -4z"/>
<path d="M4498 3 c6 -2 18 -2 25 0 6 3 1 5 -13 5 -14 0 -19 -2 -12 -5z"/>
</g>
</svg>
