<?xml version="1.0" standalone="no"?>
<!DOCTYPE svg PUBLIC "-//W3C//DTD SVG 20010904//EN"
 "http://www.w3.org/TR/2001/REC-SVG-20010904/DTD/svg10.dtd">
<svg version="1.0" xmlns="http://www.w3.org/2000/svg"
 width="737.000000pt" height="173.000000pt" viewBox="0 0 737.000000 173.000000"
 preserveAspectRatio="xMidYMid meet">

<g transform="translate(0.000000,173.000000) scale(0.100000,-0.100000)"
fill="pink" stroke="none">
<path d="M6400 1720 c13 -8 12 -10 -2 -10 -10 0 -18 -4 -18 -8 0 -4 -9 -8 -20
-8 -11 0 -20 4 -20 8 0 18 -18 6 -24 -15 -5 -20 -10 -22 -46 -19 -25 3 -40 0
-40 -7 0 -6 3 -10 8 -10 4 1 20 1 36 0 l29 -1 -24 -21 c-22 -19 -24 -19 -30
-3 -5 16 -7 16 -15 2 -5 -8 -26 -17 -46 -20 -20 -2 -34 0 -32 4 3 4 0 8 -5 8
-6 0 -11 -4 -11 -10 0 -5 -7 -10 -16 -10 -8 0 -13 4 -10 9 3 4 -8 8 -23 7 -16
-1 -27 -4 -24 -8 2 -5 -1 -8 -6 -8 -6 0 -11 8 -11 18 -1 15 -2 15 -13 1 -7 -9
-19 -16 -28 -16 -18 0 -21 26 -5 46 9 12 7 13 -9 7 -31 -12 -33 -12 -36 -2 -2
5 8 13 23 17 21 5 30 3 38 -9 8 -15 9 -14 10 6 0 13 -4 20 -10 17 -5 -3 -10
-1 -10 6 0 8 -4 8 -13 1 -7 -6 -25 -9 -40 -8 -15 2 -28 -2 -28 -8 -1 -6 -2
-15 -4 -21 -1 -5 -3 -16 -3 -24 -2 -19 -52 26 -52 46 0 8 -5 11 -10 8 -6 -4
-8 -11 -5 -16 4 -5 -2 -9 -12 -9 -15 0 -16 -2 -3 -10 12 -8 9 -10 -12 -10 -16
0 -28 -4 -28 -9 0 -10 -19 -9 -37 2 -6 4 -13 2 -15 -4 -2 -7 -35 -12 -83 -14
-44 -1 -88 -5 -97 -10 -12 -4 -18 -3 -18 5 0 8 -11 11 -30 8 -21 -3 -30 0 -30
9 0 12 -4 11 -22 -1 -12 -9 -30 -16 -40 -16 -13 0 -18 -8 -18 -27 0 -26 -1
-26 -15 -7 -15 18 -15 18 -13 0 2 -12 -6 -22 -22 -28 -13 -5 -21 -5 -17 -1 5
4 -7 13 -25 19 -19 6 -32 18 -32 26 1 14 -22 17 -67 9 -4 -1 -9 -10 -12 -22
-6 -22 -44 -23 -40 -1 5 20 -38 14 -44 -7 -5 -19 -37 -19 -49 0 -3 5 3 6 13 2
16 -6 16 -5 4 10 -7 9 -17 14 -22 11 -15 -9 -10 8 7 27 18 20 16 42 -4 30 -7
-4 -14 -25 -16 -46 -2 -26 -9 -39 -20 -41 -9 -1 -16 4 -16 12 0 8 -7 14 -15
14 -8 0 -15 -4 -15 -9 0 -5 -9 -7 -20 -4 -11 3 -20 14 -20 24 0 14 7 19 28 19
43 0 72 11 72 27 0 8 -5 11 -10 8 -6 -4 -18 -1 -27 7 -10 7 -14 8 -10 1 10
-16 -14 -22 -41 -10 -16 8 -26 7 -35 -3 -9 -10 -9 -13 1 -17 20 -8 13 -33 -13
-45 -14 -6 -25 -14 -25 -18 0 -4 -25 -3 -57 2 -37 6 -60 5 -67 -2 -14 -14 -29
-13 -20 2 4 7 3 8 -5 4 -17 -11 -61 -15 -61 -6 0 4 -19 4 -42 -2 -29 -6 -44
-6 -46 1 -3 8 -10 8 -23 1 -10 -6 -19 -7 -19 -2 0 4 -19 8 -42 7 -24 0 -50 4
-58 10 -22 17 -50 26 -50 15 0 -5 8 -10 18 -12 9 -3 0 -6 -20 -9 -29 -4 -35
-2 -26 8 8 10 6 13 -6 13 -9 0 -16 -6 -16 -13 0 -7 -9 -13 -20 -14 -11 -1 -18
2 -15 6 2 5 -2 14 -10 21 -13 11 -14 10 -9 -4 4 -11 1 -16 -10 -16 -9 0 -16
-6 -17 -12 0 -7 -7 1 -15 17 l-15 30 4 -27 c4 -30 0 -33 -22 -19 -7 5 -10 15
-6 22 3 8 -5 2 -18 -13 -25 -27 -25 -27 -31 -5 -5 18 -8 20 -16 7 -8 -12 -10
-11 -10 8 0 16 -6 22 -22 22 -18 0 -20 -2 -8 -10 12 -8 12 -10 -3 -16 -9 -3
-17 -14 -17 -23 -1 -14 -2 -14 -11 2 -6 10 -8 24 -6 31 5 13 -27 15 -39 3 -12
-12 -26 -8 -19 6 4 6 -1 3 -9 -7 -9 -11 -16 -14 -16 -8 0 7 -6 12 -14 12 -7 0
-16 9 -19 21 -6 22 -28 22 -35 1 -2 -8 3 -10 14 -5 34 13 3 -17 -34 -33 -27
-11 -47 -12 -78 -6 -23 5 -53 8 -68 6 -14 -1 -26 2 -26 7 0 5 6 9 14 9 8 0 17
4 20 8 3 5 -9 8 -27 8 -25 -1 -32 3 -31 16 1 10 -2 15 -7 12 -5 -3 -9 -11 -9
-19 0 -16 -112 -13 -118 4 -2 6 -22 10 -45 10 -23 -1 -34 -3 -24 -6 27 -7 20
-18 -13 -20 -18 -1 -28 2 -25 7 7 11 -35 31 -47 23 -17 -9 -7 -24 12 -18 11 4
20 2 20 -4 0 -6 -13 -11 -30 -11 -21 0 -30 5 -30 16 0 9 -6 14 -12 11 -7 -2
-12 -11 -11 -19 2 -11 -14 -14 -83 -15 -47 -1 -83 1 -79 5 3 3 -11 11 -32 17
-36 11 -45 9 -93 -15 -18 -9 -20 -8 -16 15 5 28 -5 33 -24 10 -9 -10 -9 -15
-1 -15 6 0 11 -5 11 -10 0 -13 -30 -9 -46 5 -6 5 -9 16 -7 23 4 9 -1 10 -20 3
-18 -7 -27 -7 -31 2 -3 8 -5 8 -5 -2 -1 -8 -9 -20 -18 -27 -15 -10 -21 -10
-35 3 -18 16 -54 10 -43 -7 3 -5 -1 -10 -9 -10 -10 0 -13 6 -9 17 5 12 3 14
-8 7 -24 -15 -49 -15 -55 1 -4 8 -14 15 -23 14 -10 0 -11 -2 -3 -6 19 -8 14
-23 -8 -23 -11 0 -19 6 -17 13 1 7 -6 11 -18 9 -68 -12 -107 -13 -120 -2 -16
13 -55 4 -55 -13 0 -6 -7 -2 -15 9 -8 10 -15 14 -15 8 0 -6 -22 -11 -50 -12
-36 -1 -49 3 -45 11 4 7 0 4 -8 -6 -11 -13 -20 -15 -39 -8 -27 10 -157 6 -217
-8 -22 -5 -42 -6 -45 -3 -5 5 -50 11 -86 12 -8 0 -41 -3 -73 -8 -44 -6 -60 -5
-69 5 -12 15 -32 18 -23 3 3 -5 1 -10 -4 -10 -6 0 -11 7 -11 15 0 19 -14 19
-29 1 -9 -11 -6 -15 14 -20 14 -4 25 -11 25 -17 0 -6 -5 -7 -10 -4 -6 4 -26 1
-45 -5 -44 -14 -70 -7 -31 9 l29 12 -21 19 c-22 21 -33 25 -31 13 3 -21 -3
-29 -21 -29 -12 0 -19 5 -16 12 3 7 -2 15 -10 18 -8 3 -14 -1 -14 -9 0 -8 -13
-15 -32 -17 -20 -2 -32 -8 -31 -15 3 -12 -9 -17 -29 -14 -5 0 -8 -4 -8 -9 0
-14 -27 -12 -34 2 -5 10 -7 10 -12 1 -6 -14 -54 -18 -54 -5 0 5 -17 13 -38 18
-22 5 -37 15 -37 24 0 9 -10 16 -25 16 -14 1 -35 4 -47 7 -19 5 -33 -8 -37
-34 -2 -13 -41 -59 -51 -59 -6 0 -22 13 -35 28 -23 26 -52 33 -67 18 -10 -9
18 -35 31 -30 8 3 16 -2 19 -10 8 -21 -12 -20 -41 0 -13 9 -26 13 -29 10 -4
-3 -2 -6 4 -6 6 0 9 -8 6 -18 -3 -14 -11 -17 -36 -14 -18 3 -37 12 -43 20 -9
13 -12 13 -17 -3 -4 -10 -13 -15 -22 -11 -8 3 -21 -4 -29 -15 -10 -14 -15 -16
-18 -7 -3 7 -19 13 -37 14 -48 3 -60 19 -32 45 32 30 10 41 -60 30 -30 -5 -57
-7 -62 -4 -4 2 -7 -3 -7 -12 0 -12 6 -15 19 -10 11 3 22 1 26 -5 3 -5 0 -10
-7 -10 -9 0 -9 -3 2 -10 13 -8 12 -10 -2 -10 -10 0 -18 5 -18 12 0 6 -8 1 -19
-11 -11 -13 -25 -19 -35 -15 -9 3 -23 1 -31 -6 -9 -7 -15 -8 -15 -2 0 14 -31
20 -55 12 -11 -4 -26 -3 -32 2 -7 6 -22 8 -34 5 -16 -4 -19 -2 -14 11 3 9 -5
4 -19 -11 -16 -17 -23 -33 -19 -44 5 -13 2 -15 -12 -10 -9 4 -24 2 -31 -4 -10
-8 -14 -8 -14 0 0 6 -13 11 -28 11 -20 0 -33 7 -41 23 -6 12 -10 14 -7 5 3 -9
-1 -18 -7 -21 -21 -7 -37 4 -37 28 0 24 -37 39 -61 24 -8 -5 -2 -9 16 -11 18
-2 29 -9 31 -21 1 -11 5 -21 8 -24 8 -9 -23 -35 -34 -28 -5 3 -10 17 -10 30 0
18 -4 23 -15 19 -8 -4 -12 -11 -8 -17 4 -6 0 -8 -10 -4 -9 3 -21 -1 -29 -11
-8 -10 -9 -13 -1 -9 7 4 29 -2 50 -13 21 -11 32 -20 25 -20 -10 0 -10 -4 0
-20 7 -11 16 -20 21 -20 4 0 6 3 3 8 -2 4 9 15 25 24 29 17 30 17 41 -7 13
-30 10 -34 -35 -45 -40 -9 -69 4 -60 26 5 14 3 15 -15 5 -15 -8 -22 -8 -22 -1
0 5 -7 10 -15 10 -12 0 -13 -4 -6 -18 12 -22 -20 -46 -49 -37 -10 3 -22 0 -26
-6 -5 -8 -3 -9 6 -4 9 5 11 4 6 -3 -4 -7 -18 -12 -32 -12 -13 0 -24 -4 -24 -9
0 -15 18 -23 25 -11 10 16 45 12 45 -6 0 -8 4 -13 8 -10 4 2 14 0 22 -5 12 -8
12 -12 3 -16 -7 -2 -13 -18 -13 -34 0 -16 -4 -29 -10 -29 -5 0 -10 -4 -10 -10
0 -5 6 -7 14 -4 7 3 21 -3 30 -12 14 -14 15 -19 4 -25 -10 -7 -10 -9 2 -9 11
0 9 -4 -5 -12 -38 -21 -56 -41 -44 -49 6 -4 8 -12 5 -18 -10 -16 -46 -14 -52
3 -3 8 -12 12 -20 9 -12 -4 -14 0 -8 23 l7 28 -25 -25 c-14 -13 -21 -27 -15
-30 16 -11 0 -26 -25 -24 -21 2 -37 -10 -38 -26 0 -3 11 -4 25 -1 20 3 25 0
25 -15 0 -10 -4 -23 -10 -29 -5 -5 -13 -32 -17 -59 -6 -46 -5 -49 10 -36 10 7
17 18 17 23 0 15 43 47 62 48 9 0 20 -5 23 -10 4 -6 11 -8 16 -5 5 4 18 3 30
0 16 -5 18 -10 8 -21 -6 -8 -8 -14 -5 -14 4 0 0 -7 -8 -16 -17 -17 -12 -39 6
-28 7 5 8 2 3 -6 -10 -17 16 -32 32 -18 10 8 13 6 13 -6 0 -9 -4 -16 -10 -16
-5 0 -10 -8 -10 -17 -1 -17 -1 -17 -14 0 -24 31 -28 18 -5 -15 19 -27 20 -31
5 -25 -10 4 -24 1 -32 -8 -9 -8 -12 -15 -7 -15 4 0 1 -5 -7 -10 -12 -8 -9 -10
14 -10 21 0 27 4 22 15 -4 11 2 15 24 15 23 0 30 -4 30 -20 0 -11 6 -20 13
-20 9 0 8 -3 -2 -9 -7 -5 -21 -6 -31 -4 -11 3 -19 -2 -23 -17 -5 -19 -3 -21
25 -15 28 7 30 5 24 -16 -3 -13 -3 -18 0 -12 7 15 34 17 34 3 0 -5 11 -12 25
-16 37 -9 31 -24 -10 -24 -28 0 -33 -3 -28 -17 4 -10 2 -14 -4 -10 -6 4 -19
-1 -30 -11 -10 -9 -17 -16 -15 -15 2 1 13 -7 24 -17 15 -14 19 -28 16 -58 -2
-30 1 -43 14 -51 22 -14 23 -31 3 -31 -8 0 -15 6 -15 13 0 8 -3 8 -8 1 -4 -6
-15 -13 -24 -17 -31 -11 -20 -26 12 -17 30 9 38 2 20 -16 -7 -7 -3 -17 10 -32
11 -11 20 -26 20 -31 0 -5 5 -13 12 -17 8 -5 9 -2 5 9 -3 9 -2 19 4 22 5 4 8
1 7 -7 -2 -8 7 -13 24 -13 14 0 29 -3 33 -7 10 -10 35 17 35 37 0 12 5 15 16
11 9 -3 20 -6 25 -6 5 0 9 -4 9 -10 0 -5 -9 -10 -20 -10 -11 0 -20 -4 -20 -10
0 -5 6 -7 14 -4 10 4 12 -2 9 -20 -5 -26 11 -37 20 -13 3 6 6 2 6 -10 1 -23
-13 -31 -24 -13 -3 5 -13 6 -21 3 -13 -5 -15 -1 -10 18 6 21 6 22 -5 6 -7 -13
-8 -22 -1 -29 6 -6 8 -17 5 -24 -3 -8 1 -14 11 -14 12 0 16 -10 16 -35 0 -41
25 -49 40 -12 5 12 9 17 9 10 1 -6 10 -10 21 -8 13 2 20 -2 20 -11 0 -8 7 -14
15 -14 8 0 15 -9 15 -20 0 -27 -10 -25 -40 6 -13 15 -26 21 -28 15 -2 -6 -12
-11 -22 -11 -10 0 -21 -7 -24 -16 -5 -14 -4 -15 9 -4 12 10 15 10 15 -4 0 -9
-4 -16 -10 -16 -5 0 -10 -9 -10 -21 0 -13 6 -20 18 -18 32 3 42 -1 42 -16 0
-13 13 -15 75 -13 52 2 75 7 75 16 0 15 61 7 71 -10 4 -7 9 -7 13 1 4 6 -1 14
-11 18 -31 11 -74 51 -62 58 7 5 4 13 -7 26 -14 15 -14 19 -3 19 8 0 22 -9 32
-20 18 -21 18 -21 44 10 24 29 27 30 44 14 10 -9 15 -22 12 -30 -3 -9 2 -14
15 -14 15 0 18 5 15 23 -4 19 -1 23 16 22 28 -2 38 -14 21 -25 -8 -5 -11 -12
-7 -16 3 -4 14 -1 23 7 14 11 18 11 28 -2 13 -18 48 -21 58 -5 4 7 14 4 27 -8
19 -17 21 -17 27 -2 8 21 34 21 34 -1 0 -16 -2 -16 -11 -3 -8 12 -9 11 -7 -5
3 -15 10 -19 31 -17 32 3 33 -2 8 -27 -13 -13 -21 -15 -24 -8 -2 6 -6 4 -10
-6 -5 -13 -1 -17 18 -17 13 0 27 5 30 10 4 6 11 8 16 4 6 -3 7 5 4 23 -5 19
-4 24 3 15 5 -8 11 -13 13 -12 2 1 17 -4 33 -10 21 -8 32 -7 43 1 11 10 11 14
1 20 -13 9 18 14 51 9 8 -1 20 6 27 15 7 9 15 12 18 7 3 -5 27 -6 58 0 29 4
64 5 78 2 26 -7 132 -13 113 -7 -15 5 -4 43 13 43 8 0 17 -7 20 -15 4 -8 12
-15 20 -15 7 0 11 6 8 13 -3 8 2 20 11 27 13 10 15 9 15 -8 0 -26 16 -37 24
-17 8 21 34 19 39 -2 4 -17 5 -17 6 0 0 9 6 17 11 17 6 0 10 -8 8 -17 -4 -25
42 -30 59 -7 12 17 14 17 28 -2 8 -11 15 -14 15 -6 0 13 40 17 40 3 0 -12 52
0 68 16 12 11 9 15 -17 24 -17 6 -36 20 -41 30 -10 17 -7 18 22 12 29 -6 31
-4 20 9 -11 13 -9 16 13 20 29 6 31 1 10 -29 -14 -19 -13 -21 5 -16 10 3 20
15 22 27 2 15 12 23 38 27 21 4 26 7 13 8 -13 0 -23 6 -23 11 0 15 57 12 63
-4 3 -8 19 -17 36 -21 17 -4 31 -12 31 -18 0 -7 7 -3 15 7 8 11 15 16 15 10 0
-5 5 -2 10 6 7 11 10 12 10 2 0 -10 22 -13 95 -11 52 2 95 6 95 11 0 4 20 8
45 8 25 0 45 -4 45 -10 0 -5 -4 -10 -9 -10 -5 0 -11 -6 -14 -14 -4 -11 -1 -11
19 -2 13 6 24 18 24 27 0 13 10 17 43 17 108 0 207 5 207 11 0 8 50 14 123 14
31 0 57 5 57 10 0 5 6 7 13 4 15 -5 47 30 47 52 0 12 11 16 48 17 26 0 50 -4
54 -10 8 -13 -11 -38 -23 -30 -5 3 -9 1 -9 -4 0 -6 6 -12 13 -15 9 -3 19 7 27
29 10 24 18 33 30 29 11 -3 21 3 29 17 6 13 10 16 8 8 -6 -24 16 -40 29 -22 9
13 12 12 17 -7 3 -11 1 -21 -4 -21 -5 0 -9 -5 -9 -11 0 -8 5 -8 15 1 8 7 12
16 9 21 -3 5 1 15 8 22 14 14 61 30 54 18 -3 -4 -1 -13 5 -21 6 -10 9 -11 9
-2 0 6 11 12 25 12 22 0 24 -3 15 -19 -13 -25 -13 -41 0 -41 6 0 10 10 10 22
0 12 8 30 17 40 15 17 15 21 3 29 -13 8 -12 12 4 24 18 14 18 15 2 15 -9 0
-15 4 -12 8 8 14 106 14 106 1 0 -7 -9 -9 -21 -6 -16 4 -18 3 -9 -8 6 -7 8
-20 4 -29 -4 -9 0 -18 9 -22 9 -3 13 -13 10 -25 -4 -13 0 -19 12 -19 12 0 16
6 12 20 -5 21 19 35 46 25 8 -4 18 -2 22 4 6 11 -5 14 -42 11 -15 -1 -23 4
-23 14 0 10 9 16 26 16 17 0 23 4 18 13 -5 8 -3 8 9 -2 16 -13 54 -12 90 4 12
5 17 3 17 -9 0 -9 5 -16 10 -16 6 0 10 7 10 16 0 10 5 14 15 10 9 -3 18 1 21
9 8 20 21 19 28 -3 4 -12 15 -17 33 -16 16 1 34 3 41 3 7 1 10 6 7 11 -3 6 1
10 10 10 9 0 13 -4 10 -10 -4 -6 6 -10 24 -10 16 0 32 4 35 9 9 14 55 1 50
-14 -3 -7 -1 -16 5 -20 6 -3 11 -2 11 2 0 11 68 4 76 -8 3 -5 0 -9 -5 -9 -6 0
-11 -4 -11 -10 0 -5 7 -10 16 -10 10 0 14 -6 10 -15 -4 -10 1 -15 16 -15 17 0
18 2 8 15 -11 13 -10 14 3 9 8 -3 18 -12 21 -20 5 -14 27 -20 25 -7 -1 5 2 22
6 39 6 26 12 30 42 32 22 2 32 -1 28 -8 -3 -5 1 -13 11 -17 15 -6 14 -7 -6
-15 -15 -5 -28 -4 -37 4 -11 9 -16 9 -24 -3 -6 -10 -2 -16 16 -23 21 -8 25
-17 25 -48 0 -21 4 -38 9 -38 5 0 7 8 4 19 -3 10 0 22 6 25 6 4 11 1 11 -6 0
-9 3 -9 10 2 6 10 10 11 10 3 0 -21 14 -14 27 12 6 14 7 25 2 25 -5 0 -9 5 -9
10 0 15 24 7 32 -10 5 -12 7 -12 7 3 1 10 9 17 21 17 11 0 20 4 20 10 0 16 30
-1 31 -19 0 -10 4 -8 12 9 13 28 37 56 37 43 1 -4 10 -19 20 -32 18 -21 22
-22 43 -9 44 28 84 20 78 -14 0 -5 3 -8 9 -8 5 0 10 5 10 11 0 5 5 7 11 3 8
-5 10 1 7 19 -4 19 0 27 13 30 12 3 16 0 12 -9 -4 -10 0 -12 11 -8 9 3 16 12
16 20 0 19 5 18 33 -9 12 -13 21 -29 19 -35 -2 -7 1 -12 7 -12 6 0 11 8 11 18
0 11 3 13 8 6 8 -12 52 -1 52 13 0 4 21 9 47 10 32 1 42 -1 32 -8 -7 -5 -10
-9 -5 -9 5 0 3 -7 -4 -15 -9 -10 -9 -15 -1 -15 6 0 11 -7 11 -15 0 -8 -8 -15
-17 -15 -10 0 -24 -4 -32 -9 -9 -6 -2 -10 23 -13 28 -3 35 -1 31 9 -2 8 2 16
10 19 8 4 12 10 9 15 -3 5 2 9 11 9 9 0 14 -4 10 -10 -3 -5 9 -8 29 -6 29 2
33 0 24 -12 -7 -7 -22 -12 -34 -9 -13 2 -29 0 -36 -5 -10 -8 -9 -9 3 -5 9 3
29 -5 45 -18 22 -18 34 -21 52 -14 14 6 31 5 42 -1 15 -8 20 -6 25 10 3 11 15
20 26 20 10 0 19 5 19 11 0 7 11 4 27 -6 26 -18 27 -17 41 3 17 26 35 28 52 7
7 -8 16 -12 21 -10 4 3 12 -2 17 -12 9 -14 13 -15 26 -4 9 7 14 16 12 20 -2 3
5 14 15 25 18 18 18 18 13 -8 -4 -24 -2 -26 27 -24 17 1 32 5 35 9 8 13 44 -3
44 -20 0 -9 5 -23 11 -31 8 -12 9 -12 7 5 -2 11 2 20 7 21 6 0 18 4 28 9 15 6
16 10 5 17 -10 7 -10 11 0 15 6 2 12 11 12 19 0 8 5 14 10 14 6 0 10 -12 10
-27 0 -21 3 -24 9 -14 16 25 49 22 76 -5 25 -25 27 -25 51 -9 24 16 26 15 40
-2 7 -10 14 -21 14 -25 0 -15 30 -8 30 7 0 8 -4 15 -10 15 -5 0 -10 10 -10 23
1 19 2 20 13 6 7 -9 18 -14 25 -12 15 6 16 -9 1 -24 -8 -8 -4 -11 14 -10 18 2
22 5 16 14 -12 14 6 27 40 27 13 1 26 7 28 14 3 8 -1 10 -13 5 -16 -6 -17 -5
-4 9 13 14 16 14 27 -1 12 -15 13 -15 7 1 -4 13 -1 15 16 11 11 -3 19 -8 16
-11 -3 -2 0 -14 5 -25 8 -15 8 -22 -2 -28 -14 -9 1 -12 64 -13 15 0 27 -3 27
-6 0 -4 12 -13 28 -20 15 -7 22 -15 15 -17 -7 -3 -13 -11 -13 -18 0 -8 -7 -11
-20 -8 -16 4 -20 1 -19 -18 1 -18 3 -19 6 -6 3 12 10 16 24 12 11 -4 19 -2 19
4 0 6 9 20 20 31 18 18 18 20 3 20 -11 0 -14 3 -7 10 5 5 21 10 34 10 41 1
182 -9 225 -15 22 -3 49 -7 59 -8 10 -1 24 -11 30 -22 14 -25 28 -35 39 -28 4
3 8 -1 6 -8 -4 -30 2 -39 26 -39 16 0 25 6 25 15 0 8 5 15 12 15 9 0 9 3 0 12
-18 18 -15 28 8 28 11 0 20 6 20 13 0 6 3 21 6 32 4 17 1 21 -20 20 -13 0 -28
-3 -32 -8 -12 -12 -36 -8 -55 9 -11 10 -19 12 -24 5 -3 -6 1 -11 9 -11 23 0
20 -18 -5 -25 -24 -8 -24 -7 -33 23 -6 16 -3 22 8 22 9 0 18 11 22 25 3 14 10
25 16 25 5 0 7 -4 4 -9 -8 -12 65 -31 97 -24 33 7 36 23 3 23 -18 0 -23 5 -23
25 0 14 3 25 8 25 5 0 9 -5 9 -11 0 -5 4 -8 9 -5 5 3 11 -4 14 -15 4 -13 11
-19 19 -16 47 19 52 18 24 -6 l-29 -26 47 3 c50 3 69 19 60 49 -3 11 0 17 10
17 9 0 16 -6 16 -13 0 -14 31 -47 43 -47 13 0 2 25 -13 31 -11 5 -9 9 10 17
l25 9 -23 7 c-12 4 -22 12 -22 17 0 6 -9 7 -20 4 -16 -5 -20 -2 -20 14 0 22
34 46 50 36 6 -3 10 -2 10 2 0 5 17 7 39 5 41 -4 64 13 40 29 -12 8 -12 11 1
19 11 8 5 10 -23 8 -25 -1 -36 -6 -33 -15 3 -7 1 -15 -4 -18 -6 -4 -10 -2 -10
4 0 6 -7 8 -15 5 -9 -4 -15 0 -15 10 0 9 -7 16 -15 16 -8 0 -15 6 -15 14 0 10
11 13 35 11 28 -1 34 1 30 14 -4 13 3 16 35 15 22 0 40 3 40 8 0 5 10 8 23 6
12 -2 27 1 33 7 8 7 -1 13 -30 20 -46 11 -54 33 -18 46 20 7 25 5 29 -11 4
-15 9 -18 18 -10 7 6 19 8 27 5 8 -3 21 1 28 10 11 14 11 16 -1 13 -8 -2 -14
3 -14 11 0 11 23 15 104 18 84 3 107 7 117 21 11 14 15 15 23 3 6 -9 11 -10
15 -2 4 6 32 11 61 11 43 0 53 3 49 14 -4 10 -15 13 -40 9 -23 -4 -34 -2 -34
7 0 7 -6 10 -14 7 -8 -3 -17 -1 -19 6 -3 9 -7 9 -18 0 -16 -13 -76 -8 -94 7
-9 8 -14 5 -18 -10 -4 -15 -13 -20 -36 -20 -19 0 -34 -6 -37 -15 -7 -17 -54
-21 -54 -5 0 6 9 10 19 10 11 0 23 5 26 10 3 6 15 10 27 10 13 0 18 5 15 14
-3 8 1 17 9 20 8 3 14 12 14 21 0 8 5 15 10 15 6 0 10 -4 10 -9 0 -11 81 -2
94 10 6 5 -4 9 -23 9 -29 0 -32 2 -21 15 7 9 16 12 19 8 9 -12 158 -17 165 -5
3 5 18 8 32 6 15 -1 33 3 40 11 11 11 6 14 -30 19 -23 4 -50 4 -59 0 -11 -4
-19 0 -23 11 -5 12 -9 13 -14 5 -12 -19 -97 -25 -117 -9 -11 9 -14 10 -9 2 4
-7 2 -13 -3 -13 -6 0 -11 6 -11 14 0 8 -6 16 -12 19 -27 10 10 28 60 30 29 1
52 5 52 10 0 4 17 7 39 7 21 0 52 3 69 6 27 5 29 8 17 20 -7 8 -27 14 -44 14
-18 0 -31 5 -31 13 0 17 -37 40 -42 25 -2 -6 -13 -8 -26 -4 -35 12 -26 22 19
21 22 -1 42 3 45 7 3 4 -11 9 -30 9 -20 1 -40 3 -46 4 -5 1 -14 3 -20 4 -5 0
-10 8 -10 17 0 13 14 15 90 13 50 -1 93 1 96 3 2 3 22 3 44 1 24 -3 40 -1 40
5 0 14 -25 21 -77 21 -46 0 -63 6 -63 22 0 6 4 8 9 5 5 -4 12 0 15 6 5 10 7
10 12 1 9 -20 34 -15 34 6 0 11 8 22 18 24 14 4 13 6 -7 13 -23 7 -24 8 -5 15
14 6 9 8 -21 10 -22 1 -48 1 -58 1 -10 -1 -26 6 -35 16 -9 9 -15 16 -13 15 2
-2 10 2 17 7 8 8 16 6 27 -4 13 -13 16 -12 27 9 7 12 22 28 34 33 l21 11 -22
0 c-14 1 -23 7 -23 16 0 18 1 18 34 5 14 -5 28 -5 30 -1 3 5 -9 12 -27 16 -31
6 -31 7 -9 17 23 12 28 23 13 33 -6 3 -14 -3 -20 -12 -9 -16 -12 -16 -21 -3
-7 11 -10 11 -10 2 0 -7 -4 -11 -10 -7 -5 3 -6 13 -3 23 3 9 2 14 -2 10 -5 -5
-14 1 -21 11 -9 13 -21 17 -40 13 -19 -3 -25 -1 -20 7 4 6 1 11 -8 11 -8 0
-16 -5 -18 -11 -5 -14 -78 -3 -78 11 0 18 -30 10 -31 -7 0 -15 -2 -15 -7 -3
-4 8 -20 17 -37 19 -16 1 -34 6 -39 9 -14 8 26 21 50 15 24 -5 41 12 23 23 -7
4 -28 7 -47 6 -33 -1 -34 -1 -16 14 18 14 17 15 -12 9 -29 -5 -31 -4 -31 19 0
15 3 26 8 26 5 0 9 -8 9 -17 1 -17 1 -17 11 0 5 9 17 17 24 17 8 0 15 7 15 15
0 8 5 15 10 15 6 0 10 7 10 16 0 11 -7 14 -29 11 -17 -3 -35 -8 -40 -12 -6 -3
-11 -1 -11 5 0 6 -4 9 -9 6 -5 -3 -7 -14 -4 -24 3 -15 -1 -18 -19 -16 -13 1
-33 3 -45 3 -17 1 -21 5 -16 19 4 9 14 23 22 30 14 11 13 11 -6 2 -13 -6 -23
-14 -23 -18 -1 -23 -18 -34 -39 -23 -30 17 -28 41 4 35 18 -3 25 0 25 11 0 18
-41 23 -90 10 -8 -2 -19 -4 -24 -4 -5 -1 -6 -4 -3 -8 4 -3 1 -13 -6 -22 -10
-14 -10 -14 5 -3 10 8 26 11 39 7 29 -10 12 -24 -33 -27 -20 -2 -34 -6 -31
-10 7 -12 -12 -9 -25 4 -8 8 -15 8 -27 -2 -13 -11 -20 -11 -40 0 l-24 13 21
19 21 18 -21 0 c-12 0 -22 5 -22 11 0 5 -4 7 -10 4 -5 -3 -10 1 -10 9 0 9 -5
16 -11 16 -5 0 -7 -4 -4 -10 3 -5 -3 -10 -14 -10 -11 0 -23 5 -26 10 -4 6 -15
8 -26 5 -11 -4 -19 -2 -19 4 0 6 -8 11 -17 11 -15 0 -16 -2 -3 -10z m50 -40
c-8 -5 -17 -7 -19 -4 -3 3 1 9 9 14 8 5 17 7 19 4 3 -3 -1 -9 -9 -14z m63 -36
c-3 -8 -10 -11 -16 -7 -20 12 -55 9 -50 -4 3 -7 0 -13 -6 -13 -6 0 -11 5 -11
10 0 6 -9 10 -21 10 -11 0 -18 4 -14 9 3 6 32 10 65 10 46 -1 58 -4 53 -15z
m-533 -24 c0 -5 -7 -7 -15 -4 -8 4 -15 8 -15 10 0 2 7 4 15 4 8 0 15 -4 15
-10z m-4610 -22 c0 -16 -3 -19 -11 -11 -6 6 -8 16 -5 22 11 17 16 13 16 -11z
m5440 -3 c0 -2 -7 -5 -15 -9 -9 -3 -15 0 -15 9 0 9 6 12 15 9 8 -4 15 -7 15
-9z m44 6 c3 -5 -1 -11 -9 -14 -9 -4 -12 -1 -8 9 6 16 10 17 17 5z m-3140 -10
c7 -11 -17 -21 -51 -21 -21 0 -24 2 -13 15 14 16 56 20 64 6z m2032 -4 c7 -7
-10 -11 -35 -8 -7 2 -10 -2 -6 -8 3 -6 1 -11 -4 -11 -6 0 -11 4 -11 9 0 5 -6
9 -12 8 -43 -1 -78 4 -78 13 0 11 135 8 146 -3z m917 6 c-7 -2 -19 -2 -25 0
-7 3 -2 5 12 5 14 0 19 -2 13 -5z m107 -9 c0 -2 -9 -4 -21 -4 -11 0 -18 4 -14
10 5 8 35 3 35 -6z m-1498 0 c9 -8 -3 -44 -14 -44 -5 0 -6 5 -2 11 5 9 -1 10
-20 5 -30 -7 -35 8 -8 23 19 12 36 14 44 5z m238 2 c0 -2 -9 -6 -20 -9 -11 -3
-20 -1 -20 4 0 5 9 9 20 9 11 0 20 -2 20 -4z m613 -2 c11 -11 -3 -24 -18 -18
-8 4 -12 10 -9 15 6 11 18 12 27 3z m-2068 -34 c-5 -8 -11 -8 -17 -2 -6 6 -7
16 -3 22 5 8 11 8 17 2 6 -6 7 -16 3 -22z m1735 20 c0 -5 -5 -10 -11 -10 -5 0
-7 5 -4 10 3 6 8 10 11 10 2 0 4 -4 4 -10z m95 -8 c-3 -3 -11 0 -18 7 -9 10
-8 11 6 5 10 -3 15 -9 12 -12z m67 -4 c-7 -7 -12 -8 -12 -2 0 14 12 26 19 19
2 -3 -1 -11 -7 -17z m101 15 c-7 -2 -19 -2 -25 0 -7 3 -2 5 12 5 14 0 19 -2
13 -5z m-126 -9 c-3 -3 -12 -4 -19 -1 -8 3 -5 6 6 6 11 1 17 -2 13 -5z m-397
-14 c0 -5 5 -10 11 -10 5 0 7 5 4 10 -3 6 1 10 9 10 9 0 16 -4 16 -10 0 -5 8
-10 17 -10 9 0 13 -3 9 -7 -13 -13 -103 -9 -103 4 0 7 4 10 9 7 4 -3 8 0 8 5
0 6 5 11 10 11 6 0 10 -4 10 -10z m-5005 -59 c3 -5 1 -12 -4 -15 -5 -3 -11 1
-15 9 -6 16 9 21 19 6z m50 -1 c3 -5 -3 -10 -15 -10 -12 0 -18 5 -15 10 3 6
10 10 15 10 5 0 12 -4 15 -10z m-205 -19 c0 -12 -20 -25 -27 -18 -7 7 6 27 18
27 5 0 9 -4 9 -9z m6670 -52 c0 -3 -11 -6 -25 -6 -14 0 -27 3 -30 6 -2 4 9 7
26 7 16 0 29 -3 29 -7z m41 -2 c-1 -12 -15 -9 -19 4 -3 6 1 10 8 8 6 -3 11 -8
11 -12z m142 -17 c3 -13 0 -20 -9 -20 -8 0 -14 6 -14 14 0 8 -6 17 -12 19 -7
3 -3 6 8 6 14 1 24 -7 27 -19z m-183 -4 c0 -3 -4 -8 -10 -11 -5 -3 -10 -1 -10
4 0 6 5 11 10 11 6 0 10 -2 10 -4z m-6790 -46 c0 -5 -4 -10 -10 -10 -5 0 -10
5 -10 10 0 6 5 10 10 10 6 0 10 -4 10 -10z m50 -7 c0 -14 -26 -18 -34 -4 -7
11 0 18 19 18 8 0 15 -6 15 -14z m6864 -71 c3 -5 -1 -9 -9 -9 -8 0 -15 4 -15
9 0 4 4 8 9 8 6 0 12 -4 15 -8z m20 -92 c-6 -6 -21 -6 -39 -1 -30 9 -30 9 10
10 25 1 36 -2 29 -9z m-6974 -86 c0 -14 -3 -14 -15 -4 -8 7 -15 14 -15 16 0 2
7 4 15 4 8 0 15 -7 15 -16z m6877 0 c-3 -3 -12 -4 -19 -1 -8 3 -5 6 6 6 11 1
17 -2 13 -5z m-6933 -60 c4 -9 13 -14 21 -10 9 3 15 0 15 -9 0 -22 -17 -18
-48 10 -20 19 -23 25 -10 25 9 0 19 -7 22 -16z m-31 -50 c-3 -8 -12 -13 -20
-10 -8 3 -19 6 -24 6 -6 0 -7 5 -4 10 3 6 17 10 30 10 18 0 23 -4 18 -16z
m6947 12 c0 -3 -4 -8 -10 -11 -5 -3 -10 -1 -10 4 0 6 5 11 10 11 6 0 10 -2 10
-4z m-7010 -36 c0 -5 -4 -10 -10 -10 -5 0 -10 5 -10 10 0 6 5 10 10 10 6 0 10
-4 10 -10z m6970 -26 c0 -2 -16 -4 -35 -4 -19 0 -35 4 -35 8 0 4 16 6 35 4 19
-2 35 -6 35 -8z m17 -90 c-3 -3 -12 -4 -19 -1 -8 3 -5 6 6 6 11 1 17 -2 13 -5z
m-6758 -40 c8 -7 -12 -24 -30 -24 -10 0 -19 -4 -19 -10 0 -5 7 -7 15 -4 18 7
21 -21 3 -32 -7 -4 -8 -3 -4 4 4 7 3 12 -3 12 -5 0 -17 7 -25 16 -25 24 -4 56
32 48 15 -4 29 -8 31 -10z m6639 -19 c-1 -14 -6 -25 -10 -25 -4 0 -6 10 -4 23
6 28 5 27 11 27 3 0 4 -11 3 -25z m-188 -145 c-14 -4 -29 -4 -35 -1 -5 3 1 8
15 11 14 4 29 4 35 1 5 -3 -1 -8 -15 -11z m-2944 -42 c5 -8 2 -9 -9 -5 -9 3
-19 2 -22 -3 -4 -6 3 -10 14 -10 12 0 21 -4 21 -9 0 -6 -12 -6 -30 -1 -20 6
-30 5 -30 -2 0 -6 -2 -9 -5 -7 -2 3 -2 15 2 27 6 24 46 31 59 10z m-81 -27
c-3 -6 -11 -11 -16 -11 -5 0 -4 6 3 14 14 16 24 13 13 -3z m-275 -3 c0 -4 -7
-8 -16 -8 -10 0 -14 -6 -10 -15 3 -9 0 -15 -10 -15 -8 0 -13 4 -9 9 3 5 -4 13
-16 16 -14 5 -18 10 -10 14 16 10 71 10 71 -1z m604 6 c9 -3 13 -10 10 -15 -8
-14 -21 -11 -28 6 -6 17 -4 18 18 9z m-474 -44 c6 0 10 -4 10 -10 0 -15 -16
-12 -34 6 -14 13 -17 13 -22 1 -3 -8 -17 -14 -33 -13 -24 1 -27 4 -20 19 7 12
18 16 35 13 21 -4 25 -2 19 12 -4 12 0 10 15 -5 11 -13 25 -23 30 -23z m423
16 c4 -10 1 -13 -8 -9 -8 3 -12 9 -9 14 7 12 11 11 17 -5z m-676 -2 c-3 -3
-12 -4 -19 -1 -8 3 -5 6 6 6 11 1 17 -2 13 -5z m593 2 c0 -3 -4 -8 -10 -11 -5
-3 -10 -1 -10 4 0 6 5 11 10 11 6 0 10 -2 10 -4z m-280 -27 c0 -5 -4 -9 -10
-9 -5 0 -10 7 -10 16 0 8 5 12 10 9 6 -3 10 -10 10 -16z m100 17 c0 -3 -4 -8
-10 -11 -5 -3 -10 -1 -10 4 0 6 5 11 10 11 6 0 10 -2 10 -4z m40 -6 c0 -5 -5
-10 -11 -10 -5 0 -7 5 -4 10 3 6 8 10 11 10 2 0 4 -4 4 -10z m300 6 c0 -3 -4
-8 -10 -11 -5 -3 -10 -1 -10 4 0 6 5 11 10 11 6 0 10 -2 10 -4z m17 -18 c-3
-8 -6 -5 -6 6 -1 11 2 17 5 13 3 -3 4 -12 1 -19z m-1250 6 c-3 -3 -12 -4 -19
-1 -8 3 -5 6 6 6 11 1 17 -2 13 -5z m3036 -30 c-3 -8 -9 -11 -14 -8 -5 3 -9 0
-9 -6 0 -6 -4 -8 -10 -5 -5 3 -10 0 -11 -7 0 -11 -2 -11 -6 0 -6 16 27 51 44
45 6 -3 9 -11 6 -19z m677 11 c0 -5 5 -3 10 5 5 8 10 10 10 3 0 -6 11 -10 25
-8 16 1 25 -3 25 -11 0 -8 -10 -15 -22 -15 -13 -1 -35 -2 -49 -3 -20 -1 -25 2
-21 13 3 9 1 12 -6 7 -7 -4 -12 -1 -12 8 0 9 8 14 20 13 11 -1 20 -6 20 -12z
m-6202 -30 c-3 -3 -9 2 -12 12 -6 14 -5 15 5 6 7 -7 10 -15 7 -18z m57 15 c3
-5 1 -10 -4 -10 -6 0 -11 5 -11 10 0 6 2 10 4 10 3 0 8 -4 11 -10z m3072 -6
c-3 -3 -12 -4 -19 -1 -8 3 -5 6 6 6 11 1 17 -2 13 -5z m-132 -14 c3 -6 -4 -10
-17 -10 -18 0 -20 2 -8 10 19 12 18 12 25 0z m626 -19 c-13 -23 -3 -35 16 -20
8 7 13 8 13 1 0 -11 -23 -22 -46 -22 -8 0 -13 9 -12 24 1 14 6 22 10 20 4 -3
8 0 8 5 0 6 5 11 10 11 7 0 7 -6 1 -19z m-751 5 c0 -3 -4 -8 -10 -11 -5 -3
-10 -1 -10 4 0 6 5 11 10 11 6 0 10 -2 10 -4z m895 -36 c-8 -13 -35 -13 -35 0
0 6 7 10 15 10 9 0 12 6 9 18 -5 16 -5 16 6 -1 6 -9 8 -22 5 -27z m1770 31 c3
-6 -3 -8 -13 -6 -12 2 -18 -3 -18 -15 0 -10 6 -16 13 -13 7 3 13 0 13 -5 0
-22 -18 -21 -46 3 l-28 24 24 10 c32 13 47 13 55 2z m22 -13 c-3 -8 -6 -5 -6
6 -1 11 2 17 5 13 3 -3 4 -12 1 -19z m701 -10 c2 -11 -4 -14 -28 -10 -16 2
-30 9 -30 14 0 6 7 8 15 4 8 -3 15 -1 15 5 0 16 25 5 28 -13z m-3128 2 c0 -5
-5 -10 -11 -10 -5 0 -7 5 -4 10 3 6 8 10 11 10 2 0 4 -4 4 -10z m-3066 -21
c-3 -6 -13 -8 -23 -5 -14 5 -13 4 2 -8 9 -7 17 -19 17 -27 0 -9 -6 -7 -18 7
-16 20 -19 20 -50 8 -20 -9 -30 -19 -26 -26 4 -6 3 -8 -3 -5 -6 4 -13 0 -17
-8 -8 -22 -25 -18 -19 5 3 11 9 20 14 20 5 0 18 8 28 17 37 31 112 48 95 22z
m2896 16 c0 -3 -9 -14 -20 -25 -19 -19 -77 -29 -66 -11 3 5 15 7 26 4 12 -3
20 0 20 6 0 7 -4 9 -10 6 -5 -3 -10 1 -10 9 0 11 9 16 30 16 17 0 30 -2 30 -5z
m880 -5 c0 -6 -11 -10 -25 -10 -14 0 -25 4 -25 8 0 4 11 9 25 10 14 1 25 -3
25 -8z m94 2 c2 -4 -4 -8 -14 -8 -10 0 -16 4 -14 8 3 4 9 8 14 8 5 0 11 -4 14
-8z m146 3 c0 -7 -30 -13 -34 -7 -3 4 4 9 15 9 10 1 19 0 19 -2z m2100 -7 c0
-4 -4 -8 -9 -8 -6 0 -12 4 -15 8 -3 5 1 9 9 9 8 0 15 -4 15 -9z m-3427 -4 c11
-11 -3 -24 -18 -18 -8 4 -12 10 -9 15 6 11 18 12 27 3z m-88 -23 c-3 -6 -11
-8 -17 -5 -6 4 -5 9 3 15 16 10 23 4 14 -10z m1065 -18 c0 -12 -2 -12 -15 1
-8 8 -15 20 -15 27 0 9 4 8 15 -1 8 -7 15 -19 15 -27z m145 27 c4 -6 -6 -10
-22 -9 -25 0 -26 1 -8 9 11 5 21 9 22 9 1 1 5 -3 8 -9z m659 4 c-7 -3 -10 -14
-7 -24 6 -22 -13 -28 -20 -7 -7 19 4 37 22 36 9 0 11 -3 5 -5z m33 -14 c1 -11
-2 -18 -8 -15 -11 7 -12 35 -1 35 4 0 8 -9 9 -20z m33 16 c0 -3 -4 -8 -10 -11
-5 -3 -10 -1 -10 4 0 6 5 11 10 11 6 0 10 -2 10 -4z m114 -11 c3 -8 1 -15 -4
-15 -6 0 -10 7 -10 15 0 8 2 15 4 15 2 0 6 -7 10 -15z m-1759 -5 c3 -5 1 -10
-4 -10 -6 0 -11 5 -11 10 0 6 2 10 4 10 3 0 8 -4 11 -10z m1002 4 c-3 -3 -12
-4 -19 -1 -8 3 -5 6 6 6 11 1 17 -2 13 -5z m111 -30 c-4 -3 -12 5 -18 18 -12
22 -12 22 6 6 10 -10 15 -20 12 -24z m47 26 c3 -5 4 -10 1 -10 -2 0 -12 -3
-22 -7 -11 -4 -15 -3 -11 4 4 6 1 14 -5 16 -7 3 -3 6 9 6 12 1 25 -3 28 -9z
m245 -11 c0 -6 -4 -7 -10 -4 -5 3 -10 11 -10 16 0 6 5 7 10 4 6 -3 10 -11 10
-16z m1738 -2 c5 -24 -15 -21 -21 4 -3 13 -1 19 6 16 7 -2 13 -11 15 -20z
m-293 3 c3 -5 -1 -10 -10 -10 -9 0 -13 5 -10 10 3 6 8 10 10 10 2 0 7 -4 10
-10z m-5691 -9 c4 -5 -1 -8 -9 -7 -21 3 -31 16 -12 16 9 0 18 -4 21 -9z m2432
-4 c4 -4 -2 -7 -14 -7 -12 0 -22 4 -22 9 0 10 26 9 36 -2z m3238 -2 c19 -15
19 -15 -1 -15 -30 0 -54 11 -47 21 8 13 26 11 48 -6z m74 -21 c-4 -3 -17 -2
-30 2 -22 7 -22 7 -3 14 20 8 44 -4 33 -16z m-3345 -1 c-7 -2 -21 -2 -30 0
-10 3 -4 5 12 5 17 0 24 -2 18 -5z m2907 3 c0 -11 -19 -15 -25 -6 -3 5 1 10 9
10 9 0 16 -2 16 -4z m490 0 c0 -9 -30 -14 -35 -6 -4 6 3 10 14 10 12 0 21 -2
21 -4z m40 -4 c0 -5 -7 -9 -15 -9 -8 0 -15 4 -15 9 0 4 7 8 15 8 8 0 15 -4 15
-8z m50 -2 c0 -5 -5 -10 -11 -10 -5 0 -7 5 -4 10 3 6 8 10 11 10 2 0 4 -4 4
-10z m-2140 -15 c0 -6 -12 -11 -27 -12 -16 -1 -22 1 -15 4 6 2 10 9 7 13 -3 5
4 8 15 7 11 -1 20 -6 20 -12z m763 2 c3 -8 -3 -14 -14 -14 -21 -2 -26 13 -6
20 6 3 13 6 13 6 1 1 4 -5 7 -12z m267 8 c0 -2 -9 -9 -20 -15 -12 -6 -20 -7
-20 -1 0 5 8 12 18 14 9 3 18 5 20 6 1 0 2 -1 2 -4z m73 -15 c-3 -11 -7 -20
-9 -20 -2 0 -4 9 -4 20 0 11 4 20 9 20 5 0 7 -9 4 -20z m-2573 6 c0 -11 -19
-15 -25 -6 -3 5 1 10 9 10 9 0 16 -2 16 -4z m2880 -6 c0 -5 -5 -10 -11 -10 -5
0 -7 5 -4 10 3 6 8 10 11 10 2 0 4 -4 4 -10z m574 -12 c10 16 88 11 81 -6 -2
-7 -1 -11 4 -8 5 3 14 -1 21 -9 10 -13 5 -14 -41 -8 -30 4 -82 6 -116 6 -45
-1 -63 3 -67 14 -3 8 -2 11 3 8 5 -3 13 0 16 6 5 6 21 8 41 4 24 -4 34 -2 35
7 0 7 4 4 8 -6 5 -13 10 -16 15 -8z m-3540 -4 c4 -10 1 -14 -6 -12 -15 5 -23
28 -10 28 5 0 13 -7 16 -16z m3370 -5 c10 15 36 14 36 -2 0 -19 -53 -15 -58 3
-3 12 -2 13 6 1 7 -9 12 -10 16 -2z m-3274 -8 c0 -5 -13 -9 -30 -9 -16 1 -30
5 -30 10 0 4 14 8 30 8 17 0 30 -4 30 -9z m2200 -11 c0 -5 -7 -7 -15 -4 -8 4
-15 8 -15 10 0 2 7 4 15 4 8 0 15 -4 15 -10z m-2402 -16 c-9 -9 -21 -13 -27
-10 -20 13 -11 26 16 26 25 0 26 -1 11 -16z m3905 -35 c-4 -15 -8 -17 -13 -8
-10 15 -1 41 10 34 5 -3 6 -14 3 -26z m-4269 3 c2 -4 -12 -6 -32 -4 -56 5 -62
10 -15 11 23 1 44 -3 47 -7z m-1359 -12 c3 -5 2 -10 -4 -10 -5 0 -13 5 -16 10
-3 6 -2 10 4 10 5 0 13 -4 16 -10z m47 -12 c-9 -9 -15 -9 -24 1 -11 11 -10 13
5 8 10 -4 17 -2 17 5 0 6 3 8 7 5 4 -4 1 -13 -5 -19z m978 -37 c0 -14 -1 -14
-10 -1 -5 8 -10 11 -10 7 0 -5 -7 -1 -17 8 -14 14 -14 18 -2 26 16 10 39 -14
39 -40z m-1360 19 c0 -5 -8 -10 -17 -10 -15 0 -16 2 -3 10 19 12 20 12 20 0z
m5950 -11 c0 -11 -4 -17 -10 -14 -5 3 -10 13 -10 21 0 8 5 14 10 14 6 0 10 -9
10 -21z m-5820 -39 c0 -5 -5 -10 -11 -10 -5 0 -7 5 -4 10 3 6 8 10 11 10 2 0
4 -4 4 -10z m500 0 c0 -5 -5 -10 -11 -10 -5 0 -7 5 -4 10 3 6 8 10 11 10 2 0
4 -4 4 -10z m300 -14 c0 -3 -4 -8 -10 -11 -5 -3 -10 -1 -10 4 0 6 5 11 10 11
6 0 10 -2 10 -4z m-782 -54 c-10 -2 -18 -7 -18 -12 0 -4 -9 -10 -19 -13 -14
-3 -18 -1 -14 9 3 8 9 14 14 14 5 0 9 7 9 15 0 13 4 14 23 3 19 -10 20 -13 5
-16z"/>
<path d="M6110 299 c0 -5 5 -7 10 -4 6 3 10 8 10 11 0 2 -4 4 -10 4 -5 0 -10
-5 -10 -11z"/>
<path d="M6903 1715 c-3 -9 -3 -18 -1 -21 3 -3 8 4 11 16 6 23 -1 27 -10 5z"/>
<path d="M6600 1691 c0 -6 9 -9 20 -8 11 1 20 5 20 9 0 4 -9 8 -20 8 -11 0
-20 -4 -20 -9z"/>
<path d="M5805 1680 c-3 -5 1 -10 9 -10 9 0 16 5 16 10 0 6 -4 10 -9 10 -6 0
-13 -4 -16 -10z"/>
<path d="M6218 1683 c7 -3 16 -2 19 1 4 3 -2 6 -13 5 -11 0 -14 -3 -6 -6z"/>
<path d="M6258 1683 c7 -3 16 -2 19 1 4 3 -2 6 -13 5 -11 0 -14 -3 -6 -6z"/>
<path d="M7000 1671 c0 -11 8 -21 18 -23 25 -5 62 3 62 14 0 5 -4 7 -9 3 -6
-3 -14 3 -20 12 -6 11 -11 13 -11 5 0 -10 -5 -10 -20 -2 -17 9 -20 8 -20 -9z"/>
<path d="M5105 1671 c-3 -5 0 -13 6 -16 5 -4 8 -13 5 -20 -3 -8 2 -11 15 -8
23 6 24 19 5 39 -17 16 -23 17 -31 5z"/>
<path d="M7210 1670 c0 -5 5 -10 11 -10 5 0 7 5 4 10 -3 6 -8 10 -11 10 -2 0
-4 -4 -4 -10z"/>
<path d="M1055 1660 c3 -5 11 -10 16 -10 6 0 7 5 4 10 -3 6 -11 10 -16 10 -6
0 -7 -4 -4 -10z"/>
<path d="M4050 1663 c0 -6 6 -14 13 -16 6 -3 1 -6 -13 -7 -23 -1 -23 -2 -5 -9
12 -5 23 -4 26 2 4 5 14 7 23 4 9 -4 16 -2 16 3 0 6 -8 10 -18 10 -10 0 -23 5
-30 12 -8 8 -12 9 -12 1z"/>
<path d="M5315 1659 c-4 -6 -4 -13 0 -17 4 -4 10 -2 12 5 2 7 12 9 21 6 15 -4
15 -3 2 6 -19 14 -27 14 -35 0z"/>
<path d="M5446 1656 c3 -8 12 -12 20 -9 21 8 17 23 -6 23 -13 0 -18 -5 -14
-14z"/>
<path d="M5685 1660 c3 -5 8 -10 11 -10 2 0 4 5 4 10 0 6 -5 10 -11 10 -5 0
-7 -4 -4 -10z"/>
<path d="M5250 1650 c0 -5 5 -10 10 -10 6 0 10 5 10 10 0 6 -4 10 -10 10 -5 0
-10 -4 -10 -10z"/>
<path d="M6074 1651 c4 -5 0 -12 -6 -14 -7 -3 3 -6 22 -6 19 0 44 6 54 14 18
14 16 15 -28 15 -26 0 -45 -4 -42 -9z"/>
<path d="M6196 1645 c4 -8 8 -15 10 -15 2 0 4 7 4 15 0 8 -4 15 -10 15 -5 0
-7 -7 -4 -15z"/>
<path d="M625 1639 c-4 -5 -12 -8 -18 -6 -11 3 -37 -15 -37 -26 0 -8 35 -4 47
5 7 5 17 7 23 3 18 -11 31 5 16 21 -17 17 -23 17 -31 3z"/>
<path d="M4767 1636 c-12 -9 -14 -16 -7 -21 6 -4 18 -1 27 7 9 7 18 12 20 11
1 -2 6 -3 11 -3 4 0 0 5 -8 10 -19 12 -21 12 -43 -4z"/>
<path d="M7190 1640 c0 -5 5 -10 11 -10 5 0 7 5 4 10 -3 6 -8 10 -11 10 -2 0
-4 -4 -4 -10z"/>
<path d="M685 1630 c-3 -5 2 -13 12 -18 16 -9 16 -11 0 -35 l-17 -26 30 11
c17 5 30 15 30 22 0 17 -48 57 -55 46z"/>
<path d="M3325 1630 c-3 -5 1 -10 10 -10 9 0 13 5 10 10 -3 6 -8 10 -10 10 -2
0 -7 -4 -10 -10z"/>
<path d="M3618 1633 c7 -3 16 -2 19 1 4 3 -2 6 -13 5 -11 0 -14 -3 -6 -6z"/>
<path d="M4690 1625 c0 -8 9 -10 25 -7 14 2 25 6 25 7 0 1 -11 5 -25 7 -16 3
-25 1 -25 -7z"/>
<path d="M7115 1629 c-4 -6 -18 -9 -31 -6 -13 2 -24 0 -24 -4 0 -5 18 -8 40
-7 38 1 51 10 31 23 -5 3 -13 0 -16 -6z"/>
<path d="M1015 1620 c-4 -6 -10 -8 -15 -5 -5 3 -11 1 -15 -5 -4 -6 4 -9 19 -8
15 1 26 8 26 15 0 16 -7 17 -15 3z"/>
<path d="M3265 1620 c-3 -5 1 -10 9 -10 8 0 18 5 21 10 3 6 -1 10 -9 10 -8 0
-18 -4 -21 -10z"/>
<path d="M1208 1591 c9 -16 19 -28 21 -25 6 6 -21 54 -30 54 -5 0 0 -13 9 -29z"/>
<path d="M4530 1610 c-9 -6 -10 -10 -3 -10 6 0 15 5 18 10 8 12 4 12 -15 0z"/>
<path d="M7175 1610 c-4 -6 -10 -8 -15 -5 -4 3 -10 -1 -13 -9 -4 -10 0 -12 14
-9 10 3 19 10 19 15 0 6 7 7 16 4 8 -3 12 -2 9 4 -8 13 -22 13 -30 0z"/>
<path d="M5343 1603 c-15 -5 -17 -23 -4 -23 5 0 11 7 15 15 3 8 4 15 3 14 -1
0 -8 -3 -14 -6z"/>
<path d="M460 1583 c-24 -12 -24 -13 -3 -13 12 0 25 5 28 11 11 16 2 17 -25 2z"/>
<path d="M7050 1570 c0 -5 5 -10 10 -10 6 0 10 5 10 10 0 6 -4 10 -10 10 -5 0
-10 -4 -10 -10z"/>
<path d="M7130 1533 c8 -3 18 -11 22 -17 5 -7 8 -4 8 7 0 11 -7 17 -22 16 -16
0 -18 -2 -8 -6z"/>
<path d="M7036 1519 c6 -11 44 -12 44 -1 0 4 -11 8 -25 8 -14 1 -22 -2 -19 -7z"/>
<path d="M7108 1513 c6 -2 18 -2 25 0 6 3 1 5 -13 5 -14 0 -19 -2 -12 -5z"/>
<path d="M246 1427 c3 -10 9 -15 12 -12 3 3 0 11 -7 18 -10 9 -11 8 -5 -6z"/>
<path d="M7320 1410 c0 -6 7 -10 15 -10 8 0 15 2 15 4 0 2 -7 6 -15 10 -8 3
-15 1 -15 -4z"/>
<path d="M185 1380 c3 -5 8 -10 11 -10 2 0 4 5 4 10 0 6 -5 10 -11 10 -5 0 -7
-4 -4 -10z"/>
<path d="M142 1288 c-7 -7 -12 -18 -12 -25 0 -7 -6 -10 -14 -7 -10 4 -14 -1
-13 -15 2 -32 20 -24 39 16 19 40 19 50 0 31z"/>
<path d="M7355 1240 c-3 -5 -1 -10 4 -10 6 0 11 5 11 10 0 6 -2 10 -4 10 -3 0
-8 -4 -11 -10z"/>
<path d="M5 1220 c3 -5 16 -10 28 -9 21 0 21 1 2 9 -28 12 -37 12 -30 0z"/>
<path d="M122 1188 c-14 -30 -17 -45 -9 -50 16 -10 20 -3 22 31 1 16 7 37 14
45 8 9 9 16 3 16 -5 0 -19 -19 -30 -42z"/>
<path d="M38 1183 c-16 -19 -14 -43 3 -43 6 0 7 5 4 10 -4 6 -1 18 6 26 17 21
5 28 -13 7z"/>
<path d="M176 1171 c-3 -5 1 -11 9 -15 8 -3 15 -1 15 4 0 13 -18 22 -24 11z"/>
<path d="M7231 1076 c9 -9 69 -13 75 -5 3 5 -14 9 -37 9 -23 0 -40 -2 -38 -4z"/>
<path d="M7333 1003 c9 -2 23 -2 30 0 6 3 -1 5 -18 5 -16 0 -22 -2 -12 -5z"/>
<path d="M95 930 c3 -5 12 -7 20 -3 21 7 19 13 -6 13 -11 0 -18 -4 -14 -10z"/>
<path d="M7356 885 c4 -8 8 -15 10 -15 2 0 4 7 4 15 0 8 -4 15 -10 15 -5 0 -7
-7 -4 -15z"/>
<path d="M51 827 c-6 -6 -11 -18 -11 -27 0 -9 -5 -21 -12 -28 -9 -9 -9 -12 3
-12 8 0 20 9 27 21 11 17 11 20 0 13 -10 -6 -9 -4 1 10 8 9 20 15 28 12 7 -3
13 -2 13 3 0 14 -37 20 -49 8z"/>
<path d="M7220 829 c0 -5 5 -7 10 -4 6 3 10 8 10 11 0 2 -4 4 -10 4 -5 0 -10
-5 -10 -11z"/>
<path d="M100 754 c0 -8 5 -12 10 -9 6 3 10 10 10 16 0 5 -4 9 -10 9 -5 0 -10
-7 -10 -16z"/>
<path d="M23 718 c-13 -6 -23 -15 -23 -20 0 -14 16 -9 35 12 20 22 19 23 -12
8z"/>
<path d="M95 693 c-18 -14 -18 -15 -2 -9 13 4 17 2 14 -6 -4 -12 -9 -14 -49
-17 -10 0 -18 -8 -18 -17 0 -11 -5 -14 -16 -10 -14 5 -15 4 -4 -9 10 -12 16
-12 34 -3 11 6 22 11 23 10 1 0 16 5 33 11 27 10 43 37 21 37 -5 0 -11 6 -13
14 -3 12 -6 12 -23 -1z"/>
<path d="M6936 645 c4 -8 7 -15 9 -15 1 0 8 7 15 15 10 13 9 15 -8 15 -15 0
-20 -5 -16 -15z"/>
<path d="M6986 644 c-8 -21 -8 -21 8 -21 8 0 11 8 8 19 -5 22 -8 23 -16 2z"/>
<path d="M150 630 c0 -18 3 -19 20 -10 22 12 18 30 -6 30 -8 0 -14 -9 -14 -20z"/>
<path d="M7028 623 c6 -2 18 -2 25 0 6 3 1 5 -13 5 -14 0 -19 -2 -12 -5z"/>
<path d="M180 574 c0 -8 5 -12 10 -9 6 3 10 10 10 16 0 5 -4 9 -10 9 -5 0 -10
-7 -10 -16z"/>
<path d="M58 500 c-10 -9 -18 -22 -18 -28 0 -6 -10 -20 -22 -32 -12 -11 -18
-23 -14 -27 4 -5 13 -1 19 8 7 9 22 19 33 23 24 7 34 32 25 57 -5 14 -8 14
-23 -1z"/>
<path d="M7010 500 l-25 -8 28 -1 c15 -1 27 4 27 9 0 6 -1 10 -2 9 -2 -1 -14
-5 -28 -9z"/>
<path d="M7128 503 c7 -3 16 -2 19 1 4 3 -2 6 -13 5 -11 0 -14 -3 -6 -6z"/>
<path d="M6888 493 c6 -2 18 -2 25 0 6 3 1 5 -13 5 -14 0 -19 -2 -12 -5z"/>
<path d="M6958 493 c7 -3 16 -2 19 1 4 3 -2 6 -13 5 -11 0 -14 -3 -6 -6z"/>
<path d="M6810 480 c-12 -8 -10 -10 8 -10 13 0 20 4 17 10 -7 12 -6 12 -25 0z"/>
<path d="M6696 411 c-3 -5 1 -11 9 -15 9 -3 15 0 15 9 0 16 -16 20 -24 6z"/>
<path d="M3820 400 c-8 -5 -10 -10 -5 -10 6 0 17 5 25 10 8 5 11 10 5 10 -5 0
-17 -5 -25 -10z"/>
<path d="M3540 380 c0 -15 20 -22 33 -11 8 6 18 6 27 1 21 -13 37 -12 43 3 4
10 -9 13 -49 14 -30 1 -54 -2 -54 -7z"/>
<path d="M181 364 c0 -11 3 -14 6 -6 3 7 2 16 -1 19 -3 4 -6 -2 -5 -13z"/>
<path d="M3360 370 c0 -5 5 -10 11 -10 5 0 7 5 4 10 -3 6 -8 10 -11 10 -2 0
-4 -4 -4 -10z"/>
<path d="M3735 370 c-15 -7 -9 -9 24 -9 24 -1 41 2 37 6 -10 11 -39 12 -61 3z"/>
<path d="M3930 359 c0 -5 5 -7 10 -4 6 3 10 8 10 11 0 2 -4 4 -10 4 -5 0 -10
-5 -10 -11z"/>
<path d="M6778 363 c7 -3 16 -2 19 1 4 3 -2 6 -13 5 -11 0 -14 -3 -6 -6z"/>
<path d="M140 350 c0 -5 7 -10 16 -10 8 0 12 5 9 10 -3 6 -10 10 -16 10 -5 0
-9 -4 -9 -10z"/>
<path d="M4637 353 c-10 -9 -9 -33 1 -33 4 0 8 9 9 20 2 21 0 24 -10 13z"/>
<path d="M3220 342 c0 -5 7 -15 15 -22 8 -7 15 -9 15 -6 0 4 -7 14 -15 22 -8
9 -15 11 -15 6z"/>
<path d="M3773 335 c-19 -21 -16 -27 7 -13 11 7 20 16 20 20 0 12 -14 9 -27
-7z"/>
<path d="M4601 334 c0 -11 3 -14 6 -6 3 7 2 16 -1 19 -3 4 -6 -2 -5 -13z"/>
<path d="M6810 336 c-27 -12 -26 -29 3 -20 40 12 67 23 67 28 0 7 -48 1 -70
-8z"/>
<path d="M3687 325 c3 -8 9 -12 14 -9 12 7 11 11 -5 17 -10 4 -13 1 -9 -8z"/>
<path d="M3860 314 c0 -8 5 -12 10 -9 6 3 10 10 10 16 0 5 -4 9 -10 9 -5 0
-10 -7 -10 -16z"/>
<path d="M4466 314 c-6 -17 9 -54 23 -54 5 0 8 6 7 13 0 6 3 13 8 14 5 1 13 7
17 15 7 10 9 10 9 1 0 -16 36 -17 46 -1 5 8 2 9 -11 4 -10 -4 -21 -2 -25 5 -6
8 -13 8 -28 0 -12 -7 -23 -7 -27 -2 -3 5 3 12 12 14 14 4 14 5 -3 6 -12 0 -25
-6 -28 -15z"/>
<path d="M4667 323 c-11 -11 -8 -33 5 -33 6 0 8 3 5 7 -4 3 -2 12 4 20 11 13
-2 19 -14 6z"/>
<path d="M6641 318 c0 -11 -9 -18 -22 -18 -11 0 -18 -4 -14 -10 3 -5 12 -7 19
-4 8 3 17 -3 20 -13 8 -24 73 -27 68 -3 -7 29 -23 40 -42 30 -15 -8 -19 -6
-23 13 -3 14 -5 16 -6 5z"/>
<path d="M4117 305 c-4 -8 -13 -15 -22 -15 -8 0 -15 -4 -15 -8 0 -5 13 -9 29
-9 24 0 28 4 25 20 -5 27 -10 31 -17 12z"/>
<path d="M4419 315 c-1 -3 -2 -9 -3 -14 0 -5 -4 -13 -8 -17 -13 -12 -9 -24 7
-24 8 0 15 6 15 14 0 8 3 21 6 30 3 9 1 16 -5 16 -6 0 -12 -2 -12 -5z"/>
<path d="M2967 303 c-4 -3 -7 -16 -7 -27 1 -19 2 -19 11 -3 5 9 17 17 25 17 8
0 12 5 9 10 -7 11 -28 13 -38 3z"/>
<path d="M4616 303 c5 -5 12 -12 16 -18 4 -6 8 -2 8 8 0 9 -7 17 -17 17 -9 0
-12 -3 -7 -7z"/>
<path d="M5150 301 c0 -5 7 -14 15 -21 8 -7 15 -22 15 -34 0 -15 3 -17 9 -7 5
8 3 24 -6 42 -14 27 -33 39 -33 20z"/>
<path d="M4036 291 c-3 -5 1 -11 9 -15 8 -3 15 -1 15 4 0 13 -18 22 -24 11z"/>
<path d="M4313 277 c5 -15 35 -17 41 -2 3 8 -4 13 -20 13 -14 0 -23 -5 -21
-11z"/>
<path d="M6520 274 c0 -8 6 -14 14 -14 8 0 16 -6 19 -12 2 -7 4 -1 3 13 -1 27
-36 40 -36 13z"/>
<path d="M260 270 c-13 -9 -13 -11 0 -20 15 -10 25 0 18 20 -2 6 -8 6 -18 0z"/>
<path d="M3100 269 c0 -5 5 -7 10 -4 6 3 10 8 10 11 0 2 -4 4 -10 4 -5 0 -10
-5 -10 -11z"/>
<path d="M3310 266 c0 -8 4 -18 10 -21 6 -4 7 1 3 11 -5 13 -3 15 7 9 9 -5 11
-4 6 3 -10 17 -26 15 -26 -2z"/>
<path d="M4746 264 c-8 -22 -4 -25 11 -9 7 8 9 16 4 19 -5 3 -12 -1 -15 -10z"/>
<path d="M5053 257 c-3 -6 2 -16 13 -24 12 -9 20 -10 22 -3 2 5 10 10 18 10 8
0 14 4 14 9 0 13 -60 20 -67 8z"/>
<path d="M4341 224 c0 -11 3 -14 6 -6 3 7 2 16 -1 19 -3 4 -6 -2 -5 -13z"/>
<path d="M4935 230 c3 -5 8 -10 11 -10 2 0 4 5 4 10 0 6 -5 10 -11 10 -5 0 -7
-4 -4 -10z"/>
<path d="M6267 234 c-11 -11 3 -24 18 -18 8 4 18 -1 21 -10 8 -22 31 -20 37 3
3 14 -2 21 -17 25 -28 8 -51 7 -59 0z"/>
<path d="M2780 213 c-8 -2 -21 -7 -29 -9 -11 -4 -12 -7 -3 -16 9 -9 15 -9 24
0 7 7 22 12 35 12 13 0 23 5 23 10 0 10 -24 12 -50 3z"/>
<path d="M2850 210 c0 -5 5 -10 10 -10 6 0 10 5 10 10 0 6 -4 10 -10 10 -5 0
-10 -4 -10 -10z"/>
<path d="M5862 208 c2 -5 7 -9 12 -8 5 1 12 -4 16 -10 5 -8 13 -9 24 -3 14 8
11 11 -19 20 -23 7 -35 8 -33 1z"/>
<path d="M6647 198 c-7 -25 -1 -38 16 -38 8 0 8 3 -2 9 -10 7 -11 13 -2 30 7
11 8 21 3 21 -6 0 -12 -10 -15 -22z"/>
<path d="M6532 198 c-20 -20 -13 -30 10 -14 20 14 24 14 42 -2 11 -9 16 -11
11 -3 -4 8 -2 17 6 22 10 6 3 9 -21 9 -20 0 -41 -5 -48 -12z"/>
<path d="M340 175 c-10 -13 -9 -15 8 -15 15 0 20 5 16 15 -4 8 -7 15 -9 15 -1
0 -8 -7 -15 -15z"/>
<path d="M2250 180 c-13 -8 -12 -10 3 -10 9 0 17 5 17 10 0 12 -1 12 -20 0z"/>
<path d="M6266 175 c4 -9 0 -15 -10 -15 -17 0 -22 -15 -7 -24 5 -3 16 5 25 19
20 30 20 35 1 35 -9 0 -12 -6 -9 -15z"/>
<path d="M400 165 c0 -8 4 -15 10 -15 5 0 7 7 4 15 -4 8 -8 15 -10 15 -2 0 -4
-7 -4 -15z"/>
<path d="M6310 165 c0 -8 4 -15 8 -15 5 0 9 7 9 15 0 8 -4 15 -9 15 -4 0 -8
-7 -8 -15z"/>
<path d="M2345 150 c3 -5 8 -10 11 -10 2 0 4 5 4 10 0 6 -5 10 -11 10 -5 0 -7
-4 -4 -10z"/>
<path d="M2550 150 c-9 -6 -10 -10 -3 -10 6 0 15 5 18 10 8 12 4 12 -15 0z"/>
<path d="M3440 139 c0 -5 5 -7 10 -4 6 3 10 8 10 11 0 2 -4 4 -10 4 -5 0 -10
-5 -10 -11z"/>
<path d="M1960 130 c0 -6 6 -10 14 -10 8 0 16 -5 18 -12 3 -8 6 -9 11 -1 3 5
-5 15 -18 21 -15 7 -25 8 -25 2z"/>
<path d="M390 110 c0 -10 -13 -23 -32 -31 -27 -11 -29 -14 -12 -20 13 -5 24
-1 36 12 9 10 21 19 27 19 6 0 11 5 11 10 0 6 1 13 3 17 1 3 -6 7 -15 9 -12 1
-18 -4 -18 -16z"/>
<path d="M2228 123 c6 -2 18 -2 25 0 6 3 1 5 -13 5 -14 0 -19 -2 -12 -5z"/>
<path d="M767 103 c-10 -9 -9 -23 1 -23 5 0 9 7 9 15 0 17 -1 18 -10 8z"/>
<path d="M6262 90 c0 -14 2 -19 5 -12 2 6 2 18 0 25 -3 6 -5 1 -5 -13z"/>
<path d="M196 63 c-6 -14 -5 -15 5 -6 7 7 10 15 7 18 -3 3 -9 -2 -12 -12z"/>
<path d="M401 64 c0 -11 3 -14 6 -6 3 7 2 16 -1 19 -3 4 -6 -2 -5 -13z"/>
<path d="M2320 50 c0 -5 5 -10 11 -10 5 0 7 5 4 10 -3 6 -8 10 -11 10 -2 0 -4
-4 -4 -10z"/>
<path d="M1260 30 c0 -5 5 -10 10 -10 6 0 10 5 10 10 0 6 -4 10 -10 10 -5 0
-10 -4 -10 -10z"/>
</g>
</svg>
