<?xml version="1.0" standalone="no"?>
<!DOCTYPE svg PUBLIC "-//W3C//DTD SVG 20010904//EN"
 "http://www.w3.org/TR/2001/REC-SVG-20010904/DTD/svg10.dtd">
<svg version="1.0" xmlns="http://www.w3.org/2000/svg"
 width="393.000000pt" height="33.000000pt" viewBox="0 0 393.000000 33.000000"
 preserveAspectRatio="xMidYMid meet">

<g transform="translate(0.000000,33.000000) scale(0.100000,-0.100000)"
fill="pink" stroke="none">
<path d="M755 209 c-259 -12 -455 -30 -535 -49 -41 -10 -96 -21 -123 -25 -29
-4 -55 -15 -67 -28 -22 -23 -27 -53 -7 -41 8 5 8 2 -2 -9 -12 -15 -8 -19 35
-38 48 -21 55 -22 429 -15 209 3 641 8 960 11 1072 9 1258 14 1267 27 6 10 8
10 8 1 0 -16 32 -17 48 -1 9 9 15 9 24 0 15 -15 55 -16 63 -2 5 8 11 7 21 -1
8 -6 14 -7 14 -2 0 6 12 8 28 6 62 -9 132 -10 132 -2 0 5 5 9 11 9 5 0 8 -3 6
-7 -3 -5 6 -8 19 -8 17 0 24 6 24 20 1 20 1 20 16 0 9 -12 18 -16 22 -10 11
16 52 18 52 3 0 -11 2 -10 9 0 4 8 11 13 15 13 18 -3 20 0 6 10 -11 7 0 8 39
3 40 -5 56 -3 62 7 7 11 9 10 9 -3 0 -22 8 -23 29 -4 20 17 91 28 109 17 8 -5
28 -1 50 10 20 11 57 19 85 19 32 0 46 4 42 11 -4 6 3 5 15 -3 19 -11 23 -11
36 7 13 17 16 18 24 5 8 -13 10 -12 10 3 0 9 -6 17 -12 18 -7 1 -31 3 -53 6
-22 2 -47 4 -55 4 -25 1 -70 21 -65 30 3 4 -54 10 -127 11 -258 7 -2515 5
-2673 -3z"/>
<path d="M3760 149 c0 -5 11 -9 25 -9 14 0 25 2 25 4 0 2 -11 6 -25 8 -14 3
-25 1 -25 -3z"/>
</g>
</svg>
