<?xml version="1.0" standalone="no"?>
<!DOCTYPE svg PUBLIC "-//W3C//DTD SVG 20010904//EN"
 "http://www.w3.org/TR/2001/REC-SVG-20010904/DTD/svg10.dtd">
<svg version="1.0" xmlns="http://www.w3.org/2000/svg"
 width="100%" height="auto" viewBox="0 0 317.000000 107.000000"
 preserveAspectRatio="xMidYMid meet">

<g transform="translate(0.000000,107.000000) scale(0.100000,-0.100000)"
fill="#ff7bc9" stroke="none">
<path d="M1678 1019 c-3 -9 -128 -12 -278 -6 -47 2 -96 0 -109 -5 -15 -5 -28
-4 -37 2 -18 16 -104 2 -104 -16 0 -17 -12 -18 -26 -4 -8 8 -20 7 -40 -1 -16
-7 -38 -14 -49 -16 -44 -7 -131 -25 -150 -29 -16 -4 -17 -3 -5 5 12 9 11 11
-7 11 -25 0 -39 -16 -21 -24 7 -3 -7 -3 -32 1 -25 4 -61 7 -80 8 -19 0 -45 6
-56 13 -15 8 -38 9 -76 2 -42 -6 -66 -5 -98 6 -38 13 -48 13 -97 -1 -31 -9
-61 -14 -69 -11 -7 3 -16 1 -19 -5 -10 -15 -78 -40 -94 -34 -17 7 -101 -78
-101 -101 0 -9 -14 -44 -31 -79 -30 -63 -43 -148 -53 -345 -1 -25 -6 -59 -10
-77 -4 -19 -3 -34 3 -38 6 -3 8 -17 5 -30 -3 -12 -1 -26 5 -30 6 -3 9 -10 6
-15 -9 -15 20 -18 78 -9 51 8 60 7 79 -11 12 -11 31 -21 42 -21 12 -1 59 -2
106 -4 47 -1 96 -4 110 -5 47 -6 91 0 85 10 -4 7 22 9 77 6 46 -3 77 -3 71 0
-20 9 -15 24 7 24 11 0 20 -7 20 -15 0 -10 11 -15 35 -15 40 0 45 7 13 19 -21
8 -19 9 9 9 18 -1 30 -5 27 -10 -3 -4 25 -8 63 -9 50 -1 61 -3 43 -9 -24 -8
150 -5 375 6 154 8 206 7 218 -5 17 -17 4 -21 -69 -25 -244 -13 -282 -18 -288
-39 -4 -18 -1 -19 52 -13 31 3 97 9 146 12 49 3 93 7 97 9 3 3 51 7 105 11 55
3 102 8 106 10 10 7 106 15 213 18 145 6 342 35 370 56 6 4 33 11 60 15 28 3
64 13 80 20 l30 13 -45 3 c-41 2 -42 3 -11 6 36 5 88 33 61 33 -10 0 -11 3 -3
11 6 6 48 12 94 14 46 2 97 8 112 14 16 6 37 11 47 11 10 0 30 4 43 9 13 5 59
12 101 14 79 5 113 16 60 19 -86 4 -117 7 -122 12 -5 5 173 11 205 7 6 -1 15
3 18 9 4 6 1 11 -6 9 -8 -1 -23 0 -34 1 -43 4 38 27 84 24 l46 -3 -40 8 c-47
9 -126 43 -85 36 79 -13 160 -16 160 -6 0 6 -3 11 -7 11 -19 0 -245 39 -249
43 -3 2 24 8 58 13 40 5 53 9 36 11 -14 3 -32 11 -39 19 -11 14 -2 15 82 9 52
-3 101 -8 110 -11 9 -2 19 2 22 10 4 9 -2 17 -14 21 -10 4 -17 10 -14 15 3 5
-14 14 -37 20 -24 6 -51 15 -60 20 -10 6 -30 10 -45 10 -19 0 -24 3 -15 9 8 4
32 7 55 5 l42 -3 -34 10 c-42 13 -37 18 11 11 23 -2 35 -8 31 -15 -4 -6 2 -8
15 -5 12 3 22 2 24 -3 2 -5 16 -5 33 0 29 8 28 8 -23 19 -29 7 -60 12 -67 12
-8 0 -15 4 -15 9 0 5 -12 11 -27 13 -16 2 -26 8 -24 13 2 6 12 9 23 7 28 -5
21 15 -9 27 -27 10 -27 11 6 5 23 -4 31 -3 27 5 -4 6 -17 11 -29 11 -26 0 -62
19 -37 20 13 0 13 2 1 9 -11 7 -6 12 20 19 33 9 33 10 9 16 -14 3 -70 13 -125
20 -55 8 -122 19 -150 25 -74 17 -380 12 -423 -6 -30 -12 -36 -12 -51 1 -23
21 -51 20 -67 -1 -13 -17 -13 -17 -14 0 0 16 -10 21 -36 18 -7 -1 -14 5 -18
14 -4 11 -23 15 -78 16 -63 0 -69 2 -48 12 l25 11 -27 4 c-15 2 -35 -1 -45 -7
-11 -6 -24 -6 -36 1 -11 5 -34 7 -52 4 -23 -5 -38 -2 -49 9 -9 9 -20 13 -26
10 -5 -3 -10 2 -10 12 -1 17 -1 17 -11 1 -5 -10 -15 -18 -21 -18 -7 0 -7 4 1
14 9 10 8 15 -3 19 -8 3 -16 2 -18 -4z m186 -65 c33 -13 14 -22 -36 -18 -69 7
-88 24 -26 24 26 0 53 -3 62 -6z m1059 -201 c-7 -2 -19 -2 -25 0 -7 3 -2 5 12
5 14 0 19 -2 13 -5z m-1958 -543 c-50 -8 -202 -13 -240 -9 -43 5 85 16 185 16
84 0 95 -1 55 -7z m-272 -7 c-7 -2 -19 -2 -25 0 -7 3 -2 5 12 5 14 0 19 -2 13
-5z m-16 -19 c-3 -3 -12 -4 -19 -1 -8 3 -5 6 6 6 11 1 17 -2 13 -5z"/>
<path d="M2020 970 c-32 -7 -30 -7 20 -9 39 0 51 2 40 9 -8 5 -17 9 -20 9 -3
-1 -21 -5 -40 -9z"/>
<path d="M3038 773 c6 -2 18 -2 25 0 6 3 1 5 -13 5 -14 0 -19 -2 -12 -5z"/>
<path d="M3098 763 c7 -3 16 -2 19 1 4 3 -2 6 -13 5 -11 0 -14 -3 -6 -6z"/>
<path d="M2966 541 c-3 -4 6 -6 19 -3 14 2 25 6 25 8 0 8 -39 4 -44 -5z"/>
<path d="M3048 533 c6 -2 18 -2 25 0 6 3 1 5 -13 5 -14 0 -19 -2 -12 -5z"/>
<path d="M808 143 c6 -2 18 -2 25 0 6 3 1 5 -13 5 -14 0 -19 -2 -12 -5z"/>
<path d="M1089 115 c-3 -2 -52 -5 -110 -6 -96 -1 -105 -3 -105 -20 0 -10 4
-19 8 -19 4 0 8 5 8 10 0 6 7 10 15 10 8 0 15 -4 15 -10 0 -15 48 -12 53 3 3
9 8 9 21 -2 11 -10 20 -11 24 -5 11 17 42 25 42 11 0 -7 14 -12 35 -11 43 1
52 9 35 29 -12 15 -32 20 -41 10z"/>
<path d="M773 103 c9 -2 23 -2 30 0 6 3 -1 5 -18 5 -16 0 -22 -2 -12 -5z"/>
<path d="M845 100 c3 -5 8 -10 11 -10 2 0 4 5 4 10 0 6 -5 10 -11 10 -5 0 -7
-4 -4 -10z"/>
</g>
</svg>
