<?xml version="1.0" standalone="no"?>
<!DOCTYPE svg PUBLIC "-//W3C//DTD SVG 20010904//EN"
 "http://www.w3.org/TR/2001/REC-SVG-20010904/DTD/svg10.dtd">
<svg version="1.0" xmlns="http://www.w3.org/2000/svg"
 width="799.000000pt" height="335.000000pt" viewBox="0 0 799.000000 335.000000"
 preserveAspectRatio="xMidYMid meet">

<g transform="translate(0.000000,335.000000) scale(0.100000,-0.100000)"
fill="rgba(255, 192, 203, 0.2)" stroke="none">
<path d="M3395 3244 c-15 -8 -43 -14 -63 -14 -65 0 -20 -17 90 -34 59 -9 130
-16 159 -16 48 0 51 1 45 23 -3 12 -6 29 -6 37 0 22 -185 25 -225 4z"/>
<path d="M2753 3213 c9 -2 23 -2 30 0 6 3 -1 5 -18 5 -16 0 -22 -2 -12 -5z"/>
<path d="M5208 3200 c-10 -6 -18 -18 -18 -25 0 -13 -34 -15 -217 -15 -120 -1
-276 -2 -348 -4 -75 -2 -140 1 -153 7 -16 8 -26 7 -34 -1 -9 -9 -82 -12 -252
-12 -131 0 -237 -3 -234 -6 3 -3 86 -7 185 -9 118 -3 192 -9 218 -18 22 -8 56
-12 76 -10 19 3 100 -5 180 -16 92 -13 171 -19 219 -16 81 6 81 7 -22 -38 -44
-19 -59 -20 -221 -13 -165 6 -176 5 -198 -13 -13 -11 -19 -20 -12 -21 6 0 14
6 17 13 3 6 5 3 3 -8 -3 -30 -73 -35 -82 -6 -8 26 -41 27 -55 2 -16 -32 -12
-41 20 -41 17 0 30 -4 30 -10 0 -5 -5 -10 -11 -10 -7 0 -17 -8 -24 -17 -11
-15 -15 -15 -29 -4 -12 10 -15 23 -10 47 6 35 -10 69 -27 58 -5 -3 -15 -2 -21
3 -22 13 -121 12 -183 -2 -33 -7 -91 -16 -130 -19 -38 -2 -78 -8 -87 -11 -13
-5 -18 -2 -18 9 0 19 -23 32 -78 41 -55 9 -46 19 13 16 58 -3 61 20 5 43 -46
18 -90 6 -90 -26 0 -19 -16 -23 -39 -9 -12 8 -12 12 -2 25 11 13 9 17 -15 26
-15 6 -72 14 -126 17 -87 5 -98 4 -98 -10 0 -10 5 -17 10 -17 6 0 10 -4 10 -8
0 -5 -38 -6 -85 -4 -47 2 -97 1 -113 -3 -25 -7 -25 -8 -7 -15 11 -5 58 -9 105
-9 107 -1 160 -10 160 -26 0 -8 21 -15 55 -20 30 -3 55 -10 55 -15 0 -5 -15
-7 -32 -4 -104 14 -618 56 -754 61 -216 8 -233 -19 -31 -46 34 -5 107 -16 162
-26 55 -9 127 -20 160 -25 45 -7 28 -8 -70 -4 -71 4 -195 8 -275 10 -80 2
-183 11 -228 19 -77 15 -88 15 -134 -1 -39 -13 -55 -14 -74 -5 -34 15 -84 14
-103 -3 -13 -12 -36 -13 -133 -5 -81 7 -123 7 -137 0 -11 -6 -41 -11 -68 -12
-64 -1 -28 -17 42 -19 28 0 70 -5 95 -10 25 -6 89 -14 142 -19 115 -11 130
-17 98 -41 -22 -17 -21 -17 61 -30 46 -7 101 -19 123 -26 21 -8 51 -14 67 -14
16 0 29 -5 29 -11 0 -8 -18 -10 -55 -7 -30 3 -55 1 -55 -4 0 -4 5 -8 11 -8 6
0 9 -7 5 -15 -4 -12 3 -15 32 -16 20 0 45 -3 54 -7 15 -6 15 -9 2 -27 -14 -19
-15 -19 -44 -2 -26 16 -30 16 -30 3 0 -17 -9 -20 -34 -10 -8 3 -13 11 -10 19
3 7 -4 15 -18 18 -50 12 -206 17 -248 9 -25 -6 -35 -10 -23 -11 12 -1 30 -4
40 -8 14 -6 8 -9 -22 -14 -35 -5 -37 -6 -15 -11 14 -4 111 -14 215 -23 274
-23 377 -35 400 -48 11 -6 53 -10 93 -8 50 2 72 -1 72 -9 0 -8 -9 -10 -25 -6
-30 8 -34 -10 -5 -19 11 -3 20 -11 20 -16 0 -11 -115 -12 -155 0 -17 4 -98 10
-180 12 l-150 4 3 -27 c3 -29 -21 -44 -53 -32 -15 6 -17 3 -11 -20 6 -25 5
-27 -16 -20 -12 3 -28 13 -36 20 -8 8 -34 14 -63 14 -27 0 -68 5 -92 12 -39
10 -49 9 -100 -15 -31 -14 -57 -30 -57 -34 1 -25 24 -36 101 -45 46 -5 88 -14
93 -19 11 -10 -58 -13 -301 -12 -84 0 -153 -3 -153 -8 0 -5 17 -9 39 -9 63 0
144 -19 173 -40 15 -11 50 -25 78 -32 75 -17 61 -31 -23 -23 -60 6 -75 4 -86
-9 -10 -12 -26 -14 -76 -9 -71 6 -150 -10 -164 -35 -5 -8 -33 -18 -66 -24 -44
-7 -64 -16 -85 -38 -16 -17 -35 -30 -44 -30 -9 0 -16 -4 -16 -8 0 -20 39 -42
73 -42 20 0 37 -5 37 -11 0 -7 -7 -8 -17 -4 -32 12 -558 16 -588 5 -16 -6 -24
-14 -19 -19 5 -4 78 -14 163 -20 85 -7 164 -17 175 -22 15 -7 7 -8 -32 -6 -40
3 -50 1 -42 -8 8 -9 -5 -14 -52 -19 -78 -8 -149 -36 -146 -55 5 -27 63 -50
172 -67 70 -12 102 -21 90 -25 -28 -11 -110 -10 -182 1 -46 8 -68 7 -85 -1
-20 -11 -17 -13 38 -26 33 -7 83 -16 110 -20 28 -3 53 -10 56 -15 6 -10 202
-27 312 -28 37 0 67 -4 67 -9 0 -4 -21 -16 -46 -26 -43 -16 -46 -16 -64 0 -16
15 -40 18 -126 19 -58 1 -108 -2 -110 -6 -7 -12 12 -16 91 -22 95 -6 290 -24
342 -31 27 -4 43 -2 43 4 0 6 -21 12 -47 13 -41 1 -43 2 -13 6 19 2 77 1 128
-3 69 -5 92 -10 92 -21 0 -16 21 -19 36 -4 5 5 32 13 59 16 28 4 53 12 57 18
5 7 12 4 21 -8 12 -17 23 -18 83 -14 88 8 153 -2 133 -19 -18 -15 -83 -18
-171 -8 -46 5 -72 4 -81 -3 -13 -11 -288 2 -605 28 -93 8 -143 8 -204 -2 -45
-6 -76 -14 -70 -16 7 -2 12 -8 12 -13 0 -9 -28 -1 -48 14 -8 6 -32 12 -55 14
-28 2 -37 0 -28 -6 11 -7 9 -13 -8 -30 -26 -26 -23 -27 82 -36 42 -4 77 -11
77 -16 0 -6 -18 -8 -42 -5 -100 12 -248 17 -248 8 0 -5 46 -13 102 -17 55 -4
108 -10 117 -15 9 -4 34 -16 56 -26 l40 -19 -75 -3 c-52 -2 -77 -7 -83 -17 -6
-11 -26 -15 -67 -15 -32 0 -62 -5 -66 -11 -4 -7 -21 -9 -46 -5 -52 8 -140 -3
-135 -18 2 -6 32 -12 73 -13 96 -2 169 -24 169 -49 0 -18 -8 -19 -128 -19 -70
0 -127 -3 -127 -6 0 -8 79 -19 129 -19 20 0 61 -7 91 -15 30 -8 118 -19 195
-25 77 -6 165 -17 195 -25 30 -8 67 -16 81 -19 15 -3 29 -13 33 -21 4 -12 -6
-15 -58 -15 -44 0 -67 -5 -76 -15 -7 -8 -31 -20 -54 -27 -22 -6 -46 -15 -52
-20 -7 -5 -31 -14 -55 -21 -55 -16 -60 -42 -8 -42 20 0 42 -5 50 -11 41 -33
58 -35 117 -18 31 9 71 23 89 30 17 8 38 14 47 14 9 0 16 5 16 11 0 8 -29 9
-95 4 -107 -8 -117 -1 -58 40 28 19 50 25 89 25 46 0 55 -4 78 -31 26 -31 27
-31 75 -19 49 11 131 6 161 -11 9 -5 -8 -9 -47 -9 -34 0 -64 -4 -67 -9 -3 -4
-40 -11 -82 -15 -43 -4 -91 -15 -108 -24 l-31 -17 60 -3 c79 -3 105 -9 105
-26 0 -19 50 -27 170 -27 58 0 134 -4 170 -8 58 -8 49 -9 -70 -9 -74 0 -139
-1 -145 -2 -20 -4 62 -19 142 -26 94 -8 104 -12 106 -48 l2 -26 100 0 c93 -1
98 -2 69 -14 -18 -8 -35 -19 -38 -25 -4 -6 -16 -11 -27 -11 -35 0 -20 -18 39
-45 66 -31 71 -28 -88 -65 -52 -12 -122 -33 -155 -45 -33 -13 -77 -28 -97 -35
-29 -9 -37 -17 -40 -38 -2 -22 -14 -32 -65 -57 -35 -16 -63 -33 -63 -36 0 -15
41 -21 171 -28 103 -5 142 -11 162 -24 43 -28 49 -48 21 -80 -31 -36 -97 -53
-233 -60 -78 -4 -108 -9 -120 -22 -15 -15 -11 -16 56 -9 60 5 77 4 99 -11 19
-12 38 -16 65 -12 22 3 41 2 44 -3 2 -4 34 -10 71 -14 44 -5 72 -13 86 -26 12
-11 46 -27 77 -35 31 -9 61 -23 67 -30 7 -10 60 -17 182 -26 154 -10 181 -10
262 6 82 16 131 17 468 11 1054 -19 1773 -42 1919 -61 60 -8 191 -18 293 -21
222 -8 293 2 371 52 46 29 54 31 71 20 19 -13 60 -13 216 0 71 6 74 24 4 24
-36 1 -43 3 -30 11 9 5 84 9 165 9 81 0 179 0 216 0 45 0 66 -3 62 -10 -3 -5
-26 -10 -50 -10 -50 0 -69 -16 -30 -26 25 -6 153 1 161 9 3 3 -7 7 -21 11 -42
11 -28 26 25 26 43 0 52 -3 59 -22 l8 -22 14 22 c12 20 22 22 94 22 44 0 122
7 174 15 121 20 397 89 481 120 36 14 80 28 98 31 34 7 39 19 18 46 -16 22
-26 23 -26 4 0 -22 -19 -29 -36 -15 -12 9 -26 9 -72 0 -31 -7 -66 -19 -78 -26
-13 -8 -26 -10 -37 -4 -10 6 -42 4 -89 -6 -40 -9 -102 -21 -138 -27 -106 -17
-110 -18 -110 -33 0 -8 6 -15 13 -16 6 0 1 -4 -11 -10 -29 -11 -42 -4 -42 22
0 17 -5 19 -52 14 -119 -11 -216 -13 -258 -6 l-45 8 35 6 c19 3 103 8 185 11
171 6 278 21 560 77 267 53 319 68 304 86 -7 7 -19 13 -28 11 -21 -3 -41 10
-41 27 0 9 10 12 39 8 41 -6 191 33 191 49 0 4 -10 6 -23 3 -15 -4 -32 1 -51
16 -25 20 -26 23 -11 38 14 14 17 14 25 1 5 -8 11 -19 13 -23 1 -5 15 -4 30 2
19 8 27 17 27 35 0 31 24 45 92 53 56 7 88 30 88 64 0 21 -2 21 -122 14 -68
-3 -139 -11 -158 -15 -19 -5 -66 -8 -104 -7 -62 3 -70 5 -78 26 -8 22 -13 23
-61 18 -28 -3 -61 -8 -72 -11 -11 -4 -27 -2 -35 4 -13 9 -12 12 5 26 16 12 38
14 118 8 69 -5 97 -3 97 5 0 6 9 11 21 11 11 0 40 5 64 11 48 12 51 29 7 29
-15 0 -40 7 -57 16 -16 9 -66 22 -110 31 -44 8 -108 19 -141 26 -40 7 -66 17
-73 29 -10 17 -7 18 42 18 30 0 57 3 61 7 4 5 35 7 69 6 67 -3 62 3 -18 22
l-50 13 40 1 c22 0 101 -8 175 -19 168 -25 163 -25 155 0 -9 27 21 27 50 0 18
-17 27 -19 50 -10 15 6 42 11 59 11 63 0 146 11 146 19 0 5 -21 12 -47 15 -78
11 -189 34 -338 70 -77 19 -159 37 -183 41 -23 4 -45 10 -48 15 -8 14 86 55
185 80 51 13 88 25 81 27 -6 2 -51 -5 -98 -17 -48 -11 -132 -28 -187 -37 -55
-9 -112 -19 -127 -21 -26 -5 -28 -3 -28 27 l0 33 -92 -6 c-114 -7 -289 19
-247 37 21 9 240 26 357 28 39 0 63 18 25 18 -10 0 -56 14 -103 30 -46 17 -96
30 -111 30 -15 0 -40 5 -55 10 -15 6 -71 13 -123 15 -53 3 -127 10 -166 16
-38 5 -87 12 -107 16 -30 4 -38 2 -38 -10 0 -8 6 -18 13 -20 23 -10 -15 -26
-52 -23 -39 4 -49 17 -27 36 12 9 13 17 5 32 -10 19 -7 20 93 19 131 0 253 5
348 14 41 3 115 3 163 -2 80 -8 95 -7 163 15 66 21 76 28 89 58 8 19 19 34 26
34 7 0 20 7 30 16 10 9 35 17 57 20 60 5 95 22 88 40 -3 9 -6 26 -6 39 0 23
-1 23 -132 28 -166 5 -508 50 -508 67 0 23 234 40 394 27 116 -8 172 -5 162
12 -8 12 -309 41 -549 52 -12 1 -5 5 17 10 25 6 77 6 140 -1 56 -6 133 -7 172
-4 59 5 77 3 102 -12 28 -16 36 -16 79 -5 26 7 63 13 81 12 150 -7 264 2 282
24 8 9 1 14 -29 19 -30 4 -44 13 -58 36 -21 36 -23 37 -148 45 -159 10 -367
45 -274 45 16 0 31 11 46 35 l23 34 -53 15 c-28 9 -87 18 -129 22 -61 4 -82
10 -102 29 -17 16 -21 26 -14 33 13 13 8 16 -76 31 -103 19 -93 29 45 41 57 5
119 12 138 16 49 10 228 -14 235 -32 8 -20 134 -19 172 1 16 8 39 15 52 15 31
0 64 18 56 31 -7 11 -72 4 -116 -13 -28 -10 -275 4 -333 20 -26 8 -22 10 40
17 l70 9 -55 7 c-308 40 -477 60 -592 70 -146 14 -183 29 -70 29 73 0 112 7
112 21 0 5 -11 9 -23 9 -24 0 -62 32 -51 42 3 4 18 2 34 -4 19 -6 35 -6 47 0
11 6 93 6 228 0 116 -5 284 -10 375 -11 l165 -2 11 35 c7 23 28 48 63 74 55
42 63 66 33 102 -9 12 -27 24 -39 27 -19 4 -23 1 -23 -18 0 -43 -21 -49 -118
-32 -147 27 -206 37 -237 41 -16 3 -70 10 -120 16 -133 18 -293 28 -540 34
-121 3 -240 10 -265 15 -25 6 -58 10 -75 10 -16 0 -61 4 -98 8 -37 5 -73 5
-80 1 -7 -4 -41 -8 -75 -8 -49 0 -70 5 -89 20 -14 11 -33 20 -42 21 -9 1 0 5
19 10 19 5 151 8 293 7 218 -1 263 -4 289 -17 30 -17 98 -17 98 0 0 14 42 10
70 -6 14 -8 40 -14 58 -15 18 0 32 -5 32 -12 1 -9 5 -8 13 3 9 12 30 16 89 16
65 0 75 -3 71 -16 -5 -13 -3 -14 8 -3 8 7 42 12 90 12 92 0 115 -6 98 -26 -10
-12 -2 -14 42 -13 30 1 43 4 29 6 -14 3 -29 9 -35 15 -7 7 1 9 25 4 19 -4 68
-12 108 -18 49 -7 72 -15 72 -24 0 -15 5 -17 65 -19 22 -1 70 -5 108 -10 47
-5 67 -5 67 3 0 42 -266 102 -581 131 -58 6 -112 12 -120 15 -7 3 -66 10 -129
15 -173 15 -403 41 -423 47 -37 12 -3 24 67 24 43 0 89 6 110 15 39 17 520 44
533 31 4 -4 1 -11 -7 -16 -26 -17 6 -11 51 9 24 10 82 22 129 26 55 5 78 10
65 15 -27 10 -282 30 -381 30 -45 0 -105 4 -134 10 -42 8 -59 7 -87 -6 -28
-14 -38 -15 -58 -4 -13 7 -36 10 -52 7 -15 -3 -91 -1 -168 4 -77 5 -282 14
-455 20 -173 5 -344 12 -380 15 -38 3 -72 0 -82 -6z m-1731 -96 c-3 -3 -12 -4
-19 -1 -8 3 -5 6 6 6 11 1 17 -2 13 -5z m79 -39 c-3 -9 -11 -13 -16 -10 -8 5
-7 11 1 21 14 18 24 11 15 -11z m-209 -91 c-3 -3 -12 -4 -19 -1 -8 3 -5 6 6 6
11 1 17 -2 13 -5z m191 -11 c-10 -2 -28 -2 -40 0 -13 2 -5 4 17 4 22 1 32 -1
23 -4z m-1325 -20 c-7 -2 -19 -2 -25 0 -7 3 -2 5 12 5 14 0 19 -2 13 -5z
m2165 -23 c10 -17 10 -21 -3 -26 -19 -8 -28 0 -32 26 -4 26 19 26 35 0z m77
10 c4 -6 -5 -10 -19 -10 -14 0 -26 5 -26 10 0 6 9 10 19 10 11 0 23 -4 26 -10z
m151 -5 c18 -15 18 -15 -5 -13 -14 2 -26 9 -29 16 -5 17 10 15 34 -3z m92 -4
c-2 -10 -14 -16 -33 -16 -19 0 -31 6 -33 16 -2 11 6 15 33 15 27 0 35 -4 33
-15z m-184 0 c7 -11 -22 -23 -36 -15 -6 4 -5 10 3 15 18 11 26 11 33 0z m-374
-11 c0 -5 -4 -10 -10 -10 -5 0 -10 5 -10 10 0 6 5 10 10 10 6 0 10 -4 10 -10z
m-976 -40 c-7 -7 -19 -7 -35 -1 -23 9 -22 10 11 10 23 1 31 -2 24 -9z m-684
-40 c0 -5 -4 -10 -10 -10 -5 0 -10 5 -10 10 0 6 5 10 10 10 6 0 10 -4 10 -10z
m1446 -4 c10 -8 15 -18 11 -22 -4 -4 -17 2 -29 14 -25 25 -13 30 18 8z m-1161
-16 c110 -11 253 -24 318 -28 121 -9 150 -20 123 -48 -17 -16 -96 -7 -96 12 0
16 -59 28 -103 21 -46 -8 -432 38 -458 54 -20 12 -16 12 216 -11z m1405 1 c0
-10 -115 -20 -142 -13 -43 11 -11 22 62 22 44 0 80 -4 80 -9z m123 -6 c-2 -5
-14 -11 -28 -12 -25 -2 -32 7 -18 21 10 10 48 3 46 -9z m77 -11 c0 -9 -7 -14
-17 -12 -25 5 -28 28 -4 28 12 0 21 -6 21 -16z m409 2 c20 -13 0 -27 -29 -21
-15 3 -31 2 -34 -4 -4 -6 -16 -4 -34 5 -35 18 -52 18 -52 -1 0 -20 -114 -19
-131 1 -9 11 -15 11 -25 3 -8 -6 -25 -8 -39 -5 -16 4 -25 2 -25 -5 0 -7 -3
-10 -6 -7 -3 4 -1 15 4 25 9 16 25 18 185 17 96 -1 180 -5 186 -8z m1188 -60
c135 -2 197 -7 208 -16 11 -9 23 -10 42 -2 34 11 159 8 303 -8 98 -11 166 -16
317 -25 34 -2 79 -8 100 -14 21 -6 61 -11 89 -11 34 0 56 -5 64 -15 21 -26 4
-29 -67 -12 -40 10 -85 14 -109 11 -30 -5 -49 -2 -67 11 -14 9 -30 15 -34 12
-4 -3 -69 -1 -143 4 -74 5 -211 12 -305 14 -93 3 -195 7 -225 9 -30 2 -178 5
-327 7 -255 2 -274 3 -290 21 -17 19 -17 19 7 14 14 -3 61 -2 105 3 44 4 94 7
110 5 17 -2 117 -6 222 -8z m-3172 -27 c133 -24 115 -29 -70 -19 -164 9 -215
17 -215 33 0 12 192 3 285 -14z m194 -25 c2 -2 -14 -4 -37 -4 -23 0 -42 5 -42
10 0 10 67 4 79 -6z m51 -4 c0 -5 -4 -10 -10 -10 -5 0 -10 5 -10 10 0 6 5 10
10 10 6 0 10 -4 10 -10z m1245 -160 c0 -18 -33 -26 -47 -12 -6 6 -7 15 -3 22
10 16 50 8 50 -10z m-1768 -26 c-3 -3 -12 -4 -19 -1 -8 3 -5 6 6 6 11 1 17 -2
13 -5z m100 -10 c-3 -3 -12 -4 -19 -1 -8 3 -5 6 6 6 11 1 17 -2 13 -5z m134
-10 c34 -6 35 -8 25 -31 -10 -22 -15 -24 -56 -17 -25 4 -59 8 -77 9 -18 0 -38
6 -45 14 -11 11 -2 12 55 6 43 -4 67 -3 67 4 0 5 -12 12 -27 14 -27 4 -27 4
-3 5 14 1 41 -1 61 -4z m3862 -46 c-15 -7 -30 -7 -50 0 -26 10 -24 10 22 11
42 0 46 -2 28 -11z m-4140 -35 c-7 -2 -19 -2 -25 0 -7 3 -2 5 12 5 14 0 19 -2
13 -5z m282 -23 c17 -7 16 -9 -10 -9 -16 0 -48 4 -70 8 l-40 9 50 0 c28 0 59
-3 70 -8z m-432 -46 c32 -10 6 -25 -31 -18 -39 7 -76 10 -159 13 -31 0 -53 6
-53 12 0 8 33 9 113 4 61 -3 120 -9 130 -11z m445 -47 c3 -14 -5 -17 -37 -17
-23 0 -41 5 -41 11 0 7 10 9 25 5 19 -5 25 -2 25 10 0 20 24 13 28 -9z m-658
3 c0 -5 -4 -10 -10 -10 -5 0 -10 5 -10 10 0 6 5 10 10 10 6 0 10 -4 10 -10z
m3590 -10 c0 -5 -4 -10 -10 -10 -5 0 -10 5 -10 10 0 6 5 10 10 10 6 0 10 -4
10 -10z m-3402 -117 c-10 -2 -28 -2 -40 0 -13 2 -5 4 17 4 22 1 32 -1 23 -4z
m-281 -9 c-3 -3 -12 -4 -19 -1 -8 3 -5 6 6 6 11 1 17 -2 13 -5z m531 -11 c39
-3 72 -10 72 -15 0 -6 -17 -7 -37 -4 -21 3 -74 8 -118 12 -44 4 -89 11 -100
16 -20 8 -1 7 183 -9z m-641 -49 c-3 -3 -12 -4 -19 -1 -8 3 -5 6 6 6 11 1 17
-2 13 -5z m263 -62 c-16 -2 -38 1 -47 7 -16 9 -14 10 9 11 15 0 30 5 33 11 5
6 12 4 20 -8 12 -16 11 -18 -15 -21z m160 19 c0 -5 -9 -7 -20 -4 -11 3 -20 7
-20 9 0 2 9 4 20 4 11 0 20 -4 20 -9z m-792 -41 l27 -8 -25 -1 c-14 0 -50 6
-80 14 l-55 15 53 -6 c29 -3 65 -10 80 -14z m5982 -36 c0 -2 -16 -4 -35 -4
-19 0 -35 4 -35 8 0 4 16 6 35 4 19 -2 35 -6 35 -8z m-5170 -74 c12 -8 12 -10
-5 -10 -11 0 -27 5 -35 10 -12 8 -12 10 5 10 11 0 27 -5 35 -10z m123 -17 c-7
-2 -19 -2 -25 0 -7 3 -2 5 12 5 14 0 19 -2 13 -5z m-808 -133 c3 -5 -3 -10
-14 -10 -10 0 -25 -2 -33 -5 -7 -3 -22 1 -33 9 -19 14 -17 15 27 16 26 0 50
-4 53 -10z m265 -17 c0 -12 -58 -14 -65 -3 -4 6 9 10 29 10 20 0 36 -3 36 -7z
m-433 -9 c-3 -3 -12 -4 -19 -1 -8 3 -5 6 6 6 11 1 17 -2 13 -5z m868 -54 c19
-8 19 -9 -2 -9 -12 -1 -25 -5 -28 -11 -7 -11 -54 -13 -79 -4 -9 3 -16 12 -16
20 0 16 90 19 125 4z m80 -10 c16 -7 14 -9 -12 -7 -18 1 -33 5 -33 9 0 10 19
9 45 -2z m57 -49 c42 -18 81 -51 60 -51 -6 0 -23 6 -39 14 -15 8 -41 19 -56
25 -15 6 -25 16 -22 21 8 13 6 13 57 -9z m-499 2 c-7 -2 -19 -2 -25 0 -7 3 -2
5 12 5 14 0 19 -2 13 -5z m387 -8 c0 -5 13 -17 28 -26 21 -12 31 -28 38 -60
11 -51 36 -68 104 -70 34 0 40 -2 25 -9 -41 -17 -81 -11 -120 20 -41 32 -55
36 -72 19 -8 -8 -17 -7 -34 2 -15 7 -19 14 -11 17 6 2 12 15 12 29 0 21 -4 24
-21 20 -24 -6 -49 1 -49 14 0 5 8 9 17 9 10 0 13 3 8 9 -13 11 -144 21 -150
11 -3 -5 3 -10 12 -13 17 -4 17 -4 0 -12 -9 -4 -29 -4 -45 1 -20 5 -23 8 -9
11 32 8 17 23 -23 23 -22 0 -40 3 -40 8 0 4 74 7 165 7 103 0 165 -4 165 -10z
m398 -14 c5 -32 -10 -44 -47 -36 -32 7 -43 25 -16 25 18 0 19 12 3 29 -11 10
-6 12 22 9 28 -2 36 -8 38 -27z m-529 -20 c9 -6 10 -11 2 -15 -14 -9 -51 2
-51 15 0 11 30 12 49 0z m-939 -31 c0 -18 -40 -32 -56 -19 -23 19 -16 29 21
29 19 0 35 -4 35 -10z m4551 -19 c13 -11 21 -23 16 -27 -4 -4 -13 -2 -19 4 -7
7 -22 12 -34 12 -24 0 -38 13 -27 24 12 12 41 6 64 -13z m-4233 -17 c34 -4 62
-11 62 -16 0 -6 -19 -8 -47 -4 -27 3 -102 8 -167 12 -66 4 -131 10 -145 15
-27 9 179 4 297 -7z m4344 -21 c10 -10 6 -13 -19 -13 -36 0 -65 9 -59 19 7 11
65 6 78 -6z m-4942 -13 c24 -8 24 -8 -5 -8 -16 0 -43 4 -60 8 l-30 8 35 0 c19
0 46 -4 60 -8z m5020 0 c0 -5 -11 -10 -24 -10 -14 0 -28 5 -31 10 -4 6 7 10
24 10 17 0 31 -4 31 -10z m453 -16 c55 -10 45 -19 -20 -19 -36 0 -58 4 -60 13
-5 13 20 15 80 6z m-5256 -10 c-3 -3 -12 -4 -19 -1 -8 3 -5 6 6 6 11 1 17 -2
13 -5z m1623 -4 c12 -8 11 -10 -7 -10 -13 0 -23 5 -23 10 0 13 11 13 30 0z
m620 -30 c0 -5 -5 -10 -11 -10 -5 0 -7 5 -4 10 3 6 8 10 11 10 2 0 4 -4 4 -10z
m-1380 -8 c0 -4 -17 -6 -37 -4 -59 5 -63 10 -10 11 26 1 47 -3 47 -7z m180 -2
c17 -6 2 -8 -52 -9 -46 -1 -78 3 -78 9 0 12 94 12 130 0z m-735 -10 c18 -8 17
-9 -7 -9 -15 -1 -30 4 -33 9 -7 12 12 12 40 0z m933 -58 c2 -7 -2 -10 -12 -6
-9 3 -16 11 -16 16 0 13 23 5 28 -10z m-1083 -12 c16 -7 12 -9 -18 -9 -23 -1
-36 3 -32 9 7 12 23 12 50 0z m80 -10 c-3 -5 -10 -10 -16 -10 -5 0 -9 5 -9 10
0 6 7 10 16 10 8 0 12 -4 9 -10z m353 -7 c28 -3 52 -10 52 -16 0 -10 -221 -3
-316 10 -141 19 104 25 264 6z m182 -13 c24 0 31 -3 23 -11 -15 -15 -95 -7
-101 10 -4 10 1 12 19 8 13 -4 40 -7 59 -7z m1580 -110 c-20 -13 -53 -13 -45
0 3 6 18 10 33 10 21 0 24 -2 12 -10z m3480 -50 c12 -8 11 -10 -5 -9 -11 1
-31 5 -45 9 -24 8 -24 8 5 9 17 0 37 -4 45 -9z m95 -20 c18 -8 17 -9 -7 -9
-15 -1 -30 4 -33 9 -7 12 12 12 40 0z m115 -20 c12 -8 10 -10 -10 -10 -14 0
-32 5 -40 10 -12 8 -10 10 10 10 14 0 32 -5 40 -10z m110 -20 c0 -13 -20 -13
-40 0 -12 8 -9 10 13 10 15 0 27 -4 27 -10z m-351 -19 c9 -6 5 -10 -15 -12
-36 -6 -64 0 -64 12 0 11 60 12 79 0z m-304 -151 c15 -7 10 -9 -23 -9 -26 -1
-41 3 -37 9 7 12 32 12 60 0z m-4621 -70 c29 -30 28 -50 -4 -50 -12 0 -20 8
-22 23 -2 17 -11 23 -38 27 -32 5 -33 6 -15 17 31 19 47 15 79 -17z m5374 -75
c-11 -11 -300 -98 -402 -121 -109 -24 -219 -32 -200 -15 14 14 226 71 262 71
18 0 83 13 145 29 136 36 209 49 195 36z m-2828 -25 c0 -5 -7 -10 -15 -10 -8
0 -15 5 -15 10 0 6 7 10 15 10 8 0 15 -4 15 -10z m2700 -120 c-8 -6 -28 -9
-45 -9 -29 1 -28 2 10 14 42 13 60 10 35 -5z m-1129 -13 c-13 -13 -26 -3 -16
12 3 6 11 8 17 5 6 -4 6 -10 -1 -17z m249 4 c14 -27 13 -61 -3 -61 -7 0 -26
14 -42 30 -19 20 -35 28 -47 24 -18 -5 -25 6 -11 19 3 4 26 7 49 7 33 0 46 -5
54 -19z m-379 -5 c-9 -11 -27 -13 -69 -9 -93 9 -95 22 -3 23 71 0 82 -2 72
-14z m654 -6 c28 -3 -51 -28 -92 -29 -34 -1 -41 7 -23 25 9 9 59 11 115 4z
m-208 -15 c3 -9 3 -18 0 -21 -7 -8 -47 15 -47 26 0 16 40 11 47 -5z m633 0 c0
-12 -43 -25 -63 -19 -21 7 -21 7 -2 15 22 9 65 12 65 4z m-139 -30 c0 -13 -41
-19 -41 -7 0 11 20 22 33 18 5 -1 8 -6 8 -11z m-81 -15 c0 -5 -6 -10 -14 -10
-7 0 -29 -3 -47 -6 -43 -9 -31 6 13 16 47 11 48 11 48 0z m260 -10 c0 -5 -5
-10 -11 -10 -5 0 -7 5 -4 10 3 6 8 10 11 10 2 0 4 -4 4 -10z m-3770 -120 c0
-5 -4 -10 -10 -10 -5 0 -10 5 -10 10 0 6 5 10 10 10 6 0 10 -4 10 -10z m50
-50 c0 -5 -2 -10 -4 -10 -3 0 -8 5 -11 10 -3 6 -1 10 4 10 6 0 11 -4 11 -10z
m430 -20 c0 -5 -5 -10 -11 -10 -5 0 -7 5 -4 10 3 6 8 10 11 10 2 0 4 -4 4 -10z
m2000 -10 c0 -5 -9 -10 -21 -10 -11 0 -17 5 -14 10 3 6 13 10 21 10 8 0 14 -4
14 -10z m960 0 c0 -5 -12 -10 -27 -10 -22 0 -25 2 -13 10 20 13 40 13 40 0z
m-907 -7 c-7 -2 -19 -2 -25 0 -7 3 -2 5 12 5 14 0 19 -2 13 -5z m767 -13 c0
-5 -4 -10 -10 -10 -5 0 -10 5 -10 10 0 6 5 10 10 10 6 0 10 -4 10 -10z m30 0
c0 -5 -4 -10 -10 -10 -5 0 -10 5 -10 10 0 6 5 10 10 10 6 0 10 -4 10 -10z
m-915 -17 c31 -5 35 -8 20 -14 -28 -11 -113 -11 -119 0 -12 19 33 25 99 14z
m545 -8 c0 -13 -13 -15 -87 -11 -49 2 -90 5 -93 7 -3 1 24 5 60 9 114 11 120
11 120 -5z m61 -8 c-13 -13 -26 -3 -16 12 3 6 11 8 17 5 6 -4 6 -10 -1 -17z
m94 13 c3 -5 -3 -10 -14 -10 -12 0 -21 5 -21 10 0 6 6 10 14 10 8 0 18 -4 21
-10z m-623 -12 c-9 -9 -15 -9 -24 0 -9 9 -7 12 12 12 19 0 21 -3 12 -12z m208
2 c-19 -13 -30 -13 -30 0 0 6 10 10 23 10 18 0 19 -2 7 -10z m-4157 -10 c33
-1 38 -3 25 -10 -10 -6 -41 -7 -75 -4 -41 5 -52 9 -38 15 11 4 26 6 33 3 8 -2
32 -4 55 -4z m165 -10 c24 -1 25 -2 9 -11 -23 -14 -98 -2 -76 12 8 5 20 7 27
4 8 -3 26 -5 40 -5z m202 -10 c0 -5 -7 -10 -15 -10 -8 0 -15 5 -15 10 0 6 7
10 15 10 8 0 15 -4 15 -10z"/>
<path d="M2380 1521 c0 -5 10 -11 23 -15 33 -9 37 -7 31 9 -6 16 -54 21 -54 6z"/>
<path d="M2488 3143 c17 -2 47 -2 65 0 17 2 3 4 -33 4 -36 0 -50 -2 -32 -4z"/>
<path d="M2850 3130 c0 -5 9 -10 21 -10 11 0 17 5 14 10 -3 6 -13 10 -21 10
-8 0 -14 -4 -14 -10z"/>
<path d="M3015 3121 c11 -4 67 -10 125 -13 58 -3 93 -1 78 3 -41 11 -227 21
-203 10z"/>
<path d="M7100 3111 c0 -21 35 -33 122 -41 51 -5 104 -9 118 -9 47 0 -2 16
-100 33 -52 9 -105 19 -117 21 -13 3 -23 1 -23 -4z"/>
<path d="M1710 2960 c0 -5 5 -10 10 -10 6 0 10 5 10 10 0 6 -4 10 -10 10 -5 0
-10 -4 -10 -10z"/>
<path d="M1760 2920 c20 -13 33 -13 25 0 -3 6 -14 10 -23 10 -15 0 -15 -2 -2
-10z"/>
<path d="M1877 2900 c12 -5 50 -11 85 -14 l63 -6 -60 15 c-33 8 -71 14 -85 14
-24 0 -24 -1 -3 -9z"/>
<path d="M1880 2750 c20 -13 40 -13 40 0 0 6 -12 10 -27 10 -22 0 -25 -2 -13
-10z"/>
<path d="M1735 2730 c-8 -12 -8 -12 92 -14 46 0 83 2 83 5 0 17 -165 26 -175
9z"/>
<path d="M2048 2583 c6 -2 18 -2 25 0 6 3 1 5 -13 5 -14 0 -19 -2 -12 -5z"/>
<path d="M1238 2443 c7 -3 16 -2 19 1 4 3 -2 6 -13 5 -11 0 -14 -3 -6 -6z"/>
<path d="M1255 2252 c28 -13 195 -22 195 -11 0 5 -17 9 -37 9 -21 0 -69 2
-108 5 -45 4 -63 2 -50 -3z"/>
<path d="M7690 1950 c0 -5 5 -10 10 -10 6 0 10 5 10 10 0 6 -4 10 -10 10 -5 0
-10 -4 -10 -10z"/>
<path d="M758 1783 c7 -3 16 -2 19 1 4 3 -2 6 -13 5 -11 0 -14 -3 -6 -6z"/>
<path d="M965 1752 c15 -15 175 -28 175 -13 0 7 -21 11 -52 11 -29 0 -71 3
-93 6 -28 5 -37 3 -30 -4z"/>
<path d="M908 1518 c17 -8 26 -8 34 0 9 9 4 12 -22 11 -33 0 -34 -1 -12 -11z"/>
<path d="M366 1391 c-8 -12 25 -19 49 -11 17 6 17 7 -6 13 -32 9 -37 9 -43 -2z"/>
<path d="M460 1380 c0 -5 25 -10 56 -10 34 0 53 4 49 10 -3 6 -28 10 -56 10
-27 0 -49 -4 -49 -10z"/>
<path d="M7140 1360 c0 -5 10 -10 23 -10 18 0 19 2 7 10 -19 13 -30 13 -30 0z"/>
<path d="M7228 1303 c7 -3 16 -2 19 1 4 3 -2 6 -13 5 -11 0 -14 -3 -6 -6z"/>
<path d="M1150 1252 c0 -5 7 -13 16 -16 10 -4 14 -1 12 6 -5 15 -28 23 -28 10z"/>
<path d="M1116 1020 c-11 -3 -15 -9 -10 -13 10 -6 42 9 34 16 -3 3 -14 1 -24
-3z"/>
<path d="M1330 952 c-81 -21 -215 -100 -199 -117 4 -3 56 6 117 20 96 23 156
49 212 92 8 7 -24 23 -45 22 -11 0 -49 -8 -85 -17z"/>
<path d="M1570 910 c-11 -7 -3 -10 30 -10 33 0 41 3 30 10 -8 5 -22 10 -30 10
-8 0 -22 -5 -30 -10z"/>
<path d="M1780 900 c0 -5 10 -10 23 -10 18 0 19 2 7 10 -19 13 -30 13 -30 0z"/>
<path d="M1140 616 c0 -9 7 -16 16 -16 9 0 14 5 12 12 -6 18 -28 21 -28 4z"/>
<path d="M1150 509 c0 -5 5 -7 10 -4 6 3 10 8 10 11 0 2 -4 4 -10 4 -5 0 -10
-5 -10 -11z"/>
<path d="M7399 458 c-10 -18 -9 -20 6 -15 9 4 19 7 21 7 2 0 4 7 4 15 0 22
-18 18 -31 -7z"/>
<path d="M5900 160 c-12 -8 -9 -10 13 -10 15 0 27 5 27 10 0 13 -20 13 -40 0z"/>
</g>
</svg>
