<?xml version="1.0" standalone="no"?>
<!DOCTYPE svg PUBLIC "-//W3C//DTD SVG 20010904//EN"
 "http://www.w3.org/TR/2001/REC-SVG-20010904/DTD/svg10.dtd">
<svg version="1.0" xmlns="http://www.w3.org/2000/svg"
 width="761.000000pt" height="94.000000pt" viewBox="0 0 761.000000 94.000000"
 preserveAspectRatio="xMidYMid meet">

<g transform="translate(0.000000,94.000000) scale(0.100000,-0.100000)"
fill="pink" stroke="none">
<path d="M680 931 c0 -4 -13 -6 -29 -3 -23 3 -30 0 -36 -19 -7 -20 -9 -20 -17
-6 -13 23 -35 21 -41 -4 -3 -12 -10 -18 -15 -15 -5 3 -15 -1 -22 -9 -10 -12
-32 -15 -99 -13 -56 1 -94 -3 -110 -11 -17 -9 -26 -10 -34 -2 -14 14 -30 14
-21 0 4 -8 -1 -9 -17 -4 -47 15 -71 15 -65 -2 4 -10 2 -13 -7 -10 -19 7 -43
-8 -28 -17 6 -4 11 -2 11 4 0 6 5 8 10 5 6 -3 10 -18 9 -33 0 -24 -1 -25 -9
-7 -6 14 -9 15 -10 5 -1 -21 -23 18 -25 45 -2 22 -58 39 -85 26 -8 -5 -21 -6
-27 -4 -8 3 -13 -4 -13 -17 0 -16 4 -20 16 -16 25 10 63 -4 57 -20 -3 -8 -9
-11 -15 -8 -5 3 -12 -3 -15 -15 -3 -12 -10 -21 -15 -21 -5 0 -6 -4 -3 -10 3
-5 0 -10 -8 -10 -12 0 -15 -17 -16 -80 -1 -73 1 -80 19 -80 13 0 18 5 14 15
-7 17 11 21 21 5 4 -6 12 -7 18 -4 7 4 9 4 5 -1 -4 -4 -3 -14 3 -21 17 -20 23
-78 8 -68 -9 5 -10 2 -6 -9 4 -11 1 -17 -7 -17 -8 0 -13 10 -12 24 0 13 6 22
12 19 8 -3 10 5 6 24 -3 15 -7 22 -10 15 -2 -6 -8 -9 -13 -6 -6 3 -9 -9 -7
-28 2 -40 -9 -61 -27 -54 -8 3 -14 -2 -14 -12 -1 -9 -4 -34 -7 -55 -4 -25 -2
-43 7 -54 11 -13 11 -17 2 -20 -19 -7 -17 -79 2 -87 8 -3 15 -13 15 -23 0 -13
3 -14 12 -5 7 7 16 12 22 12 5 0 6 -3 3 -7 -4 -3 -2 -12 5 -20 9 -11 8 -13 -3
-11 -8 2 -14 -4 -14 -12 0 -10 9 -14 28 -13 15 1 27 -3 27 -8 0 -6 5 -7 10 -4
6 4 17 2 25 -5 11 -9 12 -7 8 9 -3 12 -1 21 6 21 6 0 11 -8 11 -17 0 -9 3 -13
7 -10 6 7 32 -21 33 -35 0 -4 -13 -3 -30 2 -18 5 -32 5 -35 -1 -4 -5 -15 -9
-26 -9 -10 0 -19 -4 -19 -10 0 -5 6 -10 13 -10 8 0 7 -3 -3 -9 -19 -13 -31 -4
-23 17 6 15 5 15 -10 3 -11 -9 -17 -10 -17 -2 0 6 -9 11 -21 11 -11 0 -18 -4
-15 -9 3 -5 -1 -14 -9 -21 -8 -7 -15 -28 -15 -46 l0 -34 373 0 c285 0 376 3
386 12 11 10 13 10 7 1 -5 -9 2 -13 26 -13 42 0 60 12 52 33 -3 9 -1 17 4 17
6 0 12 -10 14 -23 3 -20 9 -22 77 -25 53 -2 77 1 83 10 6 10 10 10 16 1 11
-18 4053 -17 4064 0 6 9 8 9 8 0 0 -10 87 -12 375 -13 206 0 375 3 375 6 0 2
-7 15 -16 28 -10 16 -12 26 -5 31 6 3 11 1 11 -4 0 -6 7 -11 16 -11 12 0 15
-6 10 -25 -6 -25 -5 -25 54 -25 58 0 83 15 38 22 -16 3 -11 5 15 9 33 4 38 3
34 -13 -4 -13 0 -18 14 -18 13 0 17 5 13 17 -5 17 -5 17 6 0 13 -20 50 -23 50
-3 0 8 7 16 15 20 10 4 15 -1 15 -15 0 -19 7 -19 514 -19 463 1 515 3 521 17
3 9 1 19 -5 23 -6 4 0 12 15 20 19 10 24 19 19 34 -6 19 -5 19 10 7 9 -8 14
-21 11 -31 -4 -13 1 -19 20 -22 20 -4 25 -1 25 15 0 16 -2 17 -15 7 -13 -11
-14 -10 -6 11 5 14 15 23 25 21 9 -2 16 2 16 8 0 5 8 10 17 10 15 0 14 -2 -3
-15 -19 -14 -18 -15 6 -34 22 -18 23 -20 7 -26 -19 -8 -24 -46 -5 -43 22 5 40
28 34 43 -3 9 0 15 9 15 9 0 16 -10 16 -22 1 -17 2 -19 6 -5 2 9 9 17 15 17 5
0 8 -6 5 -14 -11 -27 17 -36 110 -36 68 0 93 3 93 13 0 8 4 7 10 -3 7 -10 10
6 10 54 0 67 -1 68 -18 49 -15 -18 -19 -19 -32 -5 -13 14 -15 13 -26 -13 -6
-15 -13 -23 -15 -17 -3 8 -12 7 -33 -3 -25 -13 -27 -13 -22 1 6 17 -6 12 -36
-14 -20 -17 -20 -17 -23 16 -1 12 3 21 9 20 6 -1 21 4 34 11 13 7 31 10 40 6
13 -5 14 -3 5 6 -6 6 -9 19 -6 28 3 10 -1 8 -11 -5 -11 -16 -25 -22 -51 -20
-20 1 -37 -4 -40 -11 -2 -7 -9 -13 -15 -13 -6 0 -6 7 2 20 8 12 19 18 30 15 9
-3 20 0 24 6 4 7 3 9 -4 5 -6 -3 -13 -2 -17 4 -3 6 4 10 18 10 14 0 30 7 37
15 11 13 10 14 -5 9 -15 -6 -17 -3 -13 19 3 17 0 28 -9 31 -8 3 -11 1 -8 -4 3
-6 -1 -13 -9 -16 -9 -3 -14 -10 -11 -14 3 -5 1 -11 -5 -15 -11 -7 -14 35 -2
50 4 6 15 11 25 12 40 2 47 3 45 11 0 4 4 18 11 32 l12 25 -5 -25 c-5 -24 -4
-24 9 -5 8 11 21 28 31 37 9 9 13 22 8 29 -4 7 -3 10 3 6 11 -7 26 7 35 34 4
9 1 16 -5 17 -7 0 -22 4 -34 7 -14 5 -23 3 -23 -4 0 -5 7 -8 15 -5 19 8 16
-23 -6 -56 -17 -26 -39 -20 -39 11 0 10 -5 19 -11 19 -5 0 -8 3 -6 8 3 4 -6 8
-19 8 -15 1 -23 -3 -21 -10 2 -6 1 -21 -4 -32 -6 -18 -5 -21 12 -17 10 3 19
13 20 22 0 12 2 11 8 -4 6 -16 1 -25 -22 -42 -26 -19 -28 -23 -11 -24 11 0 14
-3 6 -6 -7 -3 -19 0 -26 7 -10 7 -16 8 -21 0 -3 -5 -11 -10 -17 -10 -6 0 -8 3
-5 7 4 3 2 12 -3 19 -6 6 -10 16 -9 20 3 20 -2 35 -10 30 -5 -3 -7 -15 -4 -25
3 -10 -3 -31 -13 -47 -19 -27 -19 -28 4 -22 12 4 20 2 16 -3 -8 -13 -30 -11
-43 5 -9 10 -8 15 2 19 7 2 14 19 15 36 2 31 2 31 -20 18 -38 -24 -74 -29 -88
-12 -7 8 -17 12 -22 9 -6 -4 -5 3 1 14 10 18 8 21 -9 19 -22 -1 -37 -37 -24
-58 4 -8 3 -9 -5 -5 -7 4 -15 -2 -20 -16 -7 -16 -10 -18 -10 -6 -1 9 4 20 9
23 12 8 -6 35 -22 35 -7 0 -6 -5 1 -13 11 -14 5 -27 -11 -27 -5 0 -6 5 -2 11
3 6 0 15 -7 20 -10 6 -11 9 -1 9 6 0 12 9 12 20 0 11 6 20 14 20 8 0 17 12 21
27 4 19 9 23 14 14 5 -7 11 -9 14 -5 3 5 -7 18 -21 28 -14 11 -22 14 -18 8 4
-8 -2 -16 -16 -21 -21 -9 -21 -10 -3 -11 17 -1 17 -3 -5 -11 -33 -13 -35 -16
-21 -33 9 -11 8 -15 -3 -19 -12 -5 -14 3 -10 40 2 25 7 50 11 56 4 6 0 8 -10
4 -12 -4 -14 -2 -10 10 3 9 0 21 -8 27 -8 6 -21 20 -29 30 -14 18 -13 19 2 13
23 -8 46 20 28 36 -9 8 -11 8 -7 1 12 -21 -18 -23 -44 -3 -13 10 -18 19 -11
19 7 0 10 5 7 10 -4 6 -10 8 -15 5 -5 -3 -11 -1 -15 5 -3 5 -16 9 -28 9 -16
-1 -17 -3 -5 -6 9 -2 19 -11 22 -20 5 -12 3 -13 -6 -6 -18 13 -43 11 -44 -4
-1 -7 -2 -17 -3 -23 0 -5 -8 -7 -16 -3 -14 5 -14 7 0 23 11 13 13 20 5 25 -8
5 -8 11 1 21 9 12 9 13 -2 9 -10 -4 -15 2 -16 16 -2 20 -1 20 23 4 24 -16 27
-15 40 2 18 24 17 30 -6 43 -16 8 -20 8 -18 -2 2 -9 -7 -12 -31 -10 -35 3 -63
-21 -54 -45 4 -9 0 -11 -11 -7 -14 5 -14 9 4 32 19 24 19 26 3 42 -10 10 -21
13 -24 8 -8 -12 -19 16 -19 47 0 13 -5 27 -12 31 -7 5 -8 3 -3 -6 5 -9 4 -11
-4 -6 -6 4 -8 13 -4 19 12 20 12 34 -1 34 -9 0 -12 -20 -12 -64 1 -35 -2 -63
-6 -63 -5 0 -8 -5 -8 -11 0 -5 6 -7 13 -3 6 4 4 -2 -6 -12 -18 -19 -19 -19
-33 1 -9 11 -20 19 -25 18 -5 -2 -9 4 -9 12 0 8 4 15 9 15 15 0 0 48 -18 55
-24 10 -64 -41 -59 -76 3 -15 1 -26 -3 -24 -4 3 -10 -2 -13 -11 -3 -8 -10 -12
-16 -9 -5 3 -10 -3 -10 -14 0 -24 -10 -27 -29 -8 -11 10 -13 10 -7 -1 4 -7 1
-12 -8 -12 -10 0 -16 9 -16 21 0 18 -2 19 -15 9 -19 -16 -19 -6 -1 23 7 12 13
32 12 44 -2 14 2 19 11 16 7 -3 13 -15 14 -27 0 -11 3 -15 6 -8 2 6 10 9 16 5
8 -5 8 -2 0 9 -7 8 -9 19 -5 23 4 5 2 5 -4 2 -18 -11 -25 35 -9 53 8 9 12 21
8 25 -5 5 -1 4 8 -3 14 -10 18 -10 23 3 3 8 1 15 -4 15 -6 0 -10 8 -10 19 0
27 -47 35 -55 10 -4 -11 -11 -19 -16 -19 -6 0 -8 4 -4 9 3 5 -5 17 -17 25 -21
15 -13 22 17 16 5 -1 1 8 -9 19 -24 27 -50 28 -43 2 2 -10 1 -25 -4 -32 -8
-12 -11 -11 -19 1 -8 12 -10 11 -10 -8 0 -13 4 -20 10 -17 6 3 10 1 10 -4 0
-6 -7 -11 -16 -11 -8 0 -12 -5 -9 -10 9 -14 -24 -25 -37 -12 -6 6 -11 25 -10
42 0 20 -4 30 -14 30 -8 0 -14 5 -14 11 0 8 -4 8 -14 0 -11 -10 -16 -8 -21 8
-3 12 -11 21 -18 21 -8 0 -8 -3 1 -12 15 -15 16 -42 1 -32 -6 4 -9 -1 -8 -12
4 -21 -7 -44 -22 -44 -5 0 -9 11 -9 25 0 14 5 25 10 25 6 0 10 5 10 12 0 6 -3
9 -6 5 -4 -3 -13 1 -22 9 -14 14 -17 14 -29 -10 -9 -17 -19 -23 -31 -20 -11 4
-9 -1 7 -14 16 -13 20 -21 12 -26 -6 -4 -11 -2 -11 4 0 6 -4 9 -9 6 -14 -9
-23 25 -10 40 18 22 3 44 -28 43 -17 -1 -21 -3 -10 -6 18 -5 23 -28 7 -38 -6
-4 -7 1 -3 11 5 12 3 15 -6 9 -8 -4 -17 -2 -22 6 -6 10 -37 15 -110 17 -73 3
-99 1 -95 -7 4 -6 12 -9 17 -6 5 3 6 -1 3 -9 -4 -12 -11 -13 -32 -5 -14 6 -32
15 -39 21 -7 6 -27 7 -45 3 -18 -3 -65 -7 -104 -8 l-71 -1 8 -30 c12 -43 11
-50 -5 -37 -10 8 -16 9 -21 1 -7 -12 -25 -4 -25 12 0 5 7 7 15 4 10 -3 18 1
22 11 4 9 1 19 -5 21 -7 2 -10 8 -7 13 4 5 -1 6 -9 3 -9 -3 -16 -1 -16 5 0 16
-27 13 -34 -4 -3 -9 0 -15 9 -15 8 0 15 -7 15 -16 0 -8 -4 -13 -9 -10 -5 3
-12 -2 -15 -11 -5 -12 -9 -14 -14 -6 -5 7 -48 13 -115 15 -98 3 -108 2 -113
-16 -3 -10 -9 -14 -13 -9 -12 19 -60 21 -64 4 -3 -10 -5 -8 -6 6 -1 16 -6 21
-16 17 -8 -4 -13 -10 -10 -14 3 -5 -9 -5 -27 0 -20 6 -36 6 -43 0 -9 -7 -16
-5 -25 5 -7 8 -18 15 -24 15 -7 0 -6 -4 2 -9 11 -7 11 -9 -1 -14 -8 -3 -20 0
-26 6 -9 9 -11 8 -6 -5 6 -15 0 -16 -50 -14 -31 2 -75 -2 -98 -9 -23 -7 -58
-11 -77 -9 -82 7 -340 8 -346 1 -4 -4 -7 -20 -7 -36 0 -22 -4 -27 -18 -24 -17
5 -17 7 -4 26 21 31 19 40 -10 35 -14 -3 -25 -2 -25 2 0 10 -49 0 -56 -11 -3
-5 -19 -9 -35 -9 -18 0 -28 4 -24 10 3 6 -1 10 -9 10 -8 0 -18 -4 -21 -10 -3
-5 -11 -10 -16 -10 -6 0 -8 4 -5 9 3 5 -1 11 -9 15 -8 3 -15 0 -15 -7 0 -8 -3
-8 -9 1 -7 12 -12 12 -30 1 -11 -8 -21 -18 -22 -24 0 -5 -4 -1 -9 10 -7 17 -9
17 -9 3 -1 -10 -15 -24 -34 -32 -38 -16 -155 -20 -209 -7 -27 6 -38 6 -38 -3
0 -6 -5 -4 -10 4 -8 12 -12 13 -19 2 -6 -11 -17 -11 -45 -4 -28 8 -51 7 -92
-4 -67 -17 -89 -18 -114 -2 -15 10 -22 10 -31 1 -7 -7 -18 -9 -28 -4 -9 5 -31
8 -49 7 -17 0 -32 3 -32 7 0 5 -6 7 -12 4 -7 -2 -12 -10 -10 -17 5 -23 -28 10
-44 44 -14 28 -14 29 1 12 14 -18 19 -19 68 -7 28 7 73 13 100 13 26 0 47 4
47 8 0 4 16 6 35 3 20 -3 41 0 48 5 7 6 25 8 42 7 16 -2 32 0 35 5 3 4 24 5
47 1 47 -9 78 2 53 19 -8 5 -21 8 -27 5 -7 -2 -13 2 -13 10 0 9 10 15 25 15
14 0 25 5 25 10 0 6 -85 10 -235 10 -167 0 -235 -3 -235 -11 0 -8 -4 -8 -14 0
-16 13 -2676 16 -2676 2z m5533 -51 c-3 -11 -10 -20 -15 -20 -5 0 -6 5 -3 10
3 6 1 10 -6 10 -8 0 -8 4 1 15 16 19 30 10 23 -15z m-123 15 c0 -2 -10 -9 -22
-15 -22 -11 -22 -10 -4 4 21 17 26 19 26 11z m363 -62 c-6 -16 -19 -17 -28 -3
-3 6 -1 10 5 10 7 0 10 6 7 14 -3 8 -3 17 1 21 8 8 21 -26 15 -42z m-623 22
c10 -12 10 -15 -3 -15 -8 0 -17 7 -21 15 -3 8 -2 15 3 15 5 0 14 -7 21 -15z
m76 -18 c1 -17 -1 -23 -3 -13 -4 15 -7 16 -14 5 -7 -12 -9 -11 -9 2 0 11 18
39 25 39 0 0 1 -15 1 -33z m-719 7 c-3 -3 -12 -4 -19 -1 -8 3 -5 6 6 6 11 1
17 -2 13 -5z m280 -16 c-3 -8 -6 -5 -6 6 -1 11 2 17 5 13 3 -3 4 -12 1 -19z
m-2151 -7 c-1 -19 -22 -34 -36 -26 -12 8 8 42 25 42 7 0 12 -7 11 -16z m2993
-13 c2 30 17 8 20 -29 2 -35 0 -39 -12 -28 -8 8 -17 21 -20 29 -4 8 -5 3 -2
-12 4 -23 2 -28 -15 -28 -11 0 -20 5 -20 11 0 5 5 7 10 4 6 -3 10 1 10 9 0 9
-4 16 -10 16 -5 0 -9 3 -9 8 3 19 -2 33 -11 27 -5 -3 -10 -1 -10 6 0 6 8 9 20
6 11 -3 23 0 27 6 4 7 10 2 14 -13 4 -14 7 -19 8 -12z m-2132 2 c-4 -16 0 -20
21 -21 l27 -1 -25 -8 c-31 -9 -56 14 -37 36 17 19 20 17 14 -6z m1976 -5 c-7
-21 -13 -19 -13 6 0 11 4 18 10 14 5 -3 7 -12 3 -20z m-2910 -6 c-8 -8 -13 -7
-18 2 -5 8 -4 10 3 5 7 -4 12 -2 12 5 0 7 3 9 7 6 4 -4 2 -12 -4 -18z m2408 7
c5 3 9 1 9 -5 0 -5 -5 -13 -10 -16 -16 -10 -1 -25 17 -18 11 4 14 3 9 -5 -4
-7 -2 -12 3 -12 6 0 11 6 11 13 0 7 7 22 16 33 15 19 16 19 9 -1 -5 -16 -4
-18 6 -7 16 15 49 16 49 1 0 -5 4 -8 9 -4 5 3 9 -10 8 -29 -2 -31 -5 -34 -34
-34 -18 0 -31 5 -30 10 1 6 -4 13 -12 16 -10 3 -12 0 -7 -13 5 -15 4 -16 -9
-5 -12 10 -15 10 -15 -1 0 -12 -2 -12 -9 0 -6 9 -11 10 -15 2 -4 -6 -14 -11
-21 -11 -11 0 -14 9 -11 33 2 17 5 41 6 52 1 11 4 15 7 7 2 -6 9 -10 14 -6z
m335 -24 c-15 -15 -15 -15 -4 10 7 15 15 23 17 17 2 -6 -4 -18 -13 -27z m449
28 c3 -6 -4 -10 -17 -10 -18 0 -20 2 -8 10 19 12 18 12 25 0z m-2191 -16 c3
-8 2 -12 -4 -9 -6 3 -10 10 -10 16 0 14 7 11 14 -7z m2136 6 c0 -5 -2 -10 -4
-10 -3 0 -8 5 -11 10 -3 6 -1 10 4 10 6 0 11 -4 11 -10z m-2095 -19 c-3 -6
-11 -8 -17 -5 -6 4 -5 9 3 15 16 10 23 4 14 -10z m1320 -11 c-9 -17 -13 -35
-10 -40 3 -6 -1 -10 -10 -10 -9 0 -23 -6 -31 -14 -16 -17 -19 -30 -4 -21 6 3
10 2 10 -3 0 -14 -25 -22 -49 -15 -24 6 -28 23 -6 23 8 0 26 10 40 21 20 18
22 25 14 42 -6 11 -7 17 -1 13 5 -3 17 3 27 14 27 30 38 24 20 -10z m846 -4
c-11 -27 -24 -37 -16 -11 3 8 7 22 10 31 3 9 8 15 11 12 2 -3 0 -17 -5 -32z
m-6345 -30 c-14 -26 -22 -33 -24 -22 -2 9 -9 14 -15 10 -7 -3 -1 4 13 15 23
19 18 27 -13 22 -5 -1 -6 3 -2 8 3 6 18 9 33 8 l28 -2 -20 -39z m6094 29 c0
-2 -9 -3 -19 -2 -11 0 -18 5 -15 9 4 6 34 0 34 -7z m-3895 -5 c-3 -5 -12 -10
-18 -10 -7 0 -6 4 3 10 19 12 23 12 15 0z m3239 -5 c3 -8 1 -15 -4 -15 -6 0
-10 7 -10 15 0 8 2 15 4 15 2 0 6 -7 10 -15z m466 -11 c0 -8 -4 -12 -10 -9 -5
3 -10 10 -10 16 0 5 5 9 10 9 6 0 10 -7 10 -16z m645 -23 c1 -17 -1 -28 -5
-26 -5 3 -11 -1 -13 -7 -3 -7 -6 -1 -6 15 -1 15 3 27 9 27 5 0 7 8 3 18 -3 9
-3 14 2 10 4 -4 9 -21 10 -37z m-1215 19 c0 -5 -4 -10 -10 -10 -5 0 -10 5 -10
10 0 6 5 10 10 10 6 0 10 -4 10 -10z m474 -9 c15 -16 15 -19 2 -24 -22 -9 -52
23 -34 34 7 5 13 9 14 9 0 0 9 -8 18 -19z m46 -1 c0 -11 -4 -20 -9 -20 -5 0
-7 9 -4 20 3 11 7 20 9 20 2 0 4 -9 4 -20z m100 16 c0 -2 -7 -7 -16 -10 -8 -3
-12 -2 -9 4 6 10 25 14 25 6z m373 -46 c-3 -11 -10 -23 -16 -27 -5 -3 -8 -2
-5 3 3 5 8 17 11 27 9 24 16 22 10 -3z m-1135 -11 c3 -12 2 -12 -6 0 -8 11
-10 11 -15 0 -4 -10 -6 -8 -6 4 -1 21 21 18 27 -4z m321 -1 c0 -13 -3 -18 -5
-11 -3 7 -12 9 -20 6 -10 -4 -12 0 -8 11 9 24 34 19 33 -6z m-246 -3 c-3 -9
-8 -14 -10 -11 -3 3 -2 9 2 15 9 16 15 13 8 -4z m582 5 c3 -5 1 -10 -4 -10 -6
0 -11 5 -11 10 0 6 2 10 4 10 3 0 8 -4 11 -10z m847 -33 c-6 -12 -13 -30 -16
-39 -3 -10 -10 -18 -16 -18 -5 0 -10 8 -10 18 0 14 2 15 10 2 8 -12 10 -9 10
13 0 34 21 78 28 58 2 -7 0 -23 -6 -34z m-1399 18 c-3 -9 -8 -14 -10 -11 -3 3
-2 9 2 15 9 16 15 13 8 -4z m767 0 c0 -8 -4 -15 -10 -15 -5 0 -7 7 -4 15 4 8
8 15 10 15 2 0 4 -7 4 -15z m282 -7 c-7 -7 -12 -8 -12 -2 0 14 12 26 19 19 2
-3 -1 -11 -7 -17z m268 -13 c0 5 2 6 5 3 10 -10 -18 -58 -33 -58 -10 0 -13 8
-10 30 3 17 1 33 -4 36 -5 3 -6 10 -2 15 3 6 14 0 25 -12 10 -12 19 -18 19
-14z m-1124 3 c4 -7 3 -8 -4 -4 -8 5 -12 -2 -12 -19 0 -22 4 -26 18 -20 14 5
15 4 4 -7 -11 -11 -16 -9 -32 12 -17 22 -17 25 -2 37 21 15 19 15 28 1z m250
-13 c18 -13 18 -14 -4 -8 -12 3 -25 9 -28 14 -8 14 10 11 32 -6z m54 -3 c0
-10 -7 -19 -15 -19 -18 0 -19 4 -2 22 16 19 17 18 17 -3z m546 -19 c-8 -19 4
-16 20 5 10 13 13 14 14 2 0 -8 -12 -24 -26 -35 -18 -14 -25 -28 -22 -45 3
-22 4 -23 19 -7 9 9 19 13 23 10 3 -4 7 2 8 13 0 10 2 24 2 31 1 6 5 15 9 19
13 13 8 -35 -8 -72 -12 -29 -19 -35 -35 -31 -12 3 -24 -1 -30 -11 -8 -14 -9
-13 -10 8 0 14 -3 36 -7 49 -4 16 -3 22 5 17 12 -7 17 -1 26 37 4 16 3 26 -2
23 -5 -3 -9 1 -9 9 0 11 3 12 14 3 8 -6 12 -17 9 -25z m-906 12 c11 -13 10
-14 -4 -9 -9 3 -16 10 -16 15 0 13 6 11 20 -6z m1130 -5 c0 -5 -2 -10 -4 -10
-3 0 -8 5 -11 10 -3 6 -1 10 4 10 6 0 11 -4 11 -10z m-4853 -6 c-3 -3 -12 -4
-19 -1 -8 3 -5 6 6 6 11 1 17 -2 13 -5z m383 -10 c0 -8 -5 -12 -10 -9 -6 4 -8
11 -5 16 9 14 15 11 15 -7z m3744 0 c3 -8 2 -12 -4 -9 -6 3 -10 10 -10 16 0
14 7 11 14 -7z m-3617 -16 c2 -17 0 -19 -6 -9 -5 8 -16 11 -25 8 -9 -4 -16 -2
-16 3 0 5 10 11 23 13 12 2 22 5 22 6 1 0 2 -9 2 -21z m3204 9 c-1 -4 -1 -17
-1 -28 0 -17 -3 -19 -14 -10 -15 13 -10 54 6 49 5 -2 9 -7 9 -11z m1002 -13
c-4 -10 -9 -12 -15 -6 -12 12 -1 35 12 27 5 -3 6 -13 3 -21z m121 -23 c-6 -6
-11 1 -18 29 l-7 25 15 -25 c8 -14 12 -27 10 -29z m171 39 c3 -5 -1 -10 -10
-10 -9 0 -13 5 -10 10 3 6 8 10 10 10 2 0 7 -4 10 -10z m-3049 -27 c-10 -10
-19 5 -10 18 6 11 8 11 12 0 2 -7 1 -15 -2 -18z m1288 11 c3 -8 2 -12 -4 -9
-6 3 -10 10 -10 16 0 14 7 11 14 -7z m-2434 -4 c0 -5 -2 -10 -4 -10 -3 0 -8 5
-11 10 -3 6 -1 10 4 10 6 0 11 -4 11 -10z m497 -5 c8 -8 19 -13 24 -10 5 4 9
1 9 -4 0 -14 -3 -14 -35 1 -14 6 -25 15 -25 20 0 12 10 10 27 -7z m528 5 c3
-5 1 -10 -4 -10 -6 0 -11 5 -11 10 0 6 2 10 4 10 3 0 8 -4 11 -10z m255 6 c0
-2 -7 -7 -16 -10 -8 -3 -12 -2 -9 4 6 10 25 14 25 6z m94 -4 c2 -4 1 -14 -5
-22 -7 -12 -9 -12 -9 4 0 15 -3 16 -15 6 -13 -11 -14 -10 -9 4 6 17 29 22 38
8z m511 -2 c3 -5 1 -10 -4 -10 -6 0 -11 5 -11 10 0 6 2 10 4 10 3 0 8 -4 11
-10z m517 -15 c-2 -11 1 -14 8 -10 9 5 10 1 6 -13 -6 -17 -3 -20 14 -17 11 2
24 6 29 10 17 10 57 -12 58 -32 1 -19 -1 -19 -53 -7 -40 9 -54 9 -54 1 0 -7
-7 -4 -15 7 -8 10 -19 15 -27 11 -7 -3 -5 0 6 9 13 10 17 23 14 41 -4 16 -1
24 6 22 6 -2 10 -12 8 -22z m-3027 5 c3 -6 -1 -7 -9 -4 -18 7 -21 14 -7 14 6
0 13 -4 16 -10z m1331 -2 c-1 -7 -5 -19 -10 -26 -4 -7 -5 -20 -1 -30 5 -13 8
-14 14 -3 11 18 52 5 44 -15 -3 -7 -9 -14 -15 -14 -5 0 -6 5 -3 10 3 6 1 10
-4 10 -6 0 -11 -5 -11 -10 0 -7 -6 -7 -19 0 -14 7 -21 6 -23 -2 -4 -10 -8 -9
-20 2 -8 8 -13 20 -11 27 2 6 -1 14 -6 18 -6 3 -11 11 -11 16 0 6 7 4 15 -5
14 -14 45 -12 43 2 -2 18 3 32 11 32 5 0 8 -6 7 -12z m944 2 c0 -5 -2 -10 -4
-10 -3 0 -8 5 -11 10 -3 6 -1 10 4 10 6 0 11 -4 11 -10z m835 0 c-3 -5 -11
-10 -16 -10 -6 0 -7 5 -4 10 3 6 11 10 16 10 6 0 7 -4 4 -10z m-3459 -25 c42
2 70 8 75 17 7 10 9 10 9 1 0 -7 7 -13 15 -13 8 0 15 5 15 11 0 5 5 7 10 4 6
-4 8 -11 4 -16 -4 -7 10 -9 39 -6 27 3 47 1 49 -5 3 -7 10 -5 18 3 8 8 24 14
35 14 11 0 26 4 33 9 8 6 12 6 11 0 -4 -21 2 -34 16 -34 8 0 15 5 15 11 0 7
10 9 28 4 54 -15 72 -13 86 6 8 12 19 17 30 13 17 -6 21 -19 9 -27 -5 -2 -1
-2 7 1 8 2 36 5 61 6 26 1 54 8 62 14 17 15 33 0 21 -20 -5 -7 -3 -8 6 -3 23
14 110 15 110 2 0 -7 7 -4 14 6 11 14 19 16 33 9 35 -19 105 -25 114 -11 6 9
9 1 9 -23 0 -21 -4 -38 -10 -38 -5 0 -7 8 -4 18 5 15 4 15 -6 -1 -7 -10 -10
-27 -7 -38 3 -10 1 -19 -4 -19 -5 0 -9 9 -9 19 0 11 -7 26 -15 34 -8 8 -12 16
-10 19 2 2 -6 5 -18 5 -17 2 -18 0 -7 -7 13 -8 13 -10 0 -14 -8 -3 -24 -4 -35
-2 -11 2 -31 -1 -44 -6 -17 -6 -27 -5 -33 4 -6 10 -10 10 -18 -2 -7 -12 -15
-13 -40 -3 -20 7 -30 8 -30 1 0 -7 -5 -6 -14 1 -10 8 -16 8 -25 -2 -8 -10 -23
-12 -56 -7 -25 4 -47 4 -51 1 -3 -3 -13 -6 -22 -6 -10 0 -16 -7 -16 -17 1 -10
-3 -15 -8 -12 -5 3 -7 13 -4 21 5 12 -1 14 -33 8 -32 -5 -41 -3 -49 12 -6 10
-14 14 -19 9 -4 -5 -2 -11 5 -13 20 -8 14 -18 -13 -19 -14 -1 -25 1 -25 5 0 4
-19 6 -42 4 -24 -2 -53 -4 -65 -4 -13 -1 -23 -7 -23 -13 0 -8 -2 -8 -8 0 -12
18 -62 24 -62 7 0 -12 -3 -12 -20 0 -24 17 -80 10 -80 -10 0 -8 -8 -13 -17
-11 -12 2 -19 -4 -21 -19 -2 -16 2 -23 13 -23 9 0 14 4 10 9 -9 15 16 24 28
11 9 -10 9 -11 0 -6 -8 4 -15 -2 -19 -19 -8 -31 -44 -35 -44 -5 0 11 -3 19 -7
19 -20 -3 -26 2 -13 11 13 8 13 10 -1 10 -9 0 -22 -7 -29 -15 -7 -8 -8 -15 -3
-15 6 0 10 -13 11 -30 1 -33 -21 -41 -36 -14 -7 13 -13 14 -28 6 -10 -6 -13
-12 -6 -12 6 0 12 -5 12 -11 0 -8 -4 -9 -13 0 -8 6 -16 8 -19 5 -3 -3 -5 3 -4
13 0 10 -5 17 -12 15 -8 -1 -12 3 -10 10 3 7 17 13 31 12 21 0 24 2 14 14 -7
9 -13 10 -15 3 -2 -6 -8 -8 -13 -5 -6 3 -3 17 7 32 17 26 17 27 -2 11 -10 -9
-24 -15 -30 -12 -6 2 -11 -3 -11 -11 0 -8 4 -13 9 -10 4 3 8 0 8 -5 0 -6 -10
-12 -22 -12 -17 -1 -19 -2 -5 -6 9 -2 17 -8 17 -13 0 -4 -8 -6 -19 -3 -24 6
-46 46 -37 69 4 11 -1 10 -18 -7 -13 -13 -22 -29 -19 -36 3 -7 0 -13 -6 -13
-7 0 -8 -8 -1 -25 7 -20 6 -25 -5 -25 -8 0 -15 5 -15 10 0 17 -18 11 -23 -7
-4 -15 -5 -14 -6 2 -1 26 -41 32 -41 7 -1 -16 -2 -15 -11 1 -5 9 -7 22 -4 27
3 6 1 10 -4 10 -6 0 -11 -4 -11 -9 0 -5 -9 -12 -19 -16 -10 -3 -21 -15 -24
-25 -3 -13 -13 -20 -29 -19 l-23 0 23 9 c29 12 28 18 -3 12 -15 -2 -25 0 -25
7 0 7 -11 10 -25 8 -27 -3 -46 -17 -24 -17 8 0 15 -9 16 -21 1 -14 -2 -18 -10
-12 -18 14 -67 14 -67 1 0 -9 -3 -9 -12 0 -15 15 -8 21 25 24 33 3 36 18 5 19
-34 2 -59 -1 -102 -12 -36 -10 -38 -12 -22 -27 10 -11 19 -13 24 -7 10 14 46
19 37 6 -3 -6 -13 -11 -21 -11 -8 0 -17 -7 -20 -15 -4 -8 -10 -12 -15 -9 -5 3
-7 9 -4 14 3 4 -3 7 -13 6 -11 -1 -16 5 -14 17 2 10 -3 17 -13 17 -10 0 -16
-7 -14 -17 3 -31 -1 -43 -12 -43 -6 0 -9 6 -6 14 5 11 -1 12 -29 4 -19 -5 -40
-6 -47 -2 -9 5 -9 4 1 -7 6 -7 12 -19 12 -26 0 -11 -6 -10 -30 2 -16 8 -29 19
-29 23 4 27 -3 41 -18 36 -10 -3 -7 2 7 10 l25 15 -27 1 c-16 0 -28 -5 -28
-12 0 -10 -2 -10 -9 0 -6 11 -10 10 -16 -5 -10 -23 -12 -29 -14 -49 0 -8 -5
-13 -11 -9 -5 3 -6 13 -3 21 3 9 0 20 -8 25 -11 7 -11 9 -1 9 7 0 11 3 9 8
-11 17 20 30 88 39 41 4 61 13 32 13 -21 0 -22 16 -3 23 8 3 17 -1 20 -10 4
-8 13 -13 21 -9 8 3 15 1 15 -4 0 -6 5 -10 11 -10 5 0 8 4 5 9 -3 5 9 12 27
15 64 12 101 11 92 -4 -4 -7 10 -9 41 -6 26 2 51 10 55 18 5 7 9 10 10 6 1 -5
3 -12 4 -18 1 -5 3 -13 4 -17 1 -5 9 5 17 20 8 15 19 25 24 22 6 -4 10 -1 10
4 0 6 -12 11 -26 11 -20 0 -24 4 -20 18 5 16 0 18 -36 18 -24 -1 -46 -5 -50
-11 -5 -7 -8 -6 -8 0 0 6 -18 11 -39 11 -26 0 -37 -4 -34 -12 2 -6 14 -10 26
-8 20 4 21 4 2 -4 -24 -11 -63 -3 -45 8 9 6 9 9 1 15 -7 4 -18 1 -26 -5 -10
-8 -19 -9 -32 -1 -16 9 -14 11 12 12 17 1 36 2 43 2 6 -1 12 3 12 8 0 5 7 6
15 3 9 -4 15 0 15 7 0 12 2 12 9 0 5 -7 14 -12 21 -9 9 3 8 9 -5 21 -9 10 -15
21 -12 24 3 3 18 -8 32 -23 15 -16 24 -24 21 -19 -2 6 -1 17 5 25 7 12 9 12 9
-4 0 -14 3 -16 13 -8 21 18 75 22 81 6 9 -24 29 -16 24 10 -4 17 -1 23 9 19 7
-3 11 -9 8 -13 -8 -13 27 -21 41 -9 8 6 23 9 34 6 12 -3 20 0 20 8 0 8 9 11
25 7 14 -2 25 -8 25 -12 0 -18 36 -14 46 5 6 12 18 19 30 17 28 -4 37 -4 62 2
12 2 22 1 22 -5 0 -5 4 -9 10 -9 5 0 7 7 4 15 -5 11 -2 13 10 9 8 -3 14 -11
13 -17 -1 -7 4 -11 11 -9 7 1 24 3 37 4 14 1 25 6 25 10 0 4 7 8 15 8 8 0 15
6 15 13 0 7 4 5 10 -4 8 -14 23 -16 76 -14z m1295 -19 c1 5 1 12 1 15 -1 4 7
9 18 12 16 4 17 1 10 -19 -7 -18 -6 -22 5 -17 8 3 15 9 15 14 0 4 7 6 15 3 10
-4 15 0 15 11 0 10 5 13 11 9 7 -4 24 -7 38 -8 19 -1 27 -7 29 -23 2 -13 5
-23 7 -23 7 0 53 48 59 62 3 7 4 3 2 -9 -2 -13 0 -23 5 -23 5 0 9 -5 9 -11 0
-7 -9 -9 -24 -5 -19 5 -25 1 -29 -16 -8 -31 2 -37 20 -13 11 14 17 16 20 7 3
-6 9 -10 14 -6 5 3 9 0 9 -6 0 -7 -8 -9 -20 -5 -11 4 -20 3 -19 -2 1 -4 -1
-16 -5 -25 -4 -10 -6 -23 -4 -30 3 -7 -1 -19 -9 -26 -7 -8 -10 -18 -7 -24 4
-7 2 -8 -5 -4 -6 4 -9 16 -6 26 3 10 1 21 -5 25 -5 3 -10 11 -10 18 0 6 6 3
13 -7 11 -16 13 -15 15 7 1 14 -6 31 -15 38 -10 8 -14 9 -10 2 4 -6 3 -14 -3
-18 -6 -4 -10 6 -11 22 0 15 -4 37 -8 48 -8 19 -8 19 -15 -2 -4 -13 -5 -27 -1
-32 3 -5 1 -12 -5 -16 -5 -3 -10 -1 -10 5 0 6 -5 8 -11 4 -8 -4 -9 0 -4 15 8
25 -9 28 -31 6 -8 -8 -22 -11 -31 -8 -12 5 -14 3 -8 -7 6 -9 4 -11 -5 -5 -7 5
-26 9 -42 10 -25 2 -27 1 -16 -13 11 -13 10 -14 -9 -3 -13 6 -23 8 -23 3 0 -5
-11 -9 -25 -9 l-25 0 22 23 c14 13 25 18 29 12 3 -5 9 -2 13 8 6 16 8 16 16 4
7 -11 10 -11 10 -2 0 7 -12 17 -26 22 -14 6 -22 14 -19 20 4 6 20 -1 41 -16
19 -15 35 -22 35 -18z m64 34 c3 -5 1 -10 -4 -10 -6 0 -11 5 -11 10 0 6 2 10
4 10 3 0 8 -4 11 -10z m349 -6 c3 -8 2 -12 -4 -9 -6 3 -10 10 -10 16 0 14 7
11 14 -7z m1516 4 c0 -6 -7 -8 -15 -4 -8 3 -15 0 -15 -7 0 -8 -3 -9 -8 -1 -4
6 -14 13 -22 16 -8 3 2 6 23 6 20 0 37 -5 37 -10z m100 2 c0 -5 -2 -10 -4 -10
-3 0 -8 5 -11 10 -3 6 -1 10 4 10 6 0 11 -4 11 -10z m165 0 c3 -5 1 -10 -4
-10 -6 0 -11 5 -11 10 0 6 2 10 4 10 3 0 8 -4 11 -10z m40 -11 c-13 -21 8 -29
25 -9 9 11 21 20 25 20 5 0 6 -3 2 -6 -3 -3 -1 -17 4 -31 5 -14 6 -30 2 -36
-4 -7 -9 -4 -13 8 -6 17 -7 17 -26 -2 -18 -18 -20 -18 -34 -3 -19 21 -23 40
-10 40 6 0 10 9 10 21 0 11 5 17 10 14 6 -4 8 -11 5 -16z m222 1 c-6 -25 8
-26 23 -2 10 15 11 15 6 0 -2 -9 2 -22 10 -28 19 -16 18 -34 -1 -26 -8 3 -15
0 -15 -7 0 -8 -4 -6 -10 3 -8 12 -10 11 -10 -6 0 -17 7 -21 35 -22 20 -1 43
-6 53 -11 15 -8 13 -11 -11 -20 -35 -14 -40 -14 -32 -1 3 6 -1 7 -9 4 -9 -3
-16 -15 -16 -26 0 -10 3 -17 8 -15 4 3 8 -8 9 -24 1 -16 -2 -29 -7 -29 -5 0
-7 7 -4 15 4 8 2 15 -3 15 -5 0 -17 -20 -28 -44 -14 -32 -23 -42 -32 -35 -7 6
-13 6 -17 1 -6 -10 17 -35 25 -28 2 2 9 -2 16 -9 9 -9 8 -18 -1 -37 -7 -13
-12 -33 -11 -44 1 -18 -3 -20 -29 -14 -17 3 -31 11 -31 17 0 6 -3 15 -7 19 -5
4 -8 14 -8 23 1 12 7 9 23 -9 21 -24 24 -25 40 -10 26 25 21 35 -23 53 -33 13
-41 13 -51 1 -6 -8 -9 -25 -7 -39 5 -21 2 -25 -13 -20 -12 4 -19 1 -19 -7 0
-10 -3 -9 -10 2 -5 8 -10 20 -10 25 0 6 4 4 9 -4 6 -9 11 -10 15 -2 4 6 4 16
1 21 -3 5 0 10 7 10 9 0 9 3 -2 10 -11 7 -17 5 -22 -8 -4 -12 -7 -7 -7 15 -1
30 1 32 33 30 19 -2 38 -6 42 -9 10 -11 24 1 24 19 0 10 -6 14 -20 10 -11 -3
-20 -1 -20 4 0 5 -11 4 -24 -1 -14 -5 -26 -5 -28 -1 -5 12 -68 22 -68 11 0
-15 -90 -6 -101 10 -8 11 -9 8 -6 -13 3 -18 0 -30 -9 -34 -8 -3 -11 -10 -7
-16 4 -6 1 -7 -8 -1 -24 15 -68 13 -62 -2 3 -8 13 -14 22 -15 9 0 11 -3 4 -5
-16 -7 -73 36 -73 53 0 8 4 12 8 9 14 -8 36 11 37 33 l2 21 -24 -22 c-12 -12
-23 -17 -23 -11 0 6 7 14 16 17 10 4 14 14 11 25 -3 14 -1 18 10 14 8 -3 20 3
28 13 13 18 14 18 9 -1 -7 -27 31 -64 48 -47 8 8 4 13 -14 17 -19 5 -24 12
-21 26 3 10 10 19 15 19 5 0 6 -6 3 -12 -4 -7 1 -4 9 6 14 18 21 15 17 -7 -1
-5 8 -5 20 -2 16 6 20 4 13 -6 -11 -18 -13 -49 -2 -43 4 3 8 13 8 22 0 9 7 26
15 36 14 18 15 18 15 2 0 -9 5 -14 10 -11 6 3 10 -3 10 -15 0 -12 4 -19 9 -16
5 3 7 14 5 24 -3 9 2 26 10 37 15 19 15 19 16 -12 0 -39 11 -42 34 -10 9 12
14 16 11 9 -8 -16 25 -29 35 -13 9 16 20 16 32 -1 8 -11 10 -11 15 1 4 9 8 10
12 3 8 -13 81 -23 81 -11 0 5 -4 9 -10 9 -5 0 -10 10 -10 23 0 18 2 19 10 7 6
-9 10 -10 10 -3 0 20 -20 26 -37 11 -10 -8 -14 -8 -10 -1 13 21 -11 24 -26 3
-12 -18 -15 -18 -20 -5 -4 8 -3 15 1 15 4 0 18 10 32 21 l25 20 -35 -3 c-19
-2 -40 -10 -47 -18 -10 -13 -11 -11 -6 8 3 15 1 22 -8 22 -11 0 -11 2 1 10 8
5 22 10 30 10 13 0 13 -1 0 -10 -12 -8 -9 -9 12 -8 26 2 27 3 13 25 -9 13 -11
23 -5 23 5 0 10 -4 10 -10 0 -5 7 -10 16 -10 8 0 12 5 9 10 -3 6 1 10 9 10 9
0 16 5 16 10 0 6 3 10 6 10 4 0 4 -9 1 -20z m1440 14 c-3 -3 -12 -4 -19 -1 -8
3 -5 6 6 6 11 1 17 -2 13 -5z m-1264 -22 c-3 -13 7 -26 37 -46 42 -27 60 -27
60 1 0 14 2 14 19 -1 11 -10 25 -15 31 -11 6 3 10 3 9 -2 -1 -4 -1 -17 1 -28
l1 -20 9 20 c8 18 9 18 10 -5 1 -14 2 -38 2 -55 -1 -16 2 -22 4 -12 9 29 24
19 24 -16 0 -26 4 -33 22 -34 11 -1 25 -8 29 -15 5 -7 9 -9 9 -5 0 5 7 1 16
-7 8 -9 24 -16 35 -16 10 0 19 -4 19 -9 0 -5 -8 -8 -17 -7 -14 1 -18 -6 -16
-27 1 -17 -3 -27 -12 -27 -21 0 -28 19 -15 35 14 17 16 16 -32 19 -20 2 -35
-1 -32 -6 3 -4 0 -8 -7 -8 -6 0 -9 -8 -6 -20 5 -21 -8 -29 -15 -9 -3 8 -10 6
-21 -5 -16 -16 -17 -15 -17 24 0 23 -4 39 -9 36 -5 -3 -11 1 -15 9 -3 9 0 15
9 15 8 0 15 3 15 8 0 4 -18 6 -40 4 -29 -3 -40 -9 -41 -21 0 -12 -2 -12 -9 4
-5 11 -9 14 -9 6 -1 -8 -8 -11 -20 -8 -35 9 -45 -7 -27 -43 9 -18 16 -39 16
-47 0 -16 -16 -17 -26 -1 -4 7 -3 8 4 4 7 -4 12 -2 12 3 0 6 -6 12 -12 12 -7
1 -20 3 -28 4 -8 1 -26 3 -40 4 -16 2 -20 5 -10 8 8 4 21 12 28 20 8 7 18 11
23 8 15 -10 10 0 -11 25 -11 13 -20 30 -19 39 0 10 2 12 6 4 2 -7 11 -13 19
-13 8 0 14 -6 14 -12 0 -10 2 -10 8 0 5 7 16 10 24 7 12 -5 18 2 23 24 7 34 7
34 29 25 9 -3 13 -11 9 -18 -4 -7 -1 -7 9 1 8 7 17 11 20 8 7 -7 68 15 68 25
0 16 -18 20 -23 5 -4 -9 -19 -13 -46 -12 -36 1 -40 4 -35 20 4 13 2 17 -5 13
-6 -4 -11 -2 -11 3 0 6 7 11 16 11 20 0 14 20 -12 36 -13 8 -27 9 -43 3 -23
-9 -23 -10 -6 -29 10 -11 13 -20 8 -20 -6 0 -13 7 -17 15 -7 18 -36 9 -36 -12
0 -8 -4 -12 -9 -9 -5 4 -12 0 -15 -6 -2 -7 -3 -2 -2 11 2 14 11 28 22 33 16 7
16 7 -5 5 -13 -1 -26 3 -28 10 -4 12 39 9 59 -3 5 -3 7 6 4 21 -3 15 -1 37 4
51 11 28 20 32 13 6z m1117 8 c0 -5 -4 -10 -10 -10 -5 0 -10 5 -10 10 0 6 5
10 10 10 6 0 10 -4 10 -10z m-4073 -30 c-5 -23 -3 -28 8 -23 8 3 15 0 15 -6 0
-6 8 -7 17 -4 14 5 13 2 -4 -16 -12 -13 -26 -20 -32 -16 -6 3 -11 1 -11 -4 0
-6 -3 -11 -7 -11 -11 0 -10 82 0 98 14 21 20 13 14 -18z m90 18 c27 -7 51 -17
55 -23 5 -6 8 -2 8 8 0 10 5 15 10 12 21 -13 9 -34 -27 -46 -55 -18 -72 -18
-78 2 -3 10 -12 16 -20 13 -17 -7 -27 9 -19 30 7 19 11 19 71 4z m875 1 c1 5
9 3 16 -5 11 -12 10 -14 -6 -14 -11 0 -26 8 -33 18 -13 15 -12 16 3 4 9 -7 18
-9 20 -3z m1880 4 c-10 -4 -9 -10 5 -26 18 -21 18 -21 -2 -7 -11 8 -22 15 -24
17 -7 4 11 23 22 22 8 0 8 -2 -1 -6z m172 -4 c-2 -4 2 -10 8 -12 10 -4 9 -8
-2 -16 -23 -16 -30 -13 -30 12 0 14 6 24 15 24 8 0 12 -4 9 -8z m1311 1 c3 -5
-1 -10 -10 -10 -9 0 -13 5 -10 10 3 6 8 10 10 10 2 0 7 -4 10 -10z m-6757 -21
c2 -9 -4 -19 -13 -23 -13 -4 -15 -1 -10 14 7 22 -5 26 -22 9 -12 -12 -33 -4
-33 12 0 18 74 6 78 -12z m56 -6 c10 -26 0 -25 -18 1 -13 20 -13 24 -2 20 8
-3 17 -13 20 -21z m2606 7 c-6 -11 -13 -20 -15 -20 -3 0 -5 9 -5 20 0 11 7 20
15 20 13 0 14 -4 5 -20z m393 6 c4 4 1 -5 -6 -20 -16 -34 -40 -36 -27 -2 5 13
6 28 2 32 -4 5 0 3 9 -4 9 -6 19 -9 22 -6z m1637 10 c0 -2 -7 -6 -15 -10 -8
-3 -15 -1 -15 4 0 6 7 10 15 10 8 0 15 -2 15 -4z m427 -2 c-3 -3 -12 -4 -19
-1 -8 3 -5 6 6 6 11 1 17 -2 13 -5z m608 -4 c-3 -5 -12 -10 -18 -10 -7 0 -6 4
3 10 19 12 23 12 15 0z m994 -2 c-3 -27 2 -36 22 -41 13 -4 18 -10 13 -18 -4
-7 -3 -10 4 -5 6 3 13 2 16 -3 3 -5 -1 -11 -9 -15 -9 -3 -12 -12 -9 -21 5 -13
2 -15 -19 -10 -28 7 -45 -9 -23 -22 11 -6 12 -13 6 -23 -8 -13 -10 -12 -10 3
0 10 -4 16 -9 12 -20 -12 -22 17 -2 31 12 9 19 20 16 25 -4 5 1 9 9 9 21 0 20
6 -9 45 -24 31 -24 37 3 44 2 1 2 -5 1 -11z m-3239 -5 c-8 -3 -18 -10 -21 -15
-3 -5 -9 -3 -12 6 -5 12 0 16 21 15 16 0 21 -3 12 -6z m490 -8 c7 -9 8 -15 2
-15 -5 0 -12 7 -16 15 -3 8 -4 15 -2 15 2 0 9 -7 16 -15z m196 -3 c-10 -17
-44 -21 -50 -5 -3 8 -1 11 4 8 5 -3 18 -2 27 4 20 11 28 7 19 -7z m148 3 c-7
-17 -54 -21 -54 -4 0 6 9 9 20 6 11 -3 23 -1 26 4 9 14 14 10 8 -6z m-1684 -4
c0 -6 -4 -13 -10 -16 -5 -3 -10 1 -10 9 0 9 5 16 10 16 6 0 10 -4 10 -9z m638
-8 c-4 -24 -23 -27 -25 -3 -1 12 4 20 13 20 9 0 14 -7 12 -17z m57 7 c3 -5 1
-10 -4 -10 -6 0 -11 5 -11 10 0 6 2 10 4 10 3 0 8 -4 11 -10z m419 2 c3 -5 -1
-9 -9 -9 -8 0 -12 4 -9 9 3 4 7 8 9 8 2 0 6 -4 9 -8z m351 -2 c3 -6 -1 -7 -9
-4 -18 7 -21 14 -7 14 6 0 13 -4 16 -10z m105 0 c0 -5 -4 -10 -10 -10 -5 0
-10 5 -10 10 0 6 5 10 10 10 6 0 10 -4 10 -10z m264 -6 c3 -8 2 -12 -4 -9 -6
3 -10 10 -10 16 0 14 7 11 14 -7z m2336 -4 c0 -11 -2 -20 -4 -20 -2 0 -6 9 -9
20 -3 11 -1 20 4 20 5 0 9 -9 9 -20z m-3120 3 c-8 -3 -23 -10 -32 -15 -14 -6
-16 -5 -12 7 4 8 18 15 33 14 15 0 20 -3 11 -6z m950 3 c0 -3 -4 -8 -10 -11
-5 -3 -10 -1 -10 4 0 6 5 11 10 11 6 0 10 -2 10 -4z m1568 -21 c-3 -3 -9 2
-12 12 -6 14 -5 15 5 6 7 -7 10 -15 7 -18z m-6022 1 c14 4 15 3 6 -4 -11 -7
-11 -10 2 -15 10 -4 16 -18 16 -37 0 -17 -4 -29 -9 -25 -5 3 -12 1 -15 -4 -4
-5 2 -12 11 -14 17 -4 17 -5 0 -6 -9 0 -25 8 -34 18 -15 19 -39 19 -28 1 3 -4
-2 -10 -10 -14 -8 -3 -17 -1 -20 4 -4 6 -18 10 -32 10 -15 0 -23 3 -19 7 4 4
22 6 41 5 25 -2 35 2 35 12 0 9 7 12 20 9 11 -3 18 -9 15 -13 -3 -5 -1 -11 5
-15 5 -3 10 3 10 15 0 12 4 18 10 15 6 -3 7 1 4 9 -3 9 -12 16 -20 16 -8 0
-14 2 -14 4 0 2 -3 13 -6 23 -4 13 -3 14 3 5 6 -7 18 -10 29 -6z m5284 4 c0
-5 -2 -10 -4 -10 -3 0 -8 5 -11 10 -3 6 -1 10 4 10 6 0 11 -4 11 -10z m-5383
-26 c2 -7 11 -10 19 -7 8 3 14 -1 14 -10 0 -19 -35 -28 -51 -13 -9 8 -10 8 -5
-1 5 -9 0 -13 -12 -13 -29 0 -41 22 -33 61 2 11 63 -4 68 -17z m508 -3 c-7
-23 -25 -29 -25 -8 0 14 21 39 28 33 2 -3 1 -14 -3 -25z m5196 14 c5 4 6 -1 2
-10 -5 -13 -7 -14 -14 -3 -5 7 -8 18 -8 23 0 6 3 4 6 -3 2 -6 9 -10 14 -7z
m-5791 -16 c0 -6 -4 -7 -10 -4 -5 3 -10 11 -10 16 0 6 5 7 10 4 6 -3 10 -11
10 -16z m416 1 c0 -11 -1 -20 -2 -20 -1 0 -14 6 -29 14 l-28 14 29 5 c16 2 29
5 29 6 1 0 1 -8 1 -19z m144 11 c0 -5 -9 -11 -20 -14 -22 -6 -28 8 -7 16 19 8
27 8 27 -2z m2270 -6 c-7 -9 -15 -13 -17 -11 -7 7 7 26 19 26 6 0 6 -6 -2 -15z
m2255 -3 c-3 -3 -11 0 -18 7 -9 10 -8 11 6 5 10 -3 15 -9 12 -12z m-4810 -2
c3 -5 -3 -10 -14 -10 -12 0 -21 5 -21 10 0 6 6 10 14 10 8 0 18 -4 21 -10z
m3032 -12 c-3 -8 -6 -5 -6 6 -1 11 2 17 5 13 3 -3 4 -12 1 -19z m933 7 c0 -12
-19 -12 -23 0 -4 9 -1 12 9 8 7 -3 14 -7 14 -8z m-4085 -5 c3 -6 -1 -7 -9 -4
-18 7 -21 14 -7 14 6 0 13 -4 16 -10z m1357 -12 c-7 -7 -12 -8 -12 -2 0 14 12
26 19 19 2 -3 -1 -11 -7 -17z m35 -9 c-8 -21 -13 -26 -15 -15 -2 10 2 23 8 31
18 22 20 18 7 -16z m992 4 c3 -2 -7 -2 -21 -1 -17 1 -24 7 -21 15 4 11 9 11
22 1 9 -7 18 -14 20 -15z m51 18 c0 -5 -7 -11 -14 -14 -10 -4 -13 -1 -9 9 6
15 23 19 23 5z m923 -31 c4 -11 6 -10 7 5 1 19 1 19 14 2 9 -12 16 -14 21 -8
9 16 28 13 22 -3 -6 -15 17 -16 30 -1 5 4 1 4 -7 0 -13 -8 -13 -7 0 10 14 17
15 17 18 1 4 -16 4 -16 16 0 12 16 15 16 37 -6 13 -13 19 -20 12 -16 -15 8
-14 -36 2 -46 6 -5 3 -8 -7 -8 -23 0 -34 20 -17 31 11 7 10 9 -3 9 -11 0 -18
-8 -18 -20 0 -26 -11 -25 -39 1 -12 11 -29 18 -37 15 -8 -3 -12 -2 -9 3 3 6
-8 9 -24 9 -17 -1 -28 -4 -26 -9 3 -4 -2 -14 -10 -23 -9 -8 -22 -30 -31 -48
l-15 -33 6 34 c4 27 1 37 -15 48 -11 8 -18 19 -15 24 4 5 1 9 -4 9 -20 0 -11
16 9 17 16 1 20 -3 15 -17 -3 -10 0 -22 6 -26 7 -4 9 -3 6 3 -4 6 0 16 8 23 8
7 15 23 15 37 0 20 2 22 13 11 8 -7 16 -20 20 -28z m197 36 c0 -3 -4 -8 -10
-11 -5 -3 -10 -1 -10 4 0 6 5 11 10 11 6 0 10 -2 10 -4z m-3855 -16 c-3 -5
-11 -10 -16 -10 -6 0 -7 5 -4 10 3 6 11 10 16 10 6 0 7 -4 4 -10z m465 -5 c7
-9 8 -15 2 -15 -5 0 -12 7 -16 15 -3 8 -4 15 -2 15 2 0 9 -7 16 -15z m520 -15
c-9 -17 -31 -30 -51 -30 -6 0 -1 13 11 30 23 32 57 33 40 0z m1040 20 c0 -5
-2 -10 -4 -10 -3 0 -8 5 -11 10 -3 6 -1 10 4 10 6 0 11 -4 11 -10z m270 0 c0
-5 -5 -10 -11 -10 -5 0 -7 5 -4 10 3 6 8 10 11 10 2 0 4 -4 4 -10z m571 -4 c5
3 9 -1 9 -10 0 -8 -6 -17 -12 -19 -10 -4 -9 -8 2 -16 10 -7 11 -11 3 -11 -7 0
-17 10 -24 21 -8 17 -8 20 1 14 9 -5 10 -1 6 16 -3 13 -3 18 0 11 3 -6 10 -10
15 -6z m1760 5 c4 7 11 11 14 7 3 -3 -1 -13 -10 -22 -11 -11 -12 -16 -4 -16 7
0 9 -3 6 -7 -4 -3 -2 -12 4 -19 7 -8 6 -14 -2 -20 -8 -4 -9 -3 -5 4 4 6 -2 17
-14 24 -20 13 -26 38 -13 52 4 4 9 2 12 -5 2 -8 6 -8 12 2z m119 -1 c0 -5 -7
-7 -15 -4 -8 4 -15 8 -15 10 0 2 7 4 15 4 8 0 15 -4 15 -10z m1020 -25 c0 -5
-5 -3 -10 5 -5 8 -10 20 -10 25 0 6 5 3 10 -5 5 -8 10 -19 10 -25z m-5330 -8
c0 -4 -6 -2 -14 5 -8 7 -12 17 -9 22 5 8 23 -12 23 -27z m2598 21 c-2 -6 -10
-14 -16 -16 -7 -2 -10 2 -6 12 7 18 28 22 22 4z m182 -24 c0 -3 -7 -1 -15 6
-8 7 -15 17 -15 22 0 5 7 3 15 -6 8 -8 15 -18 15 -22z m316 22 c8 -8 10 -17 6
-20 -5 -3 -16 4 -25 15 -19 22 -3 26 19 5z m794 -21 c8 5 11 4 7 -2 -4 -6 -16
-13 -27 -16 -11 -3 -18 -1 -15 4 3 5 1 19 -5 31 -11 22 -11 22 8 -1 12 -15 24
-21 32 -16z m-3940 15 c5 8 9 7 14 -5 4 -12 1 -16 -11 -13 -9 2 -18 9 -19 16
-2 8 0 8 3 1 4 -8 7 -8 13 1z m1417 -52 c-18 -11 -26 12 -14 40 l11 24 8 -28
c5 -18 3 -31 -5 -36z m2165 8 c15 -29 17 -37 5 -28 -11 9 -16 10 -19 1 -2 -7
-8 -6 -17 5 -12 14 -12 16 3 10 25 -9 19 10 -6 21 -13 6 -24 18 -26 27 -6 33
38 6 60 -36z m155 30 c-9 -7 -17 -18 -17 -23 0 -14 -39 -47 -47 -40 -3 4 -1 7
6 7 7 0 11 6 8 14 -3 7 0 19 6 25 8 8 8 11 -2 11 -7 0 -10 4 -7 9 3 4 17 7 31
6 14 -2 25 2 25 8 0 5 3 7 7 3 5 -4 0 -13 -10 -20z m291 -10 c12 -4 22 -12 22
-17 0 -5 5 -9 11 -9 5 0 8 3 5 8 -2 4 1 14 7 22 10 13 16 11 41 -12 16 -16 23
-28 17 -28 -7 0 -12 -10 -11 -22 3 -38 -2 -45 -9 -13 -5 23 -12 30 -31 30 -14
1 -28 -4 -33 -10 -4 -6 -17 1 -32 18 -14 15 -25 25 -25 21 0 -3 -6 -1 -14 6
-8 6 -12 18 -9 26 5 13 8 13 22 1 9 -8 26 -18 39 -21z m535 14 c-3 -12 -8 -19
-11 -16 -5 6 5 36 12 36 2 0 2 -9 -1 -20z m2019 13 c-6 -2 -9 -10 -6 -15 4 -7
2 -8 -5 -4 -13 9 -5 26 12 25 9 0 8 -2 -1 -6z m35 -15 c-3 -8 -6 -5 -6 6 -1
11 2 17 5 13 3 -3 4 -12 1 -19z m-4923 -3 c3 -8 1 -15 -4 -15 -6 0 -10 7 -10
15 0 8 2 15 4 15 2 0 6 -7 10 -15z m46 5 c8 -5 11 -10 5 -10 -5 0 -17 5 -25
10 -8 5 -10 10 -5 10 6 0 17 -5 25 -10z m617 -3 c0 -8 -6 -14 -13 -14 -7 0
-10 6 -7 14 3 7 8 13 12 13 4 0 8 -6 8 -13z m708 -24 c-5 -32 -10 -37 -30 -29
-9 3 -13 11 -9 18 5 8 2 9 -11 4 -15 -5 -16 -4 -5 9 7 8 16 12 21 9 5 -3 6 2
3 10 -4 11 0 13 15 9 16 -4 20 -11 16 -30z m438 30 c-7 -2 -13 -16 -13 -29 0
-13 -4 -24 -10 -24 -11 0 -14 43 -3 53 3 4 13 7 22 6 10 0 12 -2 4 -6z m302
-19 c9 -14 19 -23 22 -20 3 3 1 12 -5 19 -12 15 -5 30 9 21 12 -7 12 -41 0
-48 -8 -5 -61 37 -61 49 0 14 19 2 35 -21z m475 16 c0 -5 -2 -10 -4 -10 -3 0
-8 5 -11 10 -3 6 -1 10 4 10 6 0 11 -4 11 -10z m1366 -35 c6 -19 9 -33 5 -32
-3 0 -16 -4 -28 -11 -17 -9 -22 -9 -27 3 -3 8 -1 15 4 15 6 0 10 12 9 28 0 15
-3 21 -6 15 -2 -7 -9 -13 -15 -13 -7 0 -6 5 2 14 6 8 19 12 27 9 12 -5 14 -3
8 8 -4 8 -4 11 0 6 5 -4 14 -23 21 -42z m654 35 c0 -5 -5 -10 -11 -10 -5 0 -7
5 -4 10 3 6 8 10 11 10 2 0 4 -4 4 -10z m-6170 -32 c0 -4 -6 -5 -14 -2 -8 3
-12 12 -9 21 5 12 7 12 14 1 5 -7 9 -16 9 -20z m1217 17 c5 -16 -14 -38 -26
-31 -18 12 -13 48 6 44 9 -2 18 -7 20 -13z m178 5 c3 -5 1 -10 -4 -10 -6 0
-11 5 -11 10 0 6 2 10 4 10 3 0 8 -4 11 -10z m79 -6 c3 -8 2 -12 -4 -9 -6 3
-10 10 -10 16 0 14 7 11 14 -7z m226 6 c0 -5 -2 -10 -4 -10 -3 0 -8 5 -11 10
-3 6 -1 10 4 10 6 0 11 -4 11 -10z m480 -11 c0 -14 -5 -19 -14 -16 -7 3 -20 0
-27 -6 -8 -7 -3 0 10 16 29 33 31 33 31 6z m107 -1 c-3 -8 -6 -5 -6 6 -1 11 2
17 5 13 3 -3 4 -12 1 -19z m137 -18 c-6 -5 -24 21 -24 34 0 6 6 1 14 -10 8
-10 12 -21 10 -24z m383 18 c-3 -8 -6 -5 -6 6 -1 11 2 17 5 13 3 -3 4 -12 1
-19z m698 12 c3 -5 1 -10 -4 -10 -6 0 -11 5 -11 10 0 6 2 10 4 10 3 0 8 -4 11
-10z m33 -15 c0 -14 -6 -25 -13 -25 -8 0 -16 -6 -18 -12 -3 -7 -6 -3 -6 10 -1
13 3 21 8 17 5 -3 12 4 16 15 9 27 13 25 13 -5z m210 1 c-1 -14 -6 -22 -10
-20 -4 3 -8 0 -8 -7 0 -7 -2 -10 -5 -7 -5 5 14 58 21 58 2 0 3 -11 2 -24z
m589 2 c-2 -35 -21 -50 -35 -27 -7 11 -18 16 -27 13 -8 -4 -15 -1 -15 6 0 6 4
9 9 6 5 -3 14 1 21 9 20 24 49 19 47 -7z m43 -4 c0 -21 -17 -17 -23 5 -3 14
-1 18 9 14 8 -3 14 -11 14 -19z m-2266 -14 c-6 -6 -10 -3 -10 10 0 13 4 16 10
10 7 -7 7 -13 0 -20z m746 20 c0 -5 -7 -7 -15 -4 -8 4 -15 8 -15 10 0 2 7 4
15 4 8 0 15 -4 15 -10z m181 -5 c2 -30 9 -50 18 -53 20 -7 11 -17 -14 -17 -14
0 -25 6 -25 13 0 7 5 10 10 7 18 -11 10 7 -11 26 -28 25 -43 14 -23 -16 16
-24 12 -45 -8 -45 -6 0 -8 9 -5 20 3 11 2 20 -2 20 -3 0 -12 9 -19 20 -11 18
-10 21 7 28 29 10 71 9 72 -3z m1146 -9 c-3 -8 -15 -14 -26 -13 -27 2 -27 17
-1 17 11 0 20 5 20 12 0 6 3 9 6 5 4 -3 4 -13 1 -21z m2279 -24 c-12 -11 -18
7 -10 30 l8 23 4 -23 c2 -13 1 -26 -2 -30z m-5419 23 c0 -8 -4 -15 -9 -15 -10
0 -11 14 -1 23 9 10 10 9 10 -8z m1440 9 c-3 -3 -12 -4 -19 -1 -8 3 -5 6 6 6
11 1 17 -2 13 -5z m153 -19 c0 -8 -9 -10 -25 -7 -14 2 -25 9 -25 14 0 5 5 6
10 3 6 -3 10 -2 10 4 0 6 7 8 15 5 8 -4 15 -12 15 -19z m140 8 c0 -15 -2 -16
-10 -3 -7 11 -12 12 -17 4 -6 -9 -12 -8 -21 2 -11 12 -8 14 18 14 22 0 30 -5
30 -17z m3660 2 c0 -8 -4 -15 -10 -15 -5 0 -7 7 -4 15 4 8 8 15 10 15 2 0 4
-7 4 -15z m-3925 -7 c-3 -7 -17 -14 -31 -15 -29 -1 -21 12 11 20 11 3 21 5 22
6 1 0 0 -5 -2 -11z m646 -1 c-1 -12 -15 -9 -19 4 -3 6 1 10 8 8 6 -3 11 -8 11
-12z m496 -9 c-3 -8 -6 -5 -6 6 -1 11 2 17 5 13 3 -3 4 -12 1 -19z m427 13 c3
-5 -1 -11 -9 -15 -15 -6 -29 7 -18 18 9 9 21 8 27 -3z m163 -3 c-2 -7 -11 -12
-19 -10 -9 1 -18 -5 -22 -13 -3 -9 -11 -13 -17 -10 -15 10 19 45 43 45 11 0
18 -5 15 -12z m-2203 -10 c-3 -4 -9 -8 -15 -8 -5 0 -9 4 -9 8 0 5 7 9 15 9 8
0 12 -4 9 -9z m3406 -2 c-7 -7 -14 -6 -21 1 -9 9 -7 12 9 10 14 -1 18 -5 12
-11z m-5395 -16 c-10 -11 -24 -19 -31 -16 -7 3 -15 -6 -18 -20 -4 -13 -11 -24
-17 -24 -8 0 -8 4 -1 13 7 8 7 18 2 27 -8 13 -10 12 -10 -2 0 -9 -5 -20 -12
-24 -7 -5 -8 -3 -3 6 5 8 3 11 -6 8 -8 -3 -14 -12 -14 -21 0 -19 -14 -35 -16
-19 -1 7 -3 17 -4 22 -1 6 -3 13 -4 18 -1 4 -6 -1 -12 -10 -5 -10 -14 -18 -19
-18 -12 0 1 40 14 41 6 0 -2 7 -19 15 -29 14 -28 14 33 12 34 -2 62 -1 62 2 0
3 21 6 47 8 l47 3 -19 -21z m832 -7 c-3 -3 -11 -2 -17 2 -9 6 -9 10 1 16 14 8
27 -7 16 -18z m-1072 7 c3 -6 -1 -7 -9 -4 -18 7 -21 14 -7 14 6 0 13 -4 16
-10z m1030 0 c3 -5 2 -10 -4 -10 -5 0 -13 5 -16 10 -3 6 -2 10 4 10 5 0 13 -4
16 -10z m2872 -6 c11 -10 26 -14 43 -10 27 5 50 -8 50 -28 0 -6 -5 -3 -11 7
-8 13 -14 15 -29 7 -10 -5 -26 -7 -35 -4 -9 4 -24 -1 -34 -10 -13 -12 -21 -14
-26 -6 -4 6 -1 9 7 8 8 -2 13 7 13 25 -1 31 1 32 22 11z m2590 -6 c-3 -8 -6
-5 -6 6 -1 11 2 17 5 13 3 -3 4 -12 1 -19z m-6771 -10 c18 -20 18 -21 1 -15
-10 4 -22 7 -27 7 -4 0 -10 7 -14 15 -8 23 18 18 40 -7z m39 12 c-3 -5 -11
-10 -16 -10 -6 0 -7 5 -4 10 3 6 11 10 16 10 6 0 7 -4 4 -10z m3098 -6 c7 1 9
1 4 -1 -4 -3 -4 -10 0 -16 4 -7 -1 -6 -10 2 -9 7 -17 19 -16 25 0 7 2 7 5 -1
3 -7 11 -11 17 -9z m53 -12 c-17 -16 -18 -16 -5 5 7 12 15 20 18 17 3 -2 -3
-12 -13 -22z m94 24 c0 -11 -19 -15 -25 -6 -3 5 1 10 9 10 9 0 16 -2 16 -4z
m-1206 -14 c2 -4 -4 -9 -15 -9 -11 -1 -17 2 -14 8 7 11 22 12 29 1z m31 -2 c3
-5 1 -10 -4 -10 -6 0 -11 5 -11 10 0 6 2 10 4 10 3 0 8 -4 11 -10z m645 -2 c0
-4 -9 -8 -21 -8 -11 0 -18 4 -15 8 3 5 12 9 21 9 8 0 15 -4 15 -9z m220 4 c0
-5 -7 -9 -15 -9 -8 0 -15 4 -15 9 0 4 7 8 15 8 8 0 15 -4 15 -8z m435 1 c-11
-3 -23 -10 -26 -15 -3 -5 -9 -3 -12 6 -5 13 0 16 26 15 21 -1 25 -3 12 -6z
m195 -7 c0 -16 -18 -31 -27 -22 -8 8 5 36 17 36 5 0 10 -6 10 -14z m153 -6 c3
-11 1 -18 -4 -14 -5 3 -9 12 -9 20 0 20 7 17 13 -6z m180 3 c-5 -15 -4 -16 8
-7 21 17 63 29 55 15 -4 -6 -3 -11 3 -11 5 0 11 6 14 13 3 6 4 2 4 -10 -1 -22
-16 -26 -29 -8 -5 6 -15 6 -28 -3 -14 -8 -26 -10 -38 -3 -12 7 -22 5 -36 -7
-11 -9 -16 -12 -12 -5 4 8 -1 12 -16 11 -42 -2 -55 3 -33 11 11 5 30 5 42 0
15 -5 23 -4 27 7 3 8 14 14 25 14 15 0 19 -4 14 -17z m207 8 c0 -5 -7 -12 -16
-15 -14 -5 -15 -4 -4 9 14 17 20 19 20 6z m173 -8 c-22 -17 -33 -16 -33 1 0 9
10 13 25 12 23 -1 24 -2 8 -13z m75 4 c6 -7 7 -19 3 -26 -12 -18 -52 4 -45 24
7 18 28 19 42 2z m35 -7 c3 -12 0 -20 -8 -20 -8 0 -11 8 -8 20 3 11 7 20 8 20
1 0 5 -9 8 -20z m127 9 c0 -6 10 -9 23 -7 17 3 23 0 23 -13 0 -13 -6 -17 -21
-14 -11 2 -28 4 -38 4 -11 1 -15 5 -11 13 5 8 2 9 -9 5 -9 -3 -19 -2 -22 3 -3
5 3 11 12 13 32 8 43 7 43 -4z m143 2 c10 -1 16 -5 12 -10 -3 -5 0 -11 7 -14
7 -2 5 -3 -5 -1 -9 1 -20 -4 -25 -11 -5 -10 -12 -11 -22 -5 -13 8 -12 10 3 10
10 0 16 4 12 10 -8 12 -33 2 -37 -16 -2 -9 -8 -10 -17 -5 -11 7 -10 12 4 29
10 11 25 18 34 17 9 -2 24 -4 34 -4z m1224 -23 c-3 -7 -5 -2 -5 12 0 14 2 19
5 13 2 -7 2 -19 0 -25z m-5627 2 c-13 -24 -30 -26 -30 -4 0 8 4 13 9 9 5 -3
12 -1 16 5 11 19 16 10 5 -10z m2045 10 c-3 -5 -12 -10 -18 -10 -7 0 -6 4 3
10 19 12 23 12 15 0z m246 -8 c-7 -2 -18 1 -23 6 -8 8 -4 9 13 5 13 -4 18 -8
10 -11z m1074 8 c3 -5 1 -10 -4 -10 -6 0 -11 5 -11 10 0 6 2 10 4 10 3 0 8 -4
11 -10z m59 0 c14 11 16 10 10 -4 -8 -20 -36 -17 -41 4 -4 13 -3 13 5 1 9 -12
13 -13 26 -1z m-3383 -27 c-8 -15 -10 -15 -11 -2 0 17 10 32 18 25 2 -3 -1
-13 -7 -23z m1119 17 c0 -5 -2 -10 -4 -10 -3 0 -8 5 -11 10 -3 6 -1 10 4 10 6
0 11 -4 11 -10z m1075 -8 c-3 -3 -11 0 -18 7 -9 10 -8 11 6 5 10 -3 15 -9 12
-12z m540 8 c3 -5 -1 -10 -9 -10 -9 0 -16 5 -16 10 0 6 4 10 9 10 6 0 13 -4
16 -10z m1720 -7 c-2 -10 -4 -20 -4 -22 -1 -3 -6 0 -12 6 -6 6 -8 16 -5 22 11
17 25 13 21 -6z m28 2 c4 -8 3 -16 -1 -19 -4 -3 -9 4 -9 15 -2 23 3 25 10 4z
m552 5 c-3 -5 -12 -10 -18 -10 -7 0 -6 4 3 10 19 12 23 12 15 0z m1562 -15 c0
-8 -4 -15 -9 -15 -4 0 -8 2 -8 4 0 2 -3 12 -6 20 -4 11 -2 15 8 11 8 -3 15
-12 15 -20z m-1835 -4 c27 -10 47 -31 29 -31 -6 0 -11 5 -11 11 0 5 -4 7 -10
4 -17 -11 -12 -35 7 -28 11 4 14 3 9 -6 -12 -19 31 -60 57 -54 22 5 22 5 2
-10 -27 -22 -40 -21 -59 6 -9 12 -14 16 -11 9 4 -6 -1 -15 -9 -18 -9 -3 -13
-10 -10 -15 3 -5 1 -9 -5 -9 -15 0 -23 18 -11 25 5 3 10 13 10 21 0 24 -33 12
-47 -16 -11 -22 -18 -21 -14 3 0 4 -2 7 -6 8 -5 0 -18 2 -30 5 -18 3 -21 0
-16 -14 4 -10 -1 -8 -14 8 -11 13 -19 30 -16 36 5 14 53 25 53 13 0 -5 8 -9
18 -9 14 0 15 2 2 10 -13 8 -12 10 3 10 9 0 17 -7 17 -15 0 -18 20 -20 21 -2
0 10 2 10 6 0 2 -7 14 -13 26 -13 20 1 21 2 5 14 -10 7 -18 18 -18 23 0 6 -7
16 -15 23 -10 9 -15 9 -15 1 0 -19 -26 -12 -27 8 -1 15 4 19 25 16 15 -2 39
-8 54 -14z m885 4 c0 -8 -4 -15 -9 -15 -10 0 -11 14 -1 23 9 10 10 9 10 -8z
m1166 -6 c-8 -8 -13 -7 -18 2 -5 8 -4 10 3 5 7 -4 12 -2 12 5 0 7 3 9 7 6 4
-4 2 -12 -4 -18z m-6523 7 c0 -9 -30 -14 -35 -6 -4 6 3 10 14 10 12 0 21 -2
21 -4z m3890 -6 c0 -5 -7 -7 -15 -4 -8 4 -15 8 -15 10 0 2 7 4 15 4 8 0 15 -4
15 -10z m488 -20 c-2 -6 -8 -6 -18 0 -13 9 -13 11 0 20 15 10 25 0 18 -20z
m877 20 c4 -6 1 -17 -5 -26 -14 -16 -40 -2 -40 22 0 16 36 19 45 4z m1105 -5
c9 -11 10 -19 3 -26 -6 -6 -13 -1 -21 16 -13 28 -2 34 18 10z m-6266 -3 c3 -5
-1 -9 -9 -9 -8 0 -12 4 -9 9 3 4 7 8 9 8 2 0 6 -4 9 -8z m3244 -33 l27 0 -24
-10 c-16 -6 -28 -6 -36 1 -9 8 -15 8 -20 0 -3 -5 -11 -10 -18 -10 -6 0 -2 7 9
15 11 8 14 15 7 15 -7 0 -13 8 -13 17 0 14 3 13 20 -5 12 -12 33 -22 48 -23z
m577 31 c3 -5 1 -10 -4 -10 -6 0 -11 5 -11 10 0 6 2 10 4 10 3 0 8 -4 11 -10z
m994 -13 c9 15 64 24 80 14 21 -14 6 -44 -19 -36 -11 3 -20 2 -20 -3 0 -6 -8
-9 -17 -8 -10 2 -21 -2 -25 -8 -9 -14 -27 35 -19 54 4 12 6 11 9 -4 2 -10 7
-14 11 -9z m-1271 -18 c-6 -4 -8 -13 -5 -21 3 -9 -1 -15 -9 -15 -8 0 -14 7
-14 15 0 12 -2 12 -17 1 -14 -12 -14 -11 1 13 10 15 22 25 27 22 5 -3 9 1 9 8
0 10 3 9 10 -2 6 -9 5 -17 -2 -21z m508 13 c9 10 31 -14 31 -35 0 -11 -6 -16
-14 -13 -7 3 -13 0 -13 -7 -1 -7 -5 -6 -13 4 -10 13 -15 14 -24 4 -10 -10 -9
-15 4 -19 9 -4 13 -9 10 -13 -4 -3 -13 -1 -21 6 -8 6 -28 9 -45 6 -29 -5 -30
-4 -21 20 9 25 -3 37 -13 13 -3 -8 -6 -6 -6 5 -1 23 26 22 39 -3 14 -26 33
-26 25 1 -5 15 -2 22 14 26 12 3 21 10 21 17 0 6 4 4 10 -4 5 -8 12 -11 16 -8z
m604 -4 c0 -5 -4 -7 -9 -4 -5 3 -16 -6 -26 -20 -9 -14 -19 -23 -22 -20 -4 3 2
15 12 26 10 11 15 20 11 20 -4 0 -5 4 -1 10 7 11 35 2 35 -12z m1558 11 c25
13 40 -2 23 -23 -15 -18 -58 -17 -73 2 -10 12 -10 14 0 8 8 -5 12 -1 12 11 0
14 2 15 9 4 6 -10 13 -11 29 -2z m237 1 c3 -5 1 -10 -4 -10 -6 0 -11 5 -11 10
0 6 2 10 4 10 3 0 8 -4 11 -10z m-6975 -10 c0 -5 -2 -10 -4 -10 -3 0 -8 5 -11
10 -3 6 -1 10 4 10 6 0 11 -4 11 -10z m3320 0 c8 -5 12 -11 10 -14 -3 -2 -14
2 -24 10 -22 15 -10 19 14 4z m89 -11 c-15 -9 -32 -2 -24 11 3 5 13 6 21 3 12
-4 13 -8 3 -14z m418 15 c-3 -4 -1 -16 5 -27 9 -17 8 -19 -6 -14 -9 4 -20 -1
-25 -11 -6 -10 -11 -12 -11 -4 0 14 29 62 38 62 3 0 2 -3 -1 -6z m121 -32 c2
-6 -5 -8 -17 -5 -12 3 -21 10 -21 15 0 5 -7 2 -16 -7 -23 -23 -30 -11 -7 13
15 16 21 17 37 7 11 -6 22 -17 24 -23z m339 18 c-1 -23 -24 -28 -24 -5 0 8 4
12 9 9 4 -3 8 0 8 5 0 6 2 11 4 11 3 0 4 -9 3 -20z m1414 1 c-8 -14 -7 -22 3
-30 7 -6 16 -9 20 -6 3 3 2 0 -2 -5 -6 -7 -17 -8 -35 -1 l-27 11 22 25 c26 30
32 32 19 6z m-5411 0 c0 -5 -9 -7 -20 -4 -11 3 -20 7 -20 9 0 2 9 4 20 4 11 0
20 -4 20 -9z m1195 -1 c3 -6 -1 -7 -9 -4 -18 7 -21 14 -7 14 6 0 13 -4 16 -10z
m1994 -19 c-6 -2 -18 4 -27 13 -15 15 -15 15 10 4 15 -7 23 -15 17 -17z m201
19 c0 -5 -4 -10 -10 -10 -5 0 -10 5 -10 10 0 6 5 10 10 10 6 0 10 -4 10 -10z
m435 0 c3 -5 -1 -10 -9 -10 -9 0 -16 5 -16 10 0 6 4 10 9 10 6 0 13 -4 16 -10z
m1435 -4 c0 -8 -4 -18 -10 -21 -5 -3 -10 3 -10 14 0 12 5 21 10 21 6 0 10 -6
10 -14z m-3570 -11 c7 -9 11 -17 8 -20 -2 -2 -12 4 -21 15 -9 11 -13 20 -8 20
5 0 14 -7 21 -15z m2242 -7 c-11 -11 -32 -3 -32 12 0 4 9 6 21 3 13 -4 17 -9
11 -15z m94 -36 c-3 -2 -14 1 -25 7 -19 11 -20 12 -3 29 16 17 17 16 24 -7 4
-14 6 -27 4 -29z m34 49 c0 -6 -4 -12 -8 -15 -5 -3 -9 1 -9 9 0 8 4 15 9 15 4
0 8 -4 8 -9z m30 -12 c0 -5 -4 -9 -10 -9 -5 0 -10 7 -10 16 0 8 5 12 10 9 6
-3 10 -10 10 -16z m695 10 c4 -6 4 -13 0 -17 -4 -4 -10 -1 -12 6 -3 6 -9 10
-14 6 -5 -3 -9 0 -9 5 0 14 27 14 35 0z m660 -7 c-3 -3 -11 0 -18 7 -9 10 -8
11 6 5 10 -3 15 -9 12 -12z m-4335 -7 c11 -13 10 -14 -4 -9 -9 3 -16 10 -16
15 0 13 6 11 20 -6z m46 0 c-1 -8 -5 -17 -9 -20 -4 -3 -5 -2 -2 2 3 3 -2 11
-11 17 -13 10 -13 12 4 13 12 1 19 -4 18 -12z m289 5 c3 -5 1 -10 -4 -10 -6 0
-11 5 -11 10 0 6 2 10 4 10 3 0 8 -4 11 -10z m325 -5 c0 -11 -29 -11 -33 -1
-4 10 1 12 14 9 10 -3 19 -7 19 -8z m60 0 c0 -8 -2 -15 -4 -15 -2 0 -6 7 -10
15 -3 8 -1 15 4 15 6 0 10 -7 10 -15z m1427 9 c-3 -3 -12 -4 -19 -1 -8 3 -5 6
6 6 11 1 17 -2 13 -5z m869 -16 c0 -12 -7 -23 -13 -26 -14 -4 -16 7 -7 32 9
23 21 20 20 -6z m242 1 c-10 -7 -10 -9 0 -9 6 0 12 -4 12 -10 0 -5 -7 -7 -15
-4 -8 4 -15 15 -15 25 0 13 5 16 16 12 13 -5 13 -7 2 -14z m72 2 c0 -3 -7 -14
-14 -24 -13 -17 -14 -17 -18 0 -7 26 1 43 18 36 8 -3 14 -8 14 -12z m-3656
-15 c-6 -16 -24 -13 -24 5 0 6 5 7 10 4 6 -3 10 -1 10 6 0 7 2 10 5 7 3 -3 3
-13 -1 -22z m276 10 c0 -20 -17 -29 -26 -15 -5 8 -3 9 6 4 10 -6 12 -4 7 8 -3
10 -2 17 3 17 6 0 10 -6 10 -14z m570 6 c0 -5 -7 -17 -15 -28 -14 -18 -14 -17
-4 9 12 27 19 34 19 19z m37 2 c-3 -3 -12 -4 -19 -1 -8 3 -5 6 6 6 11 1 17 -2
13 -5z m-2149 -29 c-3 -3 -9 2 -12 12 -6 14 -5 15 5 6 7 -7 10 -15 7 -18z
m918 -2 c-10 -10 -19 5 -10 18 6 11 8 11 12 0 2 -7 1 -15 -2 -18z m112 10 c6
-2 12 2 12 8 0 8 5 7 16 -2 13 -10 19 -10 36 0 11 7 17 8 14 3 -3 -6 -3 -12 1
-15 5 -2 2 -2 -4 -1 -7 2 -13 -1 -13 -6 0 -6 -3 -9 -7 -8 -20 5 -54 -15 -49
-28 3 -8 0 -14 -5 -14 -6 0 -9 9 -6 20 3 10 -1 24 -9 31 -8 6 -14 17 -14 23 0
7 3 7 8 1 4 -5 13 -11 20 -12z m207 -31 c-3 -3 -5 1 -5 9 0 12 -2 11 -11 -1
-9 -12 -10 -12 -5 3 3 10 6 24 7 30 0 7 5 1 10 -12 5 -13 7 -26 4 -29z m95 42
c0 -8 -19 -13 -24 -6 -3 5 1 9 9 9 8 0 15 -2 15 -3z m670 -9 c0 -8 -4 -15 -10
-15 -5 0 -10 7 -10 15 0 8 5 15 10 15 6 0 10 -7 10 -15z m380 5 c0 -5 -5 -10
-11 -10 -5 0 -7 5 -4 10 3 6 8 10 11 10 2 0 4 -4 4 -10z m150 -5 c0 -17 2 -18
24 -9 9 3 13 10 10 15 -3 5 2 9 10 9 8 0 18 -4 21 -10 3 -5 -1 -10 -9 -10 -8
0 -21 -7 -30 -15 -9 -10 -17 -11 -21 -5 -4 6 -10 8 -15 5 -5 -3 -12 0 -16 6
-5 8 -3 9 6 4 10 -6 12 -4 7 8 -3 10 -2 17 3 17 6 0 10 -7 10 -15z m120 -9 c0
-16 -37 -28 -46 -15 -3 5 2 9 10 9 9 0 16 7 16 16 0 8 5 12 10 9 6 -3 10 -12
10 -19z m120 14 c0 -5 -11 -9 -25 -8 -14 1 -25 6 -25 10 0 4 11 8 25 8 14 0
25 -4 25 -10z m210 -1 c0 -5 -4 -8 -9 -5 -5 4 -12 0 -14 -6 -3 -8 -6 -6 -6 5
-1 9 6 17 14 17 8 0 15 -5 15 -11z m220 -4 c7 -9 8 -15 2 -15 -5 0 -12 7 -16
15 -3 8 -4 15 -2 15 2 0 9 -7 16 -15z m457 -7 c-3 -8 -6 -5 -6 6 -1 11 2 17 5
13 3 -3 4 -12 1 -19z m3303 12 c0 -5 -2 -10 -4 -10 -3 0 -8 5 -11 10 -3 6 -1
10 4 10 6 0 11 -4 11 -10z m313 -6 c-3 -9 -13 -14 -24 -11 -11 3 -23 -2 -29
-11 -9 -16 -9 -16 -10 0 0 9 12 21 28 26 38 15 42 14 35 -4z m-5498 -4 c3 -5
2 -10 -4 -10 -5 0 -13 5 -16 10 -3 6 -2 10 4 10 5 0 13 -4 16 -10z m385 -6 c0
-14 -3 -14 -15 -4 -8 7 -15 14 -15 16 0 2 7 4 15 4 8 0 15 -7 15 -16z m40 6
c0 -5 -8 -10 -17 -10 -15 0 -16 2 -3 10 19 12 20 12 20 0z m720 -5 c0 -8 -2
-15 -4 -15 -2 0 -6 7 -10 15 -3 8 -1 15 4 15 6 0 10 -7 10 -15z m1525 5 c3 -5
1 -10 -4 -10 -6 0 -11 5 -11 10 0 6 2 10 4 10 3 0 8 -4 11 -10z m965 -15 c-8
-10 -7 -14 7 -17 15 -3 14 -5 -5 -10 -12 -3 -20 -2 -16 3 3 5 0 9 -5 9 -6 0
-11 -5 -11 -12 0 -9 -3 -9 -11 -1 -15 15 -2 34 19 31 10 -2 16 3 14 10 -1 8 2
11 8 7 8 -5 8 -11 0 -20z m-4658 -2 c4 -15 -2 -18 -43 -18 -26 -1 -45 3 -42 8
3 5 13 7 23 4 11 -3 21 1 24 9 8 20 33 17 38 -3z m221 -3 c-6 -24 -23 -37 -23
-18 0 12 18 38 26 38 1 0 0 -9 -3 -20z m1297 10 c0 -5 -9 -9 -20 -7 -31 5 -36
17 -7 17 15 0 27 -4 27 -10z m595 0 c-3 -5 -19 -8 -35 -8 -38 1 -30 15 10 16
17 0 28 -3 25 -8z m2074 -4 c10 -12 8 -13 -8 -9 -12 3 -18 9 -15 14 7 12 10
11 23 -5z m554 5 c11 -2 8 -31 -3 -31 -5 0 -10 7 -10 15 0 8 -5 15 -11 15 -5
0 -8 -4 -5 -9 3 -5 -1 -11 -9 -15 -10 -3 -15 1 -15 13 0 17 11 19 53 12z
m1692 0 c-11 -5 -23 -7 -27 -4 -4 2 -5 -4 -1 -13 4 -11 2 -15 -7 -12 -7 2 -14
12 -16 21 -2 13 5 17 34 16 29 0 33 -2 17 -8z m-6688 -7 c-3 -3 -12 -4 -19 -1
-8 3 -5 6 6 6 11 1 17 -2 13 -5z m383 -16 c0 -16 -3 -19 -11 -11 -6 6 -8 16
-5 22 11 17 16 13 16 -11z m450 18 c0 -3 -4 -8 -10 -11 -5 -3 -10 -1 -10 4 0
6 5 11 10 11 6 0 10 -2 10 -4z m970 0 c0 -3 -4 -8 -10 -11 -5 -3 -10 -1 -10 4
0 6 5 11 10 11 6 0 10 -2 10 -4z m680 -7 c0 -11 -37 -12 -43 -1 -3 4 6 8 19 8
13 1 24 -2 24 -7z m2360 1 c8 -5 11 -12 8 -16 -4 -3 -14 1 -23 10 -18 17 -9
21 15 6z m1735 0 c3 -5 1 -10 -4 -10 -6 0 -11 5 -11 10 0 6 2 10 4 10 3 0 8
-4 11 -10z m-4485 -4 c0 -11 -19 -15 -25 -6 -3 5 1 10 9 10 9 0 16 -2 16 -4z
m4418 -10 c-7 -8 -15 -12 -17 -11 -5 6 10 25 20 25 5 0 4 -6 -3 -14z m187 4
c3 -5 1 -10 -4 -10 -6 0 -11 5 -11 10 0 6 2 10 4 10 3 0 8 -4 11 -10z m-6569
-27 c-10 -10 -19 5 -10 18 6 11 8 11 12 0 2 -7 1 -15 -2 -18z m1398 12 c-6
-16 -24 -21 -24 -7 0 11 11 22 21 22 5 0 6 -7 3 -15z m3509 0 c-3 -9 -8 -14
-10 -11 -3 3 -2 9 2 15 9 16 15 13 8 -4z m551 -6 c9 8 13 7 13 -4 0 -8 -9 -15
-19 -15 -10 0 -18 2 -18 4 0 2 -3 13 -6 23 -5 17 -5 17 6 0 8 -13 15 -15 24
-8z m-4344 1 c0 -5 -4 -10 -10 -10 -5 0 -10 5 -10 10 0 6 5 10 10 10 6 0 10
-4 10 -10z m2475 0 c3 -5 1 -10 -4 -10 -6 0 -11 5 -11 10 0 6 2 10 4 10 3 0 8
-4 11 -10z m-4055 -4 c0 -3 -4 -8 -10 -11 -5 -3 -10 -1 -10 4 0 6 5 11 10 11
6 0 10 -2 10 -4z m3785 -6 c3 -6 -1 -7 -9 -4 -18 7 -21 14 -7 14 6 0 13 -4 16
-10z m792 4 c-3 -3 -12 -4 -19 -1 -8 3 -5 6 6 6 11 1 17 -2 13 -5z m168 -4 c3
-6 -1 -7 -9 -4 -18 7 -21 14 -7 14 6 0 13 -4 16 -10z m1308 -4 c3 4 13 0 21
-9 8 -8 12 -17 9 -21 -3 -3 -12 2 -19 12 -8 10 -13 12 -14 5 0 -19 -20 -16
-20 3 0 9 -5 12 -12 8 -7 -4 -8 -3 -4 5 6 8 12 9 20 2 7 -6 16 -8 19 -5z m690
-1 c-3 -9 -8 -14 -10 -11 -3 3 -2 9 2 15 9 16 15 13 8 -4z m-5574 -27 c-5 -17
-13 -36 -19 -42 -8 -8 -9 -6 -5 6 4 11 0 25 -11 35 -17 17 -16 18 12 24 16 4
30 7 31 8 1 0 -3 -13 -8 -31z m79 25 c-10 -2 -18 -9 -18 -14 0 -6 6 -7 13 -3
10 6 10 4 0 -7 -10 -10 -16 -10 -25 -1 -10 10 -10 15 2 22 8 5 22 9 30 9 11
-1 10 -3 -2 -6z m60 0 c-10 -2 -15 -10 -11 -19 3 -8 1 -14 -5 -14 -5 0 -12 6
-15 14 -6 15 7 25 33 24 11 0 10 -2 -2 -5z m802 3 c0 -3 -4 -8 -10 -11 -5 -3
-10 -1 -10 4 0 6 5 11 10 11 6 0 10 -2 10 -4z m2527 -2 c-3 -3 -12 -4 -19 -1
-8 3 -5 6 6 6 11 1 17 -2 13 -5z m250 -16 c-3 -8 -6 -5 -6 6 -1 11 2 17 5 13
3 -3 4 -12 1 -19z m-3894 -1 c10 -4 15 -12 12 -17 -5 -8 -11 -8 -20 0 -16 14
-45 2 -45 -19 0 -10 -3 -12 -8 -5 -4 6 -28 10 -53 9 -38 -2 -46 1 -42 14 3 13
16 16 64 14 34 -1 59 2 59 8 0 6 3 8 8 6 4 -2 15 -7 25 -10z m60 -3 c-3 -8 0
-14 6 -14 6 0 11 6 11 13 0 7 9 13 20 14 17 2 18 -1 7 -18 -6 -10 -20 -19 -29
-19 -10 0 -18 -4 -18 -10 0 -5 -6 -10 -14 -10 -8 0 -13 8 -11 18 1 9 -2 22 -6
28 -7 8 -2 12 15 12 17 0 23 -5 19 -14z m1574 -7 c1 -11 1 -18 0 -16 -2 2 -8
11 -15 20 -9 12 -9 16 1 16 7 0 14 -9 14 -20z m210 -9 c-3 -7 -5 -2 -5 12 0
14 2 19 5 13 2 -7 2 -19 0 -25z m98 22 c3 -5 1 -10 -4 -10 -6 0 -11 5 -11 10
0 6 2 10 4 10 3 0 8 -4 11 -10z m1572 -12 c-3 -8 -6 -5 -6 6 -1 11 2 17 5 13
3 -3 4 -12 1 -19z m623 16 c0 -8 -19 -13 -24 -6 -3 5 1 9 9 9 8 0 15 -2 15 -3z
m1688 -11 c-13 -16 -22 -17 -12 -1 5 8 2 9 -10 5 -9 -4 -15 -3 -11 2 3 6 14 9
25 8 14 -1 16 -4 8 -14z m162 7 c0 -5 -5 -10 -11 -10 -5 0 -7 5 -4 10 3 6 8
10 11 10 2 0 4 -4 4 -10z m-5380 -4 c0 -3 -4 -8 -10 -11 -5 -3 -10 -1 -10 4 0
6 5 11 10 11 6 0 10 -2 10 -4z m433 -17 c4 -16 3 -18 -9 -8 -7 6 -11 15 -8 20
8 13 11 11 17 -12z m1577 11 c0 -5 -2 -10 -4 -10 -3 0 -8 5 -11 10 -3 6 -1 10
4 10 6 0 11 -4 11 -10z m1380 0 c0 -5 -2 -10 -4 -10 -3 0 -8 5 -11 10 -3 6 -1
10 4 10 6 0 11 -4 11 -10z m276 -13 c1 -9 -2 -15 -7 -11 -5 3 -7 9 -4 14 3 5
-3 11 -12 14 -15 4 -15 5 1 3 11 -1 20 -10 22 -20z m1650 12 c3 -6 1 -16 -5
-22 -9 -9 -10 -7 -5 7 5 13 4 17 -4 12 -7 -4 -12 -2 -12 3 0 14 17 14 26 0z
m-6103 -10 c-6 -6 -9 -18 -6 -25 4 -11 -1 -12 -27 -3 -32 12 -31 23 5 32 34 8
39 7 28 -4z m307 7 c0 -3 -4 -8 -10 -11 -5 -3 -10 -1 -10 4 0 6 5 11 10 11 6
0 10 -2 10 -4z m4267 -18 c-3 -8 -6 -5 -6 6 -1 11 2 17 5 13 3 -3 4 -12 1 -19z
m1339 -13 c0 -19 -3 -35 -8 -35 -4 0 -8 16 -8 35 0 46 15 46 16 0z m354 20
c-7 -9 -15 -13 -19 -10 -3 3 1 10 9 15 21 14 24 12 10 -5z m-2550 -10 c0 -8
-4 -15 -10 -15 -5 0 -7 7 -4 15 4 8 8 15 10 15 2 0 4 -7 4 -15z m830 -35 c0 8
8 10 26 6 19 -5 24 -4 18 6 -6 11 -5 11 8 0 13 -10 17 -10 21 0 3 7 6 1 6 -13
1 -23 -3 -27 -24 -25 -14 0 -25 4 -25 9 0 4 -11 5 -25 1 -15 -4 -25 -2 -25 5
0 6 -7 8 -15 5 -11 -5 -15 1 -15 20 l0 27 25 -27 c14 -15 25 -21 25 -14z
m1507 0 c1 -19 0 -30 -3 -24 -2 6 -18 8 -34 6 -25 -4 -30 -1 -30 17 0 11 6 20
13 19 6 -2 11 2 10 8 -1 6 8 11 20 10 18 -1 22 -8 24 -36z m-7062 20 c3 -5 1
-10 -4 -10 -6 0 -11 5 -11 10 0 6 2 10 4 10 3 0 8 -4 11 -10z m2155 6 c0 -2
-7 -7 -16 -10 -8 -3 -12 -2 -9 4 6 10 25 14 25 6z m2050 0 c0 -3 -4 -8 -10
-11 -5 -3 -10 -1 -10 4 0 6 5 11 10 11 6 0 10 -2 10 -4z m1047 -9 c11 4 14 2
9 -5 -8 -14 -56 -16 -56 -3 0 12 24 20 28 10 2 -4 10 -5 19 -2z m106 -13 c-4
-10 -9 -12 -15 -6 -12 12 -1 35 12 27 5 -3 6 -13 3 -21z m-3648 6 c-3 -5 -12
-10 -18 -10 -7 0 -6 4 3 10 19 12 23 12 15 0z m3085 0 c0 -5 -5 -10 -11 -10
-5 0 -7 5 -4 10 3 6 8 10 11 10 2 0 4 -4 4 -10z m-3408 -32 c-8 -8 -9 -4 -5
13 4 13 8 18 11 10 2 -7 -1 -18 -6 -23z m-52 18 c0 -3 -4 -8 -10 -11 -5 -3
-10 -1 -10 4 0 6 5 11 10 11 6 0 10 -2 10 -4z m3957 -2 c-3 -3 -12 -4 -19 -1
-8 3 -5 6 6 6 11 1 17 -2 13 -5z m173 2 c0 -11 -19 -15 -25 -6 -3 5 1 10 9 10
9 0 16 -2 16 -4z m-4355 -26 c3 -5 1 -10 -4 -10 -6 0 -11 5 -11 10 0 6 2 10 4
10 3 0 8 -4 11 -10z"/>
<path d="M1351 501 c-10 -7 -11 -13 -2 -27 10 -18 10 -18 11 3 0 12 6 24 13
26 6 3 8 6 2 6 -5 0 -16 -3 -24 -8z"/>
<path d="M1225 489 c-4 -6 -14 -8 -22 -5 -10 4 -17 -2 -21 -16 -5 -21 -6 -21
-13 -2 -7 16 -8 17 -8 2 -1 -10 -5 -18 -9 -18 -5 0 -9 -7 -9 -15 0 -8 5 -11
11 -8 6 4 17 8 26 9 8 1 22 5 31 8 11 5 19 1 23 -10 4 -12 2 -15 -9 -10 -9 3
-15 0 -15 -10 0 -8 -4 -12 -10 -9 -5 3 -10 1 -10 -4 0 -15 27 -14 33 2 3 9 9
9 25 0 20 -12 72 -3 72 12 0 4 -6 3 -12 -1 -9 -5 -9 -2 1 9 12 15 11 17 -9 17
-17 0 -21 -4 -16 -17 6 -17 5 -17 -8 0 -7 9 -18 17 -24 17 -13 0 -23 26 -16
45 7 17 -2 20 -11 4z"/>
<path d="M1415 490 c-3 -5 -1 -10 4 -10 6 0 11 5 11 10 0 6 -2 10 -4 10 -3 0
-8 -4 -11 -10z"/>
<path d="M1620 470 c-9 -6 -10 -10 -3 -10 6 0 15 5 18 10 8 12 4 12 -15 0z"/>
<path d="M1535 440 c3 -5 12 -7 20 -3 21 7 19 13 -6 13 -11 0 -18 -4 -14 -10z"/>
<path d="M1145 410 c-16 -7 -17 -9 -3 -9 9 -1 20 4 23 9 7 11 7 11 -20 0z"/>
<path d="M865 390 c3 -5 8 -10 11 -10 2 0 4 5 4 10 0 6 -5 10 -11 10 -5 0 -7
-4 -4 -10z"/>
<path d="M900 390 c-13 -8 -12 -10 3 -10 9 0 17 5 17 10 0 12 -1 12 -20 0z"/>
<path d="M786 325 c-2 -7 6 -10 26 -7 31 5 30 15 -2 17 -10 1 -21 -4 -24 -10z"/>
<path d="M5230 386 c0 -2 7 -6 15 -10 8 -3 15 -1 15 4 0 6 -7 10 -15 10 -8 0
-15 -2 -15 -4z"/>
<path d="M5135 360 c3 -5 8 -10 11 -10 2 0 4 5 4 10 0 6 -5 10 -11 10 -5 0 -7
-4 -4 -10z"/>
<path d="M5207 364 c-8 -8 1 -24 14 -24 5 0 9 7 9 15 0 15 -12 20 -23 9z"/>
<path d="M5260 350 c0 -5 5 -10 10 -10 6 0 10 5 10 10 0 6 -4 10 -10 10 -5 0
-10 -4 -10 -10z"/>
<path d="M5312 348 c3 -7 13 -15 24 -17 16 -3 17 -1 5 13 -16 19 -34 21 -29 4z"/>
<path d="M5026 315 c4 -8 10 -15 15 -15 5 0 9 7 9 15 0 8 -7 15 -15 15 -9 0
-12 -6 -9 -15z"/>
<path d="M5684 472 c-15 -10 -25 -42 -14 -42 6 0 10 -7 10 -15 0 -9 9 -15 21
-15 19 0 19 1 4 16 -14 15 -14 18 0 34 20 22 5 40 -21 22z"/>
<path d="M5695 350 c3 -5 8 -10 11 -10 2 0 4 5 4 10 0 6 -5 10 -11 10 -5 0 -7
-4 -4 -10z"/>
<path d="M5788 323 c7 -3 16 -2 19 1 4 3 -2 6 -13 5 -11 0 -14 -3 -6 -6z"/>
<path d="M2720 520 c0 -5 5 -10 10 -10 6 0 10 5 10 10 0 6 -4 10 -10 10 -5 0
-10 -4 -10 -10z"/>
<path d="M4465 320 c-3 -5 -1 -10 4 -10 6 0 11 5 11 10 0 6 -2 10 -4 10 -3 0
-8 -4 -11 -10z"/>
<path d="M5670 269 c0 -5 5 -7 10 -4 6 3 10 8 10 11 0 2 -4 4 -10 4 -5 0 -10
-5 -10 -11z"/>
<path d="M4828 252 c-10 -2 -18 -8 -18 -13 0 -11 11 -11 30 1 18 11 11 18 -12
12z"/>
<path d="M7030 260 c-8 -5 -11 -12 -7 -16 4 -4 13 -2 19 4 15 15 7 24 -12 12z"/>
<path d="M7099 53 c-13 -16 -12 -17 4 -4 9 7 17 15 17 17 0 8 -8 3 -21 -13z"/>
<path d="M5188 933 c7 -3 16 -2 19 1 4 3 -2 6 -13 5 -11 0 -14 -3 -6 -6z"/>
<path d="M6305 926 c11 -8 23 -12 28 -9 13 8 -3 23 -26 23 -20 0 -20 0 -2 -14z"/>
<path d="M6632 924 c9 -9 21 -13 27 -10 19 12 12 22 -16 24 -25 2 -26 1 -11
-14z"/>
<path d="M6706 918 c11 -35 38 -72 42 -59 2 6 -2 19 -9 27 -16 20 -21 44 -8
44 5 0 9 -4 9 -10 0 -5 12 -10 26 -10 14 0 23 4 19 10 -3 6 1 10 9 10 9 0 16
-4 16 -10 0 -15 17 -12 24 5 4 12 -7 15 -65 15 -68 0 -70 -1 -63 -22z"/>
<path d="M5040 921 c0 -10 30 -24 37 -17 3 2 -5 9 -16 16 -12 6 -21 7 -21 1z"/>
<path d="M3919 898 c5 -13 16 -25 26 -26 10 -2 15 0 11 6 -4 7 12 13 39 18 25
3 43 9 40 12 -10 10 -75 11 -75 1 0 -6 -7 -6 -19 1 -28 15 -31 13 -22 -12z"/>
<path d="M6777 880 c-9 -11 -16 -20 -14 -21 13 -6 55 -4 51 2 -2 4 0 10 6 14
13 8 3 25 -13 25 -7 0 -20 -9 -30 -20z"/>
<path d="M3860 886 c0 -2 7 -7 16 -10 8 -3 12 -2 9 4 -6 10 -25 14 -25 6z"/>
<path d="M6620 872 c0 -11 8 -23 18 -25 16 -4 16 -5 0 -6 -19 -1 -24 -16 -9
-25 5 -4 16 -4 24 0 18 7 11 37 -14 60 -18 16 -19 16 -19 -4z"/>
<path d="M6672 878 c5 -15 28 -23 28 -10 0 5 -7 13 -16 16 -10 4 -14 1 -12 -6z"/>
<path d="M130 870 c0 -5 5 -10 11 -10 5 0 7 5 4 10 -3 6 -8 10 -11 10 -2 0 -4
-4 -4 -10z"/>
<path d="M6916 861 c-3 -5 1 -14 9 -21 12 -10 15 -10 15 3 0 19 -16 31 -24 18z"/>
<path d="M6355 851 c-3 -5 -2 -12 3 -15 5 -3 9 1 9 9 0 17 -3 19 -12 6z"/>
<path d="M6872 839 c-10 -15 -10 -19 2 -19 15 0 29 27 18 34 -5 3 -13 -4 -20
-15z"/>
<path d="M6576 825 c-3 -9 0 -15 9 -15 9 0 12 6 9 15 -4 8 -7 15 -9 15 -2 0
-5 -7 -9 -15z"/>
<path d="M6917 789 c-4 -16 -3 -18 9 -8 7 6 11 15 8 20 -8 13 -11 11 -17 -12z"/>
<path d="M7050 780 c0 -6 7 -10 15 -10 8 0 15 2 15 4 0 2 -7 6 -15 10 -8 3
-15 1 -15 -4z"/>
<path d="M6890 749 c0 -5 5 -7 10 -4 6 3 10 8 10 11 0 2 -4 4 -10 4 -5 0 -10
-5 -10 -11z"/>
<path d="M7015 740 c-3 -5 -3 -10 2 -10 4 0 -3 -7 -15 -16 -12 -8 -22 -20 -22
-25 0 -6 14 2 30 18 17 15 30 31 30 35 0 11 -18 10 -25 -2z"/>
<path d="M6870 714 c0 -8 5 -12 10 -9 6 3 10 10 10 16 0 5 -4 9 -10 9 -5 0
-10 -7 -10 -16z"/>
<path d="M6970 630 c0 -5 5 -10 10 -10 6 0 10 5 10 10 0 6 -4 10 -10 10 -5 0
-10 -4 -10 -10z"/>
<path d="M7110 581 c0 -5 -9 -13 -20 -16 -11 -3 -20 -12 -20 -20 0 -7 -6 -16
-12 -18 -10 -4 -9 -6 1 -6 7 -1 24 10 36 23 13 14 26 22 29 18 4 -3 4 1 0 11
-7 19 -14 22 -14 8z"/>
<path d="M7110 520 c-23 -7 -23 -8 -3 -9 12 -1 25 4 28 9 3 6 5 10 3 9 -2 -1
-14 -5 -28 -9z"/>
<path d="M7088 468 c7 -7 16 -7 28 0 14 8 13 10 -10 10 -18 0 -24 -4 -18 -10z"/>
<path d="M7480 401 c0 -7 7 -19 15 -27 13 -13 15 -13 15 -1 0 8 -7 20 -15 27
-11 9 -15 10 -15 1z"/>
<path d="M7150 389 c0 -5 5 -7 10 -4 6 3 10 8 10 11 0 2 -4 4 -10 4 -5 0 -10
-5 -10 -11z"/>
<path d="M86 135 c-3 -8 -1 -15 4 -15 6 0 10 7 10 15 0 8 -2 15 -4 15 -2 0 -6
-7 -10 -15z"/>
<path d="M50 129 c0 -5 5 -7 10 -4 6 3 10 8 10 11 0 2 -4 4 -10 4 -5 0 -10 -5
-10 -11z"/>
<path d="M7216 25 c-3 -8 -1 -15 4 -15 6 0 10 7 10 15 0 8 -2 15 -4 15 -2 0
-6 -7 -10 -15z"/>
<path d="M7338 3 c6 -2 18 -2 25 0 6 3 1 5 -13 5 -14 0 -19 -2 -12 -5z"/>
</g>
</svg>
